<svg xmlns="http://www.w3.org/2000/svg" xmlns:xlink="http://www.w3.org/1999/xlink" viewBox="0 0 1328.525 1410.312"><defs><linearGradient id="a" x1="703.504" x2="871.703" y1="1268.751" y2="1268.751" gradientUnits="userSpaceOnUse"><stop offset="0" stop-color="#c2c8e6"/><stop offset="1" stop-color="#fff"/></linearGradient><linearGradient id="h" x1="192.922" x2="361.121" y1="973.966" y2="973.966" xlink:href="#a"/><linearGradient id="i" x1="1037.016" x2="1205.215" y1="1076.2" y2="1076.2" xlink:href="#a"/><linearGradient id="j" x1="627.965" x2="679.945" y1="831.21" y2="831.21" xlink:href="#a"/><linearGradient id="k" x1="607.216" x2="673.882" y1="829.574" y2="829.574" gradientUnits="userSpaceOnUse"><stop offset=".264" stop-color="#6b66e7"/><stop offset=".34" stop-color="#605bd7"/><stop offset=".487" stop-color="#4440ae"/><stop offset=".494" stop-color="#423eac"/></linearGradient><linearGradient id="l" x1="405.099" x2="629.855" y1="514.162" y2="514.162" gradientUnits="userSpaceOnUse"><stop offset="0" stop-color="#c6cbe7"/><stop offset=".21" stop-color="#dcdff0"/><stop offset=".469" stop-color="#eff1f8"/><stop offset=".732" stop-color="#fbfbfd"/><stop offset="1" stop-color="#fff"/></linearGradient><linearGradient id="m" x1="461.113" x2="482.562" y1="494.973" y2="494.973" gradientUnits="userSpaceOnUse"><stop offset="0" stop-color="#6b67e9"/><stop offset=".057" stop-color="#6763e3"/><stop offset=".468" stop-color="#4c48bd"/><stop offset=".685" stop-color="#423eaf"/></linearGradient><linearGradient id="n" x1="448.023" x2="448.023" y1="560.78" y2="417.053" gradientUnits="userSpaceOnUse"><stop offset="0" stop-color="#fff"/><stop offset=".335" stop-color="#f0f1f8"/><stop offset=".982" stop-color="#c7cce8"/><stop offset="1" stop-color="#c6cbe7"/></linearGradient><linearGradient id="o" x1="648.728" x2="951.41" y1="656.375" y2="656.375" gradientUnits="userSpaceOnUse"><stop offset="0" stop-color="#c2c8e6"/><stop offset=".409" stop-color="#e2e5f3"/><stop offset=".766" stop-color="#f7f8fc"/><stop offset="1" stop-color="#fff"/></linearGradient><linearGradient id="p" x1="-184.638" x2="30.176" y1="676.448" y2="676.448" gradientTransform="matrix(-1 0 0 1 600.465 0)" gradientUnits="userSpaceOnUse"><stop offset=".242" stop-color="#423eac"/><stop offset=".304" stop-color="#4440ae"/><stop offset=".337" stop-color="#4945b6"/><stop offset=".363" stop-color="#524ec4"/><stop offset=".385" stop-color="#605bd7"/><stop offset=".399" stop-color="#6b66e7"/></linearGradient><linearGradient id="q" x1="646.598" x2="782.242" y1="651.857" y2="651.857" gradientUnits="userSpaceOnUse"><stop offset="0" stop-color="#dae0f5"/><stop offset=".319" stop-color="#e0e5f7"/><stop offset=".765" stop-color="#f3f5fc"/><stop offset="1" stop-color="#fff"/></linearGradient><linearGradient id="r" x1="27.224" x2="-240.335" y1="176.897" y2="640.322" gradientTransform="matrix(-1 0 0 1 600.465 0)" gradientUnits="userSpaceOnUse"><stop offset=".635" stop-color="#6b67e9"/><stop offset=".697" stop-color="#1f196f"/></linearGradient><linearGradient id="s" x1="614.851" x2="695.609" y1="765.967" y2="765.967" gradientTransform="translate(13.375)" xlink:href="#a"/><linearGradient id="t" x1="-150.648" x2="70.756" y1="742.441" y2="742.441" gradientTransform="matrix(-1 0 0 1 550.305 0)" gradientUnits="userSpaceOnUse"><stop offset=".264" stop-color="#423eaf"/><stop offset=".288" stop-color="#4d49bf"/><stop offset=".336" stop-color="#6a66e8"/><stop offset=".337" stop-color="#6b67e9"/></linearGradient><linearGradient id="u" x1="471.399" x2="498.229" y1="766.039" y2="701.645" xlink:href="#a"/><linearGradient id="v" x1="513.331" x2="563.075" y1="848.688" y2="729.303" xlink:href="#a"/><linearGradient id="w" x1="588.525" x2="710.922" y1="1088.931" y2="1088.931" xlink:href="#a"/><linearGradient id="x" x1="518.767" x2="641.164" y1="1043.031" y2="1043.031" xlink:href="#a"/><linearGradient id="b" x1="370.998" x2="493.394" y1="1255.004" y2="1255.004" gradientUnits="userSpaceOnUse"><stop offset="0" stop-color="#c4cae8"/><stop offset="1" stop-color="#fff"/></linearGradient><linearGradient id="z" x1="528.797" x2="651.195" y1="1163.899" y2="1163.899" xlink:href="#b"/><linearGradient id="A" x1="233.761" x2="356.158" y1="1175.77" y2="1175.77" xlink:href="#b"/><linearGradient id="B" x1="391.56" x2="513.957" y1="1084.664" y2="1084.664" xlink:href="#b"/><linearGradient id="C" x1="540.807" x2="218.583" y1="992.563" y2="992.563" gradientUnits="userSpaceOnUse"><stop offset=".356" stop-color="#a5abcc"/><stop offset=".669" stop-color="#b6bcdc"/><stop offset="1" stop-color="#c4cae8"/></linearGradient><linearGradient id="D" x1="-681.373" x2="-594.072" y1="1080.568" y2="1080.568" gradientTransform="matrix(-1 0 0 1 -32.617 0)" gradientUnits="userSpaceOnUse"><stop offset="0" stop-color="#5652cc"/><stop offset=".018" stop-color="#5551cb"/><stop offset=".665" stop-color="#3f38a2"/><stop offset="1" stop-color="#362e93"/></linearGradient><linearGradient id="E" x1="-648.733" x2="-310.984" y1="961.045" y2="961.045" gradientTransform="matrix(-1 0 0 1 -32.617 0)" gradientUnits="userSpaceOnUse"><stop offset="0" stop-color="#5652cc"/><stop offset=".092" stop-color="#4d48bd"/><stop offset=".268" stop-color="#413aa6"/><stop offset=".433" stop-color="#393198"/><stop offset=".576" stop-color="#362e93"/></linearGradient><linearGradient id="c" x1="471.297" x2="261.964" y1="748.683" y2="700.683" gradientUnits="userSpaceOnUse"><stop offset="0" stop-color="#e19100"/><stop offset=".584" stop-color="#f2ac03"/><stop offset="1" stop-color="#fbba05"/></linearGradient><linearGradient id="F" x1="-490.519" x2="-310.984" y1="804.087" y2="804.087" gradientTransform="matrix(-1 0 0 1 -32.617 0)" gradientUnits="userSpaceOnUse"><stop offset="0" stop-color="#e19100"/><stop offset=".409" stop-color="#ea9f02"/><stop offset="1" stop-color="#fbba05"/></linearGradient><linearGradient id="G" x1="561.464" x2="368.131" y1="776.91" y2="722.243" xlink:href="#c"/><linearGradient id="H" x1="540.806" x2="218.584" y1="935.433" y2="935.433" gradientUnits="userSpaceOnUse"><stop offset=".356" stop-color="#bbc0e6"/><stop offset=".438" stop-color="#c4c8e9"/><stop offset=".805" stop-color="#e8e9f6"/><stop offset="1" stop-color="#f6f6fb"/></linearGradient><linearGradient id="I" x1="464.894" x2="509.868" y1="632.261" y2="632.261" gradientUnits="userSpaceOnUse"><stop offset="0" stop-color="#d1d7f3"/><stop offset=".639" stop-color="#edeffa"/><stop offset="1" stop-color="#fff"/></linearGradient><linearGradient id="J" x1="496.044" x2="478.499" y1="644.855" y2="622.359" gradientUnits="userSpaceOnUse"><stop offset="0" stop-color="#fcba06"/><stop offset=".033" stop-color="#fbb806"/><stop offset=".615" stop-color="#e49702"/><stop offset=".935" stop-color="#dc8b00"/></linearGradient><linearGradient id="K" x1="729.504" x2="784.078" y1="762.298" y2="762.298" gradientUnits="userSpaceOnUse"><stop offset="0" stop-color="#d1d7f3"/><stop offset=".487" stop-color="#e9ecf9"/><stop offset="1" stop-color="#fff"/></linearGradient><linearGradient id="L" x1="734.855" x2="764.886" y1="771.768" y2="754.438" gradientUnits="userSpaceOnUse"><stop offset="0" stop-color="#423eaf"/><stop offset=".231" stop-color="#38339c"/><stop offset=".685" stop-color="#27207b"/><stop offset=".935" stop-color="#20196f"/></linearGradient><linearGradient id="M" x1="713.529" x2="738.293" y1="933.597" y2="933.597" gradientTransform="translate(69.861)" gradientUnits="userSpaceOnUse"><stop offset="0" stop-color="#c6cbe7"/><stop offset=".379" stop-color="#c8cde8"/><stop offset=".596" stop-color="#d1d5eb"/><stop offset=".772" stop-color="#dfe1f1"/><stop offset=".925" stop-color="#f2f3fa"/><stop offset="1" stop-color="#fff"/></linearGradient><linearGradient id="N" x1="517.944" x2="575.431" y1="599.952" y2="599.952" gradientUnits="userSpaceOnUse"><stop offset=".427" stop-color="#c4c9e4"/><stop offset=".577" stop-color="#d7daed"/><stop offset=".846" stop-color="#f4f5fa"/><stop offset="1" stop-color="#fff"/></linearGradient><linearGradient id="O" x1="505.271" x2="562.789" y1="603.356" y2="603.356" gradientUnits="userSpaceOnUse"><stop offset="0" stop-color="#807dfb"/><stop offset=".014" stop-color="#7f7cfa"/><stop offset=".448" stop-color="#5e5ad1"/><stop offset=".792" stop-color="#4a46b8"/><stop offset="1" stop-color="#423eaf"/></linearGradient><linearGradient id="P" x1="907.994" x2="1020.75" y1="753.36" y2="753.36" gradientUnits="userSpaceOnUse"><stop offset="0" stop-color="#c6cbe7"/><stop offset=".135" stop-color="#d3d7ed"/><stop offset=".439" stop-color="#ebedf7"/><stop offset=".721" stop-color="#fafafd"/><stop offset=".955" stop-color="#fff"/></linearGradient><linearGradient id="Q" x1="850.088" x2="964.732" y1="726.61" y2="726.61" gradientUnits="userSpaceOnUse"><stop offset="0" stop-color="#ced3f8"/><stop offset=".471" stop-color="#c3c8ed"/><stop offset="1" stop-color="#bbc0e6"/></linearGradient><linearGradient id="g" x1="862.515" x2="952.307" y1="663.765" y2="663.765" gradientUnits="userSpaceOnUse"><stop offset="0" stop-color="#bbc0e6"/><stop offset="1" stop-color="#ced3f8"/></linearGradient><linearGradient id="R" x1="903.428" x2="951.75" y1="676.4" y2="676.4" gradientUnits="userSpaceOnUse"><stop offset="0" stop-color="#c4cae9"/><stop offset=".261" stop-color="#c8cdea"/><stop offset=".501" stop-color="#d3d7ef"/><stop offset=".733" stop-color="#e5e8f5"/><stop offset=".955" stop-color="#fff"/></linearGradient><linearGradient id="S" x1="916.594" x2="964.732" y1="667.538" y2="667.538" gradientUnits="userSpaceOnUse"><stop offset="0" stop-color="#c6cbe7"/><stop offset=".331" stop-color="#d5d9ed"/><stop offset=".968" stop-color="#fdfdfe"/><stop offset="1" stop-color="#fff"/></linearGradient><linearGradient id="e" x1="873.655" x2="936.238" y1="640.965" y2="646.459" gradientUnits="userSpaceOnUse"><stop offset="0" stop-color="#423eaf"/><stop offset=".161" stop-color="#38349d"/><stop offset=".441" stop-color="#2b2584"/><stop offset=".695" stop-color="#231c74"/><stop offset=".899" stop-color="#20196f"/></linearGradient><linearGradient id="d" x1="873.048" x2="936.469" y1="642.162" y2="647.73" gradientUnits="userSpaceOnUse"><stop offset="0" stop-color="#6b67e9"/><stop offset=".023" stop-color="#6965e5"/><stop offset=".275" stop-color="#534dc2"/><stop offset=".512" stop-color="#433ca9"/><stop offset=".727" stop-color="#393299"/><stop offset=".899" stop-color="#362e94"/></linearGradient><linearGradient id="T" x1="873.715" x2="936.304" y1="640.249" y2="645.744" xlink:href="#d"/><linearGradient id="U" x1="873.867" x2="936.451" y1="638.545" y2="644.039" xlink:href="#e"/><linearGradient id="V" x1="873.712" x2="936.293" y1="640.324" y2="645.817" xlink:href="#d"/><linearGradient id="W" x1="873.75" x2="935.884" y1="642.224" y2="647.678" xlink:href="#e"/><linearGradient id="X" x1="805.871" x2="975.324" y1="846.412" y2="846.412" gradientUnits="userSpaceOnUse"><stop offset="0" stop-color="#d1d7f3"/><stop offset="1" stop-color="#fff"/></linearGradient><linearGradient id="f" x1="964.939" x2="1010.937" y1="813.808" y2="813.808" gradientUnits="userSpaceOnUse"><stop offset="0" stop-color="#c2c7e3"/><stop offset=".253" stop-color="#dde0ef"/><stop offset=".543" stop-color="#f6f7fb"/><stop offset=".719" stop-color="#fff"/></linearGradient><linearGradient id="Y" x1="1034.365" x2="1135.711" y1="773.728" y2="773.728" xlink:href="#f"/><linearGradient id="Z" x1="999.652" x2="1068.988" y1="793.767" y2="793.767" xlink:href="#f"/><linearGradient id="aa" x1="1019.578" x2="1047.527" y1="747.835" y2="747.835" gradientUnits="userSpaceOnUse"><stop offset="0" stop-color="#fbba05"/><stop offset="1" stop-color="#dc8b00"/></linearGradient><linearGradient id="ab" x1="984.865" x2="1012.816" y1="779.086" y2="779.086" gradientUnits="userSpaceOnUse"><stop offset="0" stop-color="#ccd1f6"/><stop offset="1" stop-color="#a1a7ce"/></linearGradient><linearGradient id="ac" x1="950.154" x2="978.105" y1="808.148" y2="808.148" gradientUnits="userSpaceOnUse"><stop offset="0" stop-color="#5652cc"/><stop offset="1" stop-color="#423eaf"/></linearGradient><linearGradient id="ad" x1="244.871" x2="329.447" y1="601.856" y2="601.856" gradientUnits="userSpaceOnUse"><stop offset="0" stop-color="#c6cbe7"/><stop offset=".162" stop-color="#d2d6ec"/><stop offset=".661" stop-color="#f3f4fa"/><stop offset=".935" stop-color="#fff"/></linearGradient><linearGradient id="ae" x1="210.625" x2="279.117" y1="587.427" y2="587.427" gradientUnits="userSpaceOnUse"><stop offset="0" stop-color="#ced3f8"/><stop offset=".379" stop-color="#c4caf0"/><stop offset="1" stop-color="#abb2da"/></linearGradient><linearGradient id="af" x1="215.763" x2="273.976" y1="546.614" y2="546.614" xlink:href="#g"/><linearGradient id="ag" x1="217.98" x2="271.759" y1="558.234" y2="558.234" gradientUnits="userSpaceOnUse"><stop offset="0" stop-color="#20196f"/><stop offset="1" stop-color="#5652cc"/></linearGradient><linearGradient id="ah" x1="200.674" x2="221.562" y1="608.433" y2="572.253" gradientUnits="userSpaceOnUse"><stop offset=".433" stop-color="#ced3f8"/><stop offset=".871" stop-color="#f6f6fb"/></linearGradient><linearGradient id="ai" x1="253.197" x2="257.669" y1="563.642" y2="553.833" gradientUnits="userSpaceOnUse"><stop offset="0"/><stop offset="1" stop-color="#362e94"/></linearGradient><linearGradient id="aj" x1="255.761" x2="260.383" y1="564.745" y2="554.605" gradientUnits="userSpaceOnUse"><stop offset="0"/><stop offset="1" stop-color="#20196f"/></linearGradient><clipPath id="y"><path fill="none" d="m755.807 995.848-510.94-294.989v12.69l.742-.297-52.687 271.373 510.582 294.785 52.721-271.521-.776.447.358-12.488z"/></clipPath></defs><g style="isolation:isolate"><path fill="#f1f1f6" d="M552.904 384.683c20.209-6.995 39.621-36.853 35.184-57.396-4.434-20.545-24.368-21.707-23.68-33.5.69-11.793 19.549-28.506 13.525-43.446-10.71-26.547-50.636-1.404-60.529-20.155-9.895-18.751 13.238-31.346 6.738-50.323-6.5-18.973-38.252 3.686-54.511-14.59-16.262-18.277-57.848-50.77-73.725-24.519-12.549 20.753 17.906 24.861 19.002 35.272 1.248 11.876-13.625 15.265-9.383 28.05 5.992 18.067 31.072 15.48 33.545 31.117 2.467 15.641-17.121 22.952-3.238 38.554 17.185 19.317 46.322-9.27 54.828 23.624 8.506 32.898-34.705 25.81-32.318 46.859 2.607 22.972 43.34 13.838 41.39 29.46-2.65 21.257 21.834 21.843 53.172 10.993Z"/><path fill="#fff" d="M558.11 384.374a2.003 2.003 0 0 1-1.964-1.623 32.935 32.935 0 0 1 .057-7.777c.492-6.527 1.103-14.65-3.287-19.585a79.279 79.279 0 0 0-8.785-8.05c-5.383-4.468-10.95-9.087-14.618-15.944-7.4-13.832-6.279-26.117-5.289-36.956.707-7.732 1.317-14.409-1.382-20.095-2.176-4.58-5.479-5.36-10.051-6.44-4.604-1.087-10.334-2.44-15.698-8.465-5.23-5.877-5.535-10.13-5.828-14.244-.304-4.233-.592-8.232-6.556-14.938-5.04-5.662-9.051-6.571-13.698-7.623-4.671-1.059-9.966-2.257-16.24-8.673-11.611-11.876-13.178-23.734-14.322-32.392-.615-4.656-1.1-8.333-2.943-10.204-4.409-4.47-8.803-2.98-8.993-2.916a2 2 0 0 1-1.398-3.747c.281-.107 6.941-2.532 13.238 3.855 2.785 2.825 3.35 7.09 4.063 12.488 1.129 8.553 2.535 19.196 13.215 30.12 5.447 5.571 9.73 6.541 14.263 7.568 4.873 1.103 9.912 2.244 15.803 8.866 6.87 7.721 7.234 12.815 7.557 17.31.27 3.761.502 7.01 4.828 11.87 4.523 5.082 9.152 6.175 13.629 7.232 4.79 1.13 9.744 2.3 12.744 8.618 3.17 6.675 2.482 14.203 1.754 22.173-.94 10.28-2.004 21.93 4.832 34.706 3.297 6.166 8.556 10.531 13.644 14.753a83.204 83.204 0 0 1 9.219 8.47c5.52 6.202 4.807 15.647 4.287 22.544a32.002 32.002 0 0 0-.115 6.722 2.002 2.002 0 0 1-1.967 2.377Z"/><path fill="#dde2f8" d="M806.732 252.454c16.385-6.512 16.012-23.146 14.96-32.975-4.86 2.37-23.964 13.127-14.96 32.975Z"/><path fill="#dde2f8" d="M771.861 405.67a2.002 2.002 0 0 1-1.996-1.897c-1.879-36.439 6.617-96.222 36.1-154.73a2 2 0 1 1 3.57 1.8c-29.129 57.81-37.527 116.797-35.674 152.725a2 2 0 0 1-1.894 2.1 1.84 1.84 0 0 1-.106.002ZM764.137 379.307c-15.34-32.13-40.905-26.604-60.573-23.16 5.438 9.477 21.795 43.989 60.573 23.16ZM766.424 345.265c-5.51-28.047-26.494-28.855-42.471-30.106 2.338 8.454 8.16 38.554 42.47 30.106ZM776.217 309.428c1.037-24.542-16.332-29.438-29.434-33.696.254 7.529-.937 33.853 29.434 33.696ZM788.463 275.655c4.869-14.47-4.653-20.4-11.73-25.209-1.159 4.538-6.424 20.045 11.73 25.21ZM782.619 377.407c13.154-28.528 35.777-23.95 53.17-21.143-4.688 8.426-18.711 39.066-53.17 21.143Z"/><path fill="#dde2f8" d="M785.8 340.432c7.38-26.075 27.266-25.211 42.47-25.156-2.864 7.808-10.698 35.801-42.47 25.156ZM796.113 297.487c9.776-15.725 22.674-11.399 32.637-8.489-3.354 4.584-13.787 21.485-32.637 8.49ZM805.1 269.04c3.917-10.054 11.763-8.951 17.785-8.35-1.43 2.985-5.602 13.779-17.785 8.35Z"/><path fill="#dae0f5" d="M815.976 451.935c53.559-7.882 72.084-55.03 54.153-116.216-46.918 16.774-86.713 66.793-54.153 116.216ZM820.824 503.885c3.526 56.094 50.703 79.336 115.557 66.072-13.3-49.992-61.61-95.486-115.557-66.072Z"/><path fill="#f1f1f6" d="M596.021 310.208c43.065 26.961 84.99 4.549 109.413-50.081-43.731-16.566-102.598-5.044-109.413 50.081ZM809.47 499.018c84.104 51.69 165.206 7.468 211.762-99.056-85.224-31.478-199.41-8.146-211.761 99.056Z"/><path fill="#fff" d="M809.473 501.018a2 2 0 0 1-.952-3.76c16.664-8.992 45.762-21.623 76.569-34.997 37.258-16.175 79.486-34.507 109.84-50.715a2 2 0 0 1 1.882 3.53c-30.494 16.283-72.802 34.65-110.13 50.854-30.725 13.339-59.747 25.937-76.262 34.848a1.984 1.984 0 0 1-.947.24Z"/><path fill="#dfe4f4" d="M580.193 310.775c61.79-19.78 74.487-79.147 41.332-147.98-52.195 28.998-89.475 95.906-41.332 147.98Z"/><path fill="#fff" d="M580.195 312.775a2.033 2.033 0 0 1-.43-.046 2 2 0 0 1-1.525-2.381c2.662-12.184 8.832-32.106 15.363-53.196 7.895-25.492 16.842-54.384 21.76-76.432a2 2 0 1 1 3.902.87c-4.95 22.207-13.923 51.18-21.841 76.745-6.506 21.007-12.65 40.85-15.278 52.866a1.998 1.998 0 0 1-1.951 1.574Z"/><path fill="url(#a)" d="M703.504 1258.092h168.199v21.318H703.504z"/><path fill="url(#h)" d="M192.922 963.307h168.199v21.318H192.922z"/><path fill="url(#i)" d="M1037.016 1065.541h168.199v21.318h-168.199z"/><path fill="#423eaf" d="m1037.016 1086.859-56.961-224.871 17.32-10 56.961 224.871-17.32 10zM720.824 1269.41l56.963-290.64-17.322 10-56.961 290.64 17.32-10z"/><path fill="#6b67e9" d="m703.504 1279.41-17.32-10 56.96-290.64 17.321 10-56.961 290.64zM1037.016 1086.859l-17.321-10-56.961-224.871 17.321 10 56.961 224.871z"/><path fill="#423eaf" d="M755.449 952.336v56l275.817-159.242v-56L755.449 952.336z"/><path fill="#6b67e9" d="M709.264 925.668v56l46.185 26.668v-56l-46.185-26.668z"/><path fill="#423eac" d="m526.433 758.313-56.961-191.112 17.321-10 56.961 191.112-17.321 10z"/><path fill="#423eaf" d="m210.242 974.625 56.963-290.644-17.322 10-56.961 290.644 17.32-10z"/><path fill="#6b67e9" d="m192.922 984.625-17.321-10 56.961-290.644 17.321 10-56.961 290.644z"/><path fill="#6b66e7" d="m526.433 758.313-17.32-10-56.961-191.112 17.32 10 56.961 191.112z"/><path fill="#423eac" d="M244.867 657.547v56.002l275.816-159.242v-56l-275.816 159.24z"/><path fill="#6b67e9" d="M198.681 630.881v55.998l46.186 26.67v-56.002l-46.186-26.666z"/><path fill="#ccd1f6" d="M755.807 995.848 123.312 630.682v-16.004l632.495 365.174v15.996z"/><path fill="#b9bee4" d="m755.807 979.852 350.834-202.555-.002 16-350.832 202.555v-16z"/><path fill="#efeff3" d="m123.31 614.682 350.834-202.553 632.491 365.172-350.828 202.551-632.497-365.17z"/><path d="M673.88 817.512s-1.345 4.976-4.146 6.596l-26.433 15.26-1.336-.913s-6.25 3.25-14 6.453c14.875 0 17.082-1.025 19.898-2.425 16.488-7.348 23.758-11.311 31.797-18.163 1.832-1.668-5.78-6.808-5.78-6.808Z" style="mix-blend-mode:multiply" fill="url(#j)"/><path fill="#fff" d="M669.713 809.693c2.623 1.514 4.123 3.092 4.168 4.547.053 1.616-1.631 3.077-4.518 4.135-11.867 4.64-18.73 8.838-31.459 18.358-5.53 4.373-14.582 6.136-20.12 2.943-2.58-1.488-3.866-2.233-6.446-3.723a7.629 7.629 0 0 1-4.114-6.55 9.286 9.286 0 0 1 3.895-7.473c12.125-9.828 20.271-14.309 31.682-18.631 5.48-1.984 14.927-.525 20.466 2.674 2.579 1.486 3.866 2.232 6.446 3.72Z"/><path fill="url(#k)" d="M669.363 818.375c-11.867 4.64-18.73 8.838-31.459 18.358-5.53 4.373-14.582 6.136-20.12 2.943-2.58-1.488-3.866-2.233-6.446-3.723a7.629 7.629 0 0 1-4.114-6.55v3.302a4.821 4.821 0 0 0 0 .584v.106h.008c.166 1.96 1.53 3.896 4.121 5.392l6.447 3.723c5.54 3.195 14.516 3.2 20.057 0l31.873-18.404c2.805-1.618 4.182-3.748 4.149-5.872h.002v-3.994c.053 1.616-1.631 3.077-4.518 4.135Z"/><path fill="#b9bee4" d="M648.994 814.522c-1.264-.723-1.303-1.786-.05-2.213a6.654 6.654 0 0 1 4.603.734c1.138.639 1.215 1.44-.04 1.87a6.356 6.356 0 0 1-4.513-.391Z"/><path style="mix-blend-mode:multiply" fill="url(#l)" d="M405.099 457.824h224.756V570.5H405.099z"/><path fill="#362e93" d="M491.537 382.232v138.251l-73.918-42.674V339.554l73.918 42.678z"/><path fill="#f6f6fb" d="m409.078 354.653 13.162-7.598 69.297 40.008-13.162 7.6-69.297-40.01z"/><path fill="#423eaf" d="M478.375 391.863v138.256l-75.68-43.696.002-138.251 75.678 43.691z"/><path fill="#5652cc" d="m495.062 382.232-75.679-43.695-1.764 1.017 73.918 42.678-13.162 7.595-73.916-42.675-1.762 1.02 75.678 43.691 16.687-9.631z"/><path fill="#ced3f8" d="M452.83 439.378v13.726l-26.352-15.213v-13.726l26.352 15.213z"/><path fill="#362e93" d="M495.058 382.232v138.253l-16.683 9.633V391.863l16.683-9.631z"/><path fill="#bbc0e6" d="M495.058 496.307v11.247l-16.683 9.634v-11.245l16.683-9.636zM495.058 395.005v11.247l-16.683 9.635v-11.246l16.683-9.636z"/><path fill="#ced3f8" d="M475.291 504.161v11.247l3.084 1.78v-11.245l-3.084-1.782zM475.291 402.859v11.248l3.084 1.78v-11.246l-3.084-1.782z"/><path fill="#5652cc" d="m476.918 422.672 4.127 2.401v5.423a9.477 9.477 0 0 1-2.162 1.677c-4.907 2.831-12.862 2.831-17.766 0l-.004 109.981-51.809-29.91v-128.61Z"/><path fill="#f6f6fb" d="m477.244 427.354-63.908-36.897c-2.43 1.4-12.065 6.965-14.493 8.365 3.124 1.802 63.909 36.899 63.909 36.899a16.047 16.047 0 0 0 14.492 0c3.992-2.308 3.994-6.06 0-8.367Z"/><path fill="#6b67e9" d="M461.113 560.78V432.171l-67.936-39.222v128.607l67.936 39.224z"/><path fill="#807dfb" d="M478.883 432.173c4.906-2.835 4.908-7.428 0-10.258l-67.94-39.225-1.639.945 67.94 39.224c3.994 2.307 3.992 6.06 0 8.366a16.035 16.035 0 0 1-14.492 0l-67.936-39.223-1.639.947 67.94 39.224c4.904 2.831 12.86 2.831 17.766 0Z"/><path fill="url(#m)" d="M478.883 432.173c-4.907 2.831-12.862 2.831-17.766 0l-.004 128.607h.004c4.904 2.83 12.863 2.83 17.767 0 2.452-1.416 3.678-3.274 3.678-5.13V427.043c0 1.859-1.226 3.714-3.68 5.131Z"/><path fill="#ced3f8" d="M442.818 495.793V476.03l-31.346-18.097v19.762l31.346 18.098z"/><path d="M464.187 502.563v-7.251c4.737 1.426 10.719.993 14.696-1.304a7.308 7.308 0 0 0 3.384-3.592 4.338 4.338 0 0 0 .295-1.537c.03 0 0 7.251 0 7.251.006 1.856-1.226 3.714-3.68 5.129-3.976 2.297-9.958 2.73-14.695 1.304ZM478.883 454.885a7.316 7.316 0 0 0 3.384-3.593 4.38 4.38 0 0 0 .295-1.537v3.074c.004 1.857-1.226 3.714-3.68 5.13-4.906 2.832-12.86 2.832-17.765 0v-3.072c4.904 2.83 12.86 2.83 17.766-.002ZM478.88 534.99a7.306 7.306 0 0 0 3.387-3.593 4.409 4.409 0 0 0 .293-1.538v3.077c.006 1.855-1.224 3.71-3.68 5.127-4.906 2.832-12.859 2.835-17.767 0v-3.074c4.908 2.834 12.861 2.834 17.768 0Z" style="mix-blend-mode:multiply" fill="#dae0f5"/><path style="mix-blend-mode:multiply" fill="url(#n)" d="m434.929 417.053 26.188 55.321-.004 88.406-26.184-15.119V417.053z"/><path fill="#a86607" d="m336.535 501.098 94.387 54.494V405.481l-94.387-54.495v150.112z"/><path fill="#e1e6ef" d="M414.859 403.359c-2.318 5.72 1.881 131.189 1.879 134.176-2.547-1.472-81.15-46.853-83.701-48.323 0-2.987-3.97-128.231-1.877-134.178 2.55 1.472 81.152 46.853 83.699 48.325Z"/><path fill="#e8ecf7" d="M407.623 404.259c2.756 4.184 1.883 131.19 1.88 134.176L325.8 490.11c0-2.986 1.932-130.367-1.876-134.174l83.699 48.323Z"/><path fill="#f6f6fb" d="M403.006 407.3c2.753 4.183 1.878 131.187 1.878 134.176-2.55-1.473-81.152-46.855-83.703-48.325.002-2.986 1.93-130.368-1.877-134.176l83.702 48.325Z"/><path fill="#e19100" d="m405.099 570.5 29.83-17.223V403.166l-29.83 17.222V570.5z"/><path fill="#fcba06" d="m310.715 516.007 94.384 54.493V420.388l-94.384-54.493v150.112zM416.01 445.794c5.732-3.31 10.388-11.369 10.388-17.994a9.018 9.018 0 0 0-1.324-5.082c3.178.218 5.328 2.892 5.328 7.394 0 6.628-4.652 14.684-10.385 17.997-3.9 2.25-7.295 1.725-9.072-.917a9.037 9.037 0 0 0 5.064-1.398Z"/><path fill="#ced3f8" d="m425.47 454.123-10.914 6.299v63.233l10.914-6.297v-63.235z"/><path fill="#ffd03e" d="m314.724 363.582 90.375 52.18 21.815-12.596-90.377-52.18 4.01-2.313 94.382 54.493-29.83 17.222-94.382-54.493 4.007-2.313z"/><path fill="#dae2ed" d="m414.859 403.359-75.543-43.615a12.777 12.777 0 0 1 3.117-8.491c2.55 1.47 78.602 45.383 81.15 46.853a15.589 15.589 0 0 0-3.03 8.735l-6.272 3.62c.107-3.875.293-6.397.578-7.102Z"/><path fill="#a86607" d="M425.074 422.718a9.018 9.018 0 0 1 1.324 5.082c0 4.741-2.39 10.206-5.846 14.151v-18.104a8.695 8.695 0 0 1 4.522-1.13Z"/><path fill="#a5abcc" d="M416.01 445.794a11.858 11.858 0 0 1-1.729.81v-17.181a19.617 19.617 0 0 1 5.736-5.308c.18-.105.354-.176.535-.268v18.104a18.498 18.498 0 0 1-4.543 3.843Z"/><path fill="#bbc0e6" d="M410.945 447.192a9.038 9.038 0 0 1-1.32-5.084c0-4.175 1.851-8.918 4.656-12.685v17.182a7.913 7.913 0 0 1-3.336.587Z"/><path d="M787.978 687.68H951.41l-165.7-95.666-132.53 76.11c-5.936 3.425-5.936 9.032 0 12.46 0 0 63.308 36.531 63.6 36.676l-9.667 3.476h15.522a29.48 29.48 0 0 0 14.88-3.921Z" style="mix-blend-mode:multiply" fill="url(#o)"/><path fill="#f6f6fb" d="M637.478 589.428c5.938-3.426 15.649-3.426 21.586 0l121.592 70.203c5.936 3.428 5.936 9.033 0 12.463l-62.75 36.232c-5.937 3.422-15.65 3.422-21.586 0L574.724 638.12c-5.937-3.426-5.937-9.031 0-12.46Z"/><path fill="url(#p)" d="m574.724 638.12 121.596 70.206c5.936 3.422 15.649 3.422 21.586 0l62.75-36.232c2.852-1.645 4.319-3.797 4.43-5.965.017 0 .017 9.563.017 9.563.004 2.261-1.472 4.523-4.447 6.242l-62.75 36.232c-5.937 3.43-15.65 3.43-21.586 0l-121.596-70.205c-3.084-1.781-4.55-4.146-4.427-6.494v-9.309c.109 2.168 1.578 4.317 4.427 5.961Z"/><path d="m703.797 625.889-1.059-.012h-56.14c.253 2.04 1.71 4.035 4.396 5.586l66.994 38.678-.478 1.039-11.535 6.656h64.734l11.533-6.656Z" style="mix-blend-mode:multiply" fill="url(#q)"/><path fill="#ced3f8" d="M636.207 613.533a103.69 103.69 0 0 0 4.893-32.988l8.634-4.984c0 2.207-.006 5.566-.29 9.8l70.1 40.473c0 7.399-.01 29.592-13.57 52.002l-78.447-45.287Z"/><path fill="#c6b4bb" d="m641.1 580.541 78.445 45.293 8.633-4.984-78.444-45.289-8.634 4.98z"/><path fill="#bbc0e6" d="M705.975 677.836c13.56-22.41 13.57-44.603 13.57-52.002l8.633-4.984a115.807 115.807 0 0 1-10.668 50.33Z"/><path d="m715.22 657.04 9.274-5.356a115.1 115.1 0 0 0 3.01-16.694l-8.725 5.043a99.599 99.599 0 0 1-3.558 17.006Z" style="mix-blend-mode:multiply" fill="#d8def3"/><path fill="#423eaf" d="M511.215 273.386c.003-6.856 4.857-9.657 10.79-6.23L812.829 435.06c5.936 3.425 10.79 11.836 10.793 18.691l-.002 194.934-312.4-180.364Z"/><path fill="url(#r)" d="M533.709 260.401 824.53 428.307c5.936 3.426 10.793 11.836 10.793 18.691v194.938l-11.705 6.75.002-194.934c-.002-6.855-4.857-15.266-10.793-18.691L522.006 267.155c-2.422-1.397-4.65-1.744-6.463-1.215l9.361-5.328c1.959-2.061 5.178-2.305 8.805-.21Z"/><path fill="#d7ddfd" d="m823.619 648.686.002 39.412c-.002 6.855-4.857 9.656-10.793 6.23L522.006 526.424c-5.934-3.426-10.791-11.84-10.791-18.691l.003-39.41Z"/><path fill="#bbc0e6" d="m823.62 688.098-.001-39.412 11.705-6.75v39.408c0 3.445-1.232 5.869-3.209 6.984l-11.219 6.434c1.688-1.23 2.725-3.512 2.725-6.664Z"/><path fill="#fff" d="m522.008 474.553 290.82 167.906V447.522L522.006 279.616l.002 194.937z"/><path d="m706.57 747.451-8.308-4.797c3.216 1.858 3.216 4.899 0 6.754l-58.334 33.682a12.983 12.983 0 0 1-11.702 0l8.143 4.7-2.582 1.49h8.31a12.282 12.282 0 0 0 6.141-1.393l58.332-33.68c3.219-1.857 3.219-4.896 0-6.756Z" style="mix-blend-mode:multiply" fill="url(#s)"/><path fill="url(#t)" d="m481.96 698.977 145.686 84.113a12.983 12.983 0 0 0 11.702 0l59.193-34.176a4.21 4.21 0 0 0 2.396-3.178c.016 0 .016 4.598.016 4.598 0 1.225-.805 2.45-2.412 3.379l-59.193 34.174a12.983 12.983 0 0 1-11.702 0l-145.685-84.111c-1.746-1.008-2.536-2.364-2.389-3.688-.023 0-.023-4.486-.023-4.486 0 1.222.802 2.447 2.412 3.375Z"/><path fill="#1966a5" d="M479.556 695.488c-.002.04-.007.075-.007.114a.554.554 0 0 1 .007-.114Z"/><path fill="#fff" d="M639.348 783.09a12.983 12.983 0 0 1-11.702 0l-145.685-84.113c-3.217-1.856-3.217-4.897 0-6.754l59.193-34.178a12.995 12.995 0 0 1 11.701 0l145.686 84.113c3.217 1.86 3.217 4.899 0 6.756Z"/><path fill="#efeff3" d="m548.17 670.479-7.42-4.282 7.42-4.285 7.42 4.285-7.42 4.282zM560.664 677.697l-7.42-4.285 7.42-4.285 7.42 4.285-7.42 4.285zM573.162 684.91l-7.42-4.283 7.42-4.285 7.42 4.285-7.42 4.283zM585.658 692.125l-7.42-4.281 7.42-4.287 7.418 4.287-7.418 4.281zM598.154 699.34l-7.42-4.283 7.42-4.283 7.418 4.283-7.418 4.283zM610.65 706.555l-7.42-4.283 7.42-4.284 7.418 4.284-7.418 4.283zM623.146 713.772l-7.42-4.286 7.42-4.285 7.418 4.285-7.418 4.286zM635.642 720.984l-7.42-4.283 7.42-4.283 7.418 4.283-7.418 4.283zM648.139 728.199l-7.42-4.283 7.42-4.285 7.418 4.285-7.418 4.283zM660.635 735.412l-7.42-4.281 7.42-4.285 7.418 4.285-7.418 4.281zM673.129 742.629l-7.418-4.283 7.418-4.285 7.42 4.285-7.42 4.283zM685.627 749.844l-7.42-4.285 7.42-4.283 7.418 4.283-7.418 4.285zM541.593 681.111l-13.339-7.699 7.418-4.285 13.341 7.703-7.42 4.281zM534.691 690.961l-18.414-10.635 7.42-4.285 18.414 10.635-7.42 4.285zM527.273 701.106l-23.492-13.563 7.42-4.287 23.49 13.566-7.418 4.284zM501.998 703.975l-13.338-7.701 10.045-5.801 13.34 7.703-10.047 5.799zM520.414 714.608l-13.338-7.704 10.043-5.798 13.34 7.701-10.045 5.801zM538.83 725.238l-13.34-7.701 10.045-5.801 13.34 7.704-10.045 5.798zM602.326 761.899l-13.338-7.702 10.045-5.8 13.338 7.703-10.045 5.799zM633.535 779.916l-26.164-15.103 10.045-5.801 26.164 15.105-10.045 5.799zM583.941 751.283l-40.035-23.113 10.047-5.801 40.035 23.115-10.047 5.799zM557.586 690.348l-10.916-6.303 7.418-4.285 10.918 6.305-7.42 4.283zM550.685 700.193l-10.916-6.302 7.42-4.283 10.916 6.302-7.42 4.283zM543.607 710.143l-10.916-6.305 7.42-4.283 10.916 6.303-7.42 4.285zM559.601 719.375l-10.918-6.303 7.42-4.283 10.918 6.303-7.42 4.283zM575.593 728.608l-10.916-6.301 7.418-4.285 10.916 6.304-7.418 4.282zM591.586 737.842l-10.916-6.303 7.42-4.283 10.916 6.303-7.42 4.283zM607.578 747.074l-10.916-6.3 7.42-4.284 10.916 6.301-7.42 4.283zM623.572 756.309l-10.916-6.303 7.42-4.283 10.916 6.303-7.42 4.283zM649 770.988l-20.352-11.748 7.42-4.283 20.35 11.748-7.418 4.283zM566.677 709.428l-10.916-6.303 7.42-4.283 10.916 6.301-7.42 4.285zM582.672 718.66l-10.918-6.302 7.42-4.284 10.916 6.303-7.418 4.283zM598.664 727.895l-10.916-6.303 7.42-4.285 10.916 6.302-7.42 4.286zM614.656 737.127l-10.916-6.301 7.42-4.285 10.916 6.303-7.42 4.283zM630.65 746.361l-10.916-6.302 7.42-4.285 10.916 6.304-7.42 4.283zM661.152 763.971l-25.426-14.68 7.418-4.283 25.428 14.68-7.42 4.283zM573.58 699.582l-10.918-6.305 7.42-4.281 10.916 6.301-7.418 4.285zM589.57 708.815l-10.916-6.303 7.42-4.283 10.916 6.302-7.42 4.284zM605.564 718.049l-10.916-6.303 7.42-4.285 10.916 6.303-7.42 4.285zM621.556 727.283l-10.916-6.304 7.42-4.284 10.916 6.303-7.42 4.285zM637.55 736.514l-10.917-6.301 7.419-4.283 10.917 6.301-7.419 4.283zM653.543 745.748l-10.916-6.301 7.418-4.285 10.918 6.303-7.42 4.283zM673.131 757.057l-14.512-8.377 7.42-4.283 14.51 8.377-7.418 4.283z"/><path d="M462.285 743.692c5.54-4.743 11.287-9.682 17.535-14.502a11.879 11.879 0 0 0 .605-3.59 11.867 11.867 0 0 1 3.825-1.14 32.081 32.081 0 0 0 11.45-.954v.004c10.153-2.596 22.134-10.701 25.577-13.547a7.804 7.804 0 0 0-9.824-.84c-1.68 1.047 6.34-8.916 12.342-13.726-21.573-1.25-30.686 23.93-34.885 25.004v-.004a32.082 32.082 0 0 1-11.451.953 11.854 11.854 0 0 0-3.825 1.14 11.94 11.94 0 0 1-.605 3.59c-6.248 4.82-11.996 9.76-17.537 14.502 0 9.35 6.047 4.233 6.793 3.11Z" style="mix-blend-mode:multiply" fill="url(#u)"/><path d="M633.045 728.106a98.562 98.562 0 0 0-10.649-5.405 13.545 13.545 0 0 0-1.262-.517c1.69.838 3.502 1.799 5.12 2.812 6.584 4.135 1.32 9.63-5.575 9.63-6.896 0-8.308 2.171-14.468 8.355-6.15 6.173-11.59 19.873-31.899 18.627a11.938 11.938 0 0 1-.553 2.853c-28.5 21.986-46.585 46.469-82.224 43.346a104.919 104.919 0 0 1-32.21-8.342c13.464 6.635 26.249 10.332 39 11.451 35.64 3.123 53.725-21.36 82.225-43.346a11.966 11.966 0 0 0 .555-2.853c20.309 1.246 25.748-12.453 31.897-18.627 6.16-6.184 7.572-8.356 14.468-8.356 6.895 0 12.159-5.494 5.575-9.628Z" style="mix-blend-mode:multiply" fill="url(#v)"/><path fill="url(#w)" d="M588.525 1067.231h122.397v43.4H588.525z"/><path fill="url(#x)" d="M518.767 1021.332h122.397v43.398H518.767z"/><g clip-path="url(#y)"><path fill="#362e93" d="M494.21 1051.318c0-34.2 21.669-35.173 21.669-35.173s11.734 0 30.802-7.924c18.805-7.813 45.317-4.797 30.496 22.537a5.888 5.888 0 0 1-.5 1.006 13.348 13.348 0 0 1-4.8 4.224l-47.356 27.776c-7.217 4.12-30.15-5.408-30.31-12.446Z"/><path fill="#1f196f" d="M494.328 1048.254v-.018c.42 7.047 23.033 16.387 30.193 12.3l47.356-27.782a43.212 43.212 0 0 0 6.67-4.861c-.444.949-.813 1.85-1.37 2.865a5.888 5.888 0 0 1-.5 1.006 13.348 13.348 0 0 1-4.8 4.224l-47.356 27.776c-6.758 3.861-27.299-4.256-30.013-11.082a7.573 7.573 0 0 1-.213-1.387 25.406 25.406 0 0 1 .033-3.041Z"/><path fill="#fff" d="M503.023 1011.647c5.569 0 25.223 4.988 25.223 4.988a10.887 10.887 0 0 0 1.752 5.08c.203.22.363.443.54.67l.016-.01c3.87 2.71 7.811 6.97-1.382 12.734-7.534 4.735-13.66 1.733-16.559-1.17a15.13 15.13 0 0 0-5.344-6.056c-2.49-1.44-4.029-2.086-5.115-2.17a2.926 2.926 0 0 0-.062-.469s-1.42-13.597.931-13.597Z"/><path fill="#1f196f" d="M318.4 961.299c8.79-31.78 12.693-65.41 21.293-102.73 20.541-4.083 184.498-83.713 206.631-40.862a10.418 10.418 0 0 1 1.07 5.067h.006c7.858 39.902-18.424 195.91-18.424 195.91h-.027a7.239 7.239 0 0 1-3.658 4.2c-5.164 2.975-13.504 2.97-18.658-.003-2.34-1.35-4.276-3.088-4.493-4.854h-.048s-11.413-92.802-7.92-133.86C437.82 927.88 352.414 972.64 318.4 961.298Z"/></g><path fill="url(#b)" d="M370.998 1246.666h122.396v16.676H370.998z"/><path fill="url(#z)" d="M528.797 1155.561h122.398v16.676H528.797z"/><path fill="url(#A)" d="M233.761 1167.432h122.397v16.676H233.761z"/><path fill="url(#B)" d="M391.56 1076.326h122.397v16.676H391.56z"/><path fill="#5652ca" d="m404.121 1085.75-12.561 7.252-22.842-165.17 12.561-7.252 22.842 165.17z"/><path fill="#807df9" d="M391.56 1093.002 379 1085.75l-22.842-165.17 12.56 7.252 22.842 165.17z"/><path fill="#5652cc" d="m370.998 1263.342 12.562-7.252 22.84-191.545-12.56 7.252-22.842 191.545z"/><path fill="#807cfb" d="m358.437 1256.09 12.561 7.252 22.842-191.545-12.561-7.252-22.842 191.545z"/><path fill="#5652cc" d="m541.359 1164.984-12.562 7.252-22.84-165.169 12.56-7.252 22.842 165.169z"/><path fill="#807cfb" d="m528.797 1172.236-12.561-7.252-22.842-165.169 12.563 7.252 22.84 165.169zM221.199 1176.856l12.562 7.252 22.84-191.545-12.56-7.252-22.842 191.545z"/><path fill="#5652cc" d="m233.761 1184.108 12.561-7.252 22.842-191.545-12.563 7.252-22.84 191.545z"/><path fill="url(#C)" d="M533.177 1003.24c10.172-5.873 10.172-15.482.002-21.355l-133.406-77.022c-10.172-5.873-26.816-5.873-36.988 0L229.38 981.885c-10.172 5.873-10.172 15.482 0 21.355l133.404 77.022c10.172 5.873 26.816 5.873 36.988 0Z"/><g clip-path="url(#y)"><path fill="url(#D)" d="M561.455 1097.268c0-34.198 21.674-35.184 21.674-35.184s11.734 0 30.798-7.91c18.809-7.816 45.32-4.797 30.505 22.533a6.907 6.907 0 0 1-.508 1.01 13.334 13.334 0 0 1-4.807 4.215l-47.35 27.777c-7.217 4.125-30.142-5.404-30.312-12.441Z"/><path fill="#1f196f" d="M561.584 1094.203v-.017c.41 7.04 23.023 16.382 30.183 12.295l47.35-27.774a43.287 43.287 0 0 0 6.68-4.865c-.44.943-.817 1.846-1.365 2.865a6.907 6.907 0 0 1-.508 1.01 13.334 13.334 0 0 1-4.807 4.215l-47.35 27.777c-6.754 3.861-27.3-4.248-30.01-11.082a7.596 7.596 0 0 1-.212-1.389 22.13 22.13 0 0 1 .039-3.035Z"/><path fill="#fff" d="M570.267 1057.59c5.575 0 25.225 4.99 25.225 4.99a11.072 11.072 0 0 0 1.75 5.088c.2.217.369.44.547.666 0-.01.01-.01.015-.01 3.866 2.705 7.807 6.967-1.388 12.739-7.528 4.73-13.65 1.728-16.557-1.174a15.14 15.14 0 0 0-5.338-6.067c-2.492-1.433-4.027-2.086-5.123-2.16a2.568 2.568 0 0 0-.05-.469s-1.423-13.603.92-13.603Z"/><path fill="url(#E)" d="M406.943 904.518c20.545-4.082 184.498-83.71 206.631-40.862a10.41 10.41 0 0 1 1.07 5.065h.006c7.858 39.908-18.428 195.912-18.428 195.912h-.023a7.26 7.26 0 0 1-3.662 4.195c-5.154 2.979-13.5 2.971-18.654-.004-2.34-1.345-4.276-3.082-4.499-4.847h-.037s-11.418-92.803-7.925-133.864c-56.356 43.717-141.764 88.477-175.776 77.135-55.082-18.379-82.797-32.889-100.322-70.347-5.764-12.3-6.957-46.747-6.957-61.481 60.92-30.18 108.535-2.984 128.576 29.098Z"/></g><path fill="#facfa7" d="M522.937 687.733a98.303 98.303 0 0 0-10.648-5.407c-6.893-3.281-17.885-.652-20.934 1.467-3.05 2.12-21.994 13.75-25.597 21.258 0 0-7.108 3.678-9.877 5.1l10.406 15.912s9.129-4.848 11.275-4.711a32.087 32.087 0 0 0 11.451-.953v.003c10.153-2.595 22.133-10.7 25.577-13.546-5.059-4.573-10.66.494-14.456 2.52a19.254 19.254 0 0 1 2.76-3.659c6.16-6.186 7.573-8.356 14.467-8.356 6.897 0 12.16-5.496 5.576-9.628Z"/><path fill="url(#c)" d="M473.133 726.082c3.652-10.889-9.286-20.473-16.93-19.75-35.74 15.578-53.076 24.848-65.293 21.238-51.397-24.021-30.451 39.19 0 41.858 35.639 3.125 53.723-21.36 82.223-43.346Z"/><path fill="#e19100" d="M324.336 645.734c-25.848 5.655-58.244 22.178-36.692 67.24 14.711 30.759 36.692-67.24 36.692-67.24Z"/><path fill="url(#F)" d="M329.045 946.705c50.627 28.408 119.38 18.035 128.857-21.89-34.469-115.653-42.23-192.54-41.41-239.569-22.332-17.244-41.361-32.576-57.719-36.238-17.09-3.826-39.695-6.783-49.664 2.77-31.076 41.914-22.97 114.398-30.742 223.642 5.348 34.969 25.746 57.305 50.678 71.285Z"/><path fill="#facfa7" d="M335.164 647.787c8.623-8.129 11.238-21.265 12.674-36.144a73.013 73.013 0 0 1 1.867-25.817c8.064-31.894 34.83-52.62 59.8-46.304 24.962 6.312 38.67 37.273 30.61 69.156-7.47 29.547-33.404 45.871-56.66 48.29-1.162 2.518 3.213 6.143 7.277 8.766-19.076 5.061-36.76-4.937-46.146-10.044-4.856-2.641-8.295-5.186-9.422-7.903Z"/><path fill="#1f196f" d="M350.988 541.623c9.254-8.922 20.018-.367 25.402-3.152.922-.445 1.891-.91 2.905-1.403.01.004.01-.003.021-.011 7.037-4.203 3.664-7.301 10.182-11.176 6.445-3.848 12.697 1.488 16.885.094l-.02.027c9.914-3.105 18.865-4.398 22.775-.766a27.876 27.876 0 0 1 5.094 6.704l-.002-.012c3.336 5.59 14.885-1.59 14.164 10.476-.668 11.336-4.91 15.114-6.703 32.457a65.201 65.201 0 0 1-.264 2.993c-.013.199-.039.375-.048.57-.016-.008-.012-.016-.022-.04-1.351 11.224-4.816 21.25-10.658 26.821-1.66 1.582-3.451 3.09-5.27 4.57 1.512-6.105-7.873-23.468-14.722 3.63-.735 2.906 1.293 4.03-1.598 7.402-2.898 3.37-17.65 9.988-27.83 16.043-14.197 8.472-18.287-3.38-37.525-6.07 2.027-8.028.976-12.594-.606-18.329-.994-3.633-2.777-17.73.102-32.797.004-.03-.035-.015-.024-.054 3.774-14.922-1.287-29.239 7.762-37.977Z"/><path fill="#facfa7" d="M557.943 746.373c2.77-1.424 7.29-3.787 7.29-3.787.075-1.61 5.72-19.504 20.97-23.99 3.137 4.754-2.258 8.61-6.662 13.058 5.293-4.234 12.185-8.474 15.234-10.593 3.05-2.121 14.041-4.748 20.934-1.467a98.551 98.551 0 0 1 10.648 5.404c6.584 4.135 1.32 9.629-5.574 9.629-6.897 0-8.309 2.172-14.469 8.356-6.16 6.185-11.603 19.927-32.002 18.625-2.146-.137-4.605 1.722-4.605 1.722Z"/><path fill="url(#G)" d="M573.863 764.463c3.652-10.889-9.287-20.475-16.93-19.75-35.74 15.578-53.078 24.846-65.295 21.238-51.396-24.021-62.394-68.904-75.146-80.705-28.68-20.408-63.203 24.75-25.594 65.44 39.688 37.17 70.29 54.453 100.74 57.123 35.639 3.123 53.725-21.36 82.225-43.346Z"/><path fill="url(#H)" d="M221.199 992.563c-3.395-26.145-19.606-145.582-22.352-165.815-3.613-26.625 24.694-45.512 65.516-22.402s83.197 52.816 124.432 113.205c21.226 31.09 72.365 20.355 93.937 6.703 30.21-19.115 58.074 2.889 58.074 68.309-16.644 11.966-130.476 74.904-144.922 81.279-14.445 6.375-26.224 3.754-57.472-16.252-31.248-20.004-117.213-65.027-117.213-65.027Z"/><path fill="#ced3f8" d="M582.33 372.572c0 3.132-2.221 4.414-4.93 2.849l-24.662-14.238a10.937 10.937 0 0 1-4.932-8.544v-28.476c-.002-3.133 2.219-4.412 4.932-2.846l24.662 14.238a10.946 10.946 0 0 1 4.93 8.542Z"/><path fill="#423eaf" d="M582.918 324.203a2.409 2.409 0 0 0-3.272.938l-14.596 26.302-8.728-15.118a2.406 2.406 0 0 0-4.168 2.407l10.855 18.797a2.4 2.4 0 0 0 4.18-.035l16.662-30.02a2.408 2.408 0 0 0-.933-3.27Z"/><path fill="#5652cc" d="m759.5 452.054-160.455-92.638v-6.908L759.5 445.146v6.908zM695.283 429.424l-96.238-55.563v-6.909l96.238 55.564v6.908z"/><path fill="#ced3f8" d="M582.33 431.711c0 3.133-2.221 4.416-4.93 2.85l-24.662-14.24a10.935 10.935 0 0 1-4.932-8.542v-28.477c-.002-3.132 2.219-4.412 4.932-2.847l24.662 14.24a10.945 10.945 0 0 1 4.93 8.54Z"/><path fill="#423eaf" d="M582.918 383.344a2.406 2.406 0 0 0-3.272.936l-14.596 26.303-8.728-15.117a2.406 2.406 0 1 0-4.168 2.404l10.855 18.799a2.4 2.4 0 0 0 4.18-.036l16.662-30.019a2.406 2.406 0 0 0-.933-3.27Z"/><path fill="#5652cc" d="m759.5 511.194-149.032-86.043v-6.908L759.5 504.285v6.909zM695.283 488.564 599.045 433v-6.908l96.238 55.563v6.909zM695.283 547.703l-96.238-55.564v-6.906l96.238 55.563v6.907zM599.045 477.693l65.738 37.955v-6.908l-65.738-37.954Zm75.074 36.437v6.908h-.002l85.383 49.295v-6.908Z"/><path fill="#ffd03e" d="M582.33 490.852c0 3.132-2.221 4.414-4.93 2.847l-24.662-14.238a10.937 10.937 0 0 1-4.932-8.543v-28.476c-.002-3.132 2.219-4.414 4.932-2.846l24.662 14.237a10.945 10.945 0 0 1 4.93 8.542Z"/><path fill="#fff" d="m567.412 468.947 7.027-4.058c.85-.49.85-2.08 0-3.553-.847-1.47-2.226-2.266-3.078-1.775l-7.025 4.057-7.032-12.174c-.847-1.47-2.224-2.266-3.074-1.776-.85.49-.851 2.082 0 3.553l7.028 12.175-7.028 4.056c-.85.49-.851 2.081 0 3.553.85 1.473 2.227 2.267 3.074 1.776l7.032-4.057 7.027 12.173c.85 1.472 2.229 2.267 3.078 1.777.848-.491.85-2.082 0-3.553ZM792.502 547.166l-11.488-6.632v-32.873l11.488 6.632v32.873z"/><path fill="#dfe4f4" d="m789.689 512.67-5.861-3.385v-55.04l5.861 3.383v55.042zM789.689 610.213l-5.861-3.385v-64.671l5.861 3.386v64.67z"/><path d="m508.502 640.915-18.221-22.844c-3.332-4.175-10.879-5.988-17.553-4.21-4.006 1.062-6.683 3.093-7.55 5.72a6.187 6.187 0 0 0 1.292 5.897l13.715 17.193a1.291 1.291 0 1 0 2.018-1.611l-13.713-17.194a3.721 3.721 0 0 1-.86-3.476c.575-1.742 2.674-3.213 5.76-4.033 5.653-1.506 12.184-.041 14.87 3.328l18.222 22.84a2.87 2.87 0 0 1 .692 2.66c-.434 1.31-2.053 2.426-4.446 3.06-.15.042-.3.073-.455.109-4.576 1.05-9.965-.094-11.965-2.602l-12.21-15.306a1.623 1.623 0 0 1-.381-1.595c.267-.815 1.367-1.9 3.642-2.506 3.51-.934 7.78-.098 9.318 1.83l7.7 9.656a1.293 1.293 0 0 0 2.023-1.61l-7.701-9.657c-2.184-2.733-7.455-3.926-12.004-2.717-2.822.75-4.8 2.277-5.432 4.195a4.19 4.19 0 0 0 .815 4.016l12.209 15.303c2.002 2.512 6.11 3.981 10.424 3.981a18.46 18.46 0 0 0 4.681-.598c.178-.05.338-.11.51-.16 3.01-.91 5.043-2.523 5.725-4.59a5.336 5.336 0 0 0-1.125-5.079Z" style="mix-blend-mode:multiply" fill="url(#I)"/><path fill="url(#J)" d="m488.695 644.389-12.211-15.306a1.63 1.63 0 0 1-.383-1.596c.27-.816 1.37-1.902 3.64-2.505 3.517-.936 7.784-.096 9.323 1.83l7.701 9.658a1.292 1.292 0 0 0 2.02-1.611l-7.701-9.657c-2.184-2.734-7.455-3.927-12.002-2.717-2.823.749-4.801 2.276-5.434 4.192a4.192 4.192 0 0 0 .815 4.017l12.209 15.304c2.003 2.512 6.111 3.98 10.423 3.98a18.328 18.328 0 0 0 4.686-.601c.174-.043.334-.101.504-.156l-1.627-2.235c-4.576 1.051-9.965-.09-11.963-2.597Z"/><path fill="#fcba06" d="m506.886 639.552-18.218-22.842c-3.332-4.178-10.881-5.99-17.555-4.213-4.004 1.063-6.684 3.094-7.55 5.719a6.195 6.195 0 0 0 1.292 5.9l13.715 17.192a1.292 1.292 0 1 0 2.02-1.612l-13.713-17.193a3.713 3.713 0 0 1-.86-3.477c.575-1.744 2.672-3.214 5.758-4.033 5.652-1.504 12.184-.043 14.871 3.328l18.225 22.842a2.88 2.88 0 0 1 .687 2.658c-.433 1.31-2.05 2.423-4.443 3.06-.152.039-.305.07-.457.105l1.627 2.235c3.01-.91 5.045-2.524 5.726-4.59a5.331 5.331 0 0 0-1.125-5.08Z"/><path d="M779.95 747.285c-5.202-3.004-13.27-2.879-18.763.295l-23.18 13.381a1.292 1.292 0 1 0 1.292 2.238l23.181-13.382c4.678-2.702 11.784-2.833 16.18-.295 1.826 1.054 2.834 2.353 2.834 3.648 0 1.445-1.217 2.977-3.342 4.205l-30.799 17.78c-3.814 2.203-9.347 2.33-12.875.294-.07-.04-.13-.082-.195-.123-1.414-.87-2.197-1.925-2.197-2.994 0-1.119.85-2.228 2.394-3.119l20.637-11.914a11.327 11.327 0 0 1 10.076 0c1.084.627 1.71 1.414 1.71 2.162 0 .746-.626 1.535-1.71 2.162l-13.02 7.518a1.291 1.291 0 1 0 1.292 2.236l13.02-7.518c1.935-1.115 3.001-2.677 3.001-4.398 0-1.723-1.066-3.281-3.002-4.398a13.79 13.79 0 0 0-12.658 0l-20.637 11.914c-2.377 1.37-3.685 3.273-3.685 5.355a5.854 5.854 0 0 0 2.586 4.611 10.137 10.137 0 0 0 1.097.743 14.69 14.69 0 0 0 7.288 1.797 16.562 16.562 0 0 0 8.171-2.09l30.797-17.784c2.989-1.722 4.635-4.011 4.635-6.439 0-2.26-1.467-4.348-4.127-5.885Z" style="mix-blend-mode:multiply" fill="url(#K)"/><path fill="url(#L)" d="M730.47 770.967c0-1.12.85-2.227 2.395-3.117l20.637-11.914a11.315 11.315 0 0 1 10.076 0c1.086.627 1.709 1.414 1.709 2.162 0 .746-.623 1.535-1.71 2.162l-13.02 7.517a1.293 1.293 0 0 0 1.293 2.239l13.02-7.518c1.937-1.119 2.999-2.68 2.999-4.4 0-1.721-1.064-3.283-2.998-4.4a13.807 13.807 0 0 0-12.66 0l-20.637 11.913c-2.377 1.373-3.685 3.276-3.685 5.356a5.851 5.851 0 0 0 2.586 4.611l2.19-1.619c-1.411-.865-2.194-1.924-2.194-2.992Z"/><path fill="#423eaf" d="M778.338 745.922c-5.205-3.006-13.272-2.879-18.764.295l-23.182 13.38a1.292 1.292 0 1 0 1.293 2.237l23.182-13.38c4.676-2.702 11.783-2.833 16.18-.294 1.826 1.053 2.834 2.348 2.834 3.649 0 1.443-1.221 2.974-3.342 4.2l-30.8 17.782c-3.815 2.201-9.348 2.33-12.876.295-.068-.041-.129-.084-.197-.127l-2.191 1.62a9.711 9.711 0 0 0 1.1.743 14.7 14.7 0 0 0 7.284 1.795 16.554 16.554 0 0 0 8.172-2.09l30.799-17.78c2.988-1.725 4.633-4.013 4.633-6.44 0-2.258-1.465-4.352-4.125-5.885Z"/><path d="m783.457 945.826 3.545.002 21.15-12.213h-3.545Zm3.478-24.46h-3.544l21.216 12.25h3.547Z" style="mix-blend-mode:multiply" fill="url(#M)"/><path fill="#ffd03e" d="m804.68 931.529-21.223 12.252-130.15-75.144 21.22-12.254 130.153 75.146z"/><path fill="#4141aa" d="m673.57 860.184 3.772-2.174-.524-.307-3.771 2.178.523.303zM684.916 866.734l3.768-2.177-.522-.303-3.77 2.18.524.3zM696.262 873.285l3.767-2.177-.521-.305-3.77 2.178.524.304zM707.605 879.834l3.77-2.176-.52-.302-3.771 2.177.521.301zM718.949 886.387l3.774-2.182-.528-.299-3.769 2.176.523.305zM730.295 892.934l3.771-2.176-.521-.305-3.774 2.182.524.299zM741.639 899.483l3.771-2.176-.521-.299-3.776 2.176.526.299zM752.984 906.035l3.772-2.177-.524-.303-3.771 2.176.523.304zM764.328 912.584l3.775-2.178-.525-.3-3.771 2.177.521.301zM775.676 919.135l3.771-2.176-.523-.305-3.77 2.176.522.305zM787.017 925.684l3.774-2.176-.524-.301-3.773 2.176.523.301zM797.844 931.932l3.767-2.178.524.303-3.768 2.177-.523-.302z"/><path fill="#f2bd42" d="m711.68 892.02 3.349-1.934 31.28 18.059-3.354 1.933-31.275-18.058z"/><path fill="#e19100" d="m783.457 945.826 21.223-12.254v-2.043l-21.223 12.252v2.045z"/><path fill="#fcba06" d="m653.307 870.686 130.15 75.14v-2.045l-130.15-75.144v2.049z"/><path d="M566.945 588.172c-6.008-3.472-13.996-5.07-21.844-4.834H532.8v2.013a32.545 32.545 0 0 0-6.508 2.821c-11.184 6.505-11.121 17.046.138 23.55a32.636 32.636 0 0 0 6.37 2.76v2.107h14.755c7.096-.12 14.125-1.729 19.524-4.864 11.19-6.507 11.13-17.048-.133-23.553Z" style="mix-blend-mode:multiply" fill="url(#N)"/><path fill="url(#O)" d="M513.756 611.733c-5.664-3.273-8.502-7.568-8.485-11.857l.024-9.777c-.012 4.29 2.818 8.585 8.484 11.858 11.266 6.503 29.465 6.503 40.65.006 5.563-3.235 8.346-7.46 8.36-11.695l-.026 9.776c-.013 4.232-2.796 8.457-8.355 11.69-11.188 6.505-29.39 6.505-40.652-.001Z"/><path fill="#fff" d="M513.779 601.957c-11.26-6.499-11.32-17.046-.133-23.545 11.188-6.505 29.395-6.505 40.654 0 11.264 6.5 11.32 17.046.13 23.551-11.186 6.497-29.385 6.497-40.651-.006Z"/><path fill="#bbc0e6" d="m548.789 588.845-21.274 1.081.662-4.78H522.3l-1.597 8.715 28.086-1.623v-3.393z"/><path style="mix-blend-mode:multiply" fill="url(#P)" d="m1020.75 716.785-112.756 11.506v50.135l112.756 11.51v-73.151z"/><path fill="url(#Q)" d="m850.088 674.781 14.65 79.024c0 6.3 4.162 12.605 12.496 17.418 16.662 9.62 43.684 9.62 60.35 0 8.328-4.813 12.496-11.117 12.496-17.424l14.652-79.018Z"/><path fill="#f6f6fb" d="M850.088 674.781c0-8.468 5.594-16.937 16.787-23.4 22.383-12.922 58.68-12.922 81.068.004 11.192 6.459 16.79 14.928 16.79 23.396 0 8.475-5.598 16.942-16.79 23.405-22.388 12.923-58.68 12.923-81.068 0-11.191-6.463-16.787-14.93-16.787-23.405Z"/><path fill="url(#g)" d="M875.662 664.22c17.53-10.12 45.965-10.12 63.494.007 7.049 4.066 11.21 9.158 12.594 14.44a15.495 15.495 0 0 0 .557-3.886c0-6.63-4.383-13.267-13.15-18.328-17.53-10.119-45.966-10.119-63.495 0-8.764 5.06-13.154 11.7-13.146 18.328a15.223 15.223 0 0 0 .554 3.885c1.377-5.287 5.543-10.373 12.592-14.445Z"/><path fill="#807dfb" d="M875.662 693.111c17.533 10.125 45.965 10.125 63.494 0 7.049-4.066 11.21-9.16 12.594-14.445-1.383-5.281-5.545-10.373-12.594-14.44-17.53-10.126-45.965-10.126-63.494-.005-7.049 4.072-11.215 9.158-12.592 14.445 1.377 5.285 5.543 10.379 12.592 14.445Z"/><path d="M906.332 695.006c6.123 0 16.115.273 27.377.75a47.804 47.804 0 0 0 5.447-2.645c7.049-4.066 11.21-9.16 12.594-14.445-1.383-5.281-5.545-10.373-12.594-14.44-6.767-3.91-15.164-6.292-23.928-7.183a547.153 547.153 0 0 0-11.8 3.233Z" style="mix-blend-mode:multiply" fill="url(#R)"/><path d="M947.943 651.385a66.772 66.772 0 0 0-14.574-6.094 593.36 593.36 0 0 0-16.775 4.133 59.843 59.843 0 0 1 22.562 7.03c8.768 5.06 13.15 11.697 13.15 18.327a15.495 15.495 0 0 1-.556 3.885 21.191 21.191 0 0 1-6.865 10.352c4.525.23 9.113.486 13.623.767 4.14-4.7 6.224-9.85 6.224-15.004 0-8.468-5.597-16.937-16.789-23.396Z" style="mix-blend-mode:multiply" fill="url(#S)"/><path fill="#423eaf" d="M963.19 613.68c-14.993-15.102-36.301 16.705-41.897 25.238 0 0 .65 1.463 2.002 3.79 13.73-13.847 32.986-25.179 39.894-29.028Z"/><path fill="#362e94" d="M964.693 615.379a20.717 20.717 0 0 0-1.504-1.7c-6.908 3.85-26.164 15.182-39.894 29.028a70.01 70.01 0 0 0 5.629 8.242c26.388-6.25 47.183-21.134 35.77-35.57Z"/><path fill="url(#e)" d="M906.332 595.162c-16.729 6.473-33.033 22.287-18.717 94.258.545.422 5.985 1.473 8.516 2.19-7.551-71.71-.227-87.29 10.2-96.448Z"/><path fill="url(#d)" d="M896.13 691.61a29.434 29.434 0 0 0 10.202 3.396v-99.844c-10.428 9.158-17.752 24.739-10.201 96.447Z"/><path fill="url(#T)" d="M906.332 595.162c-45.139 0-28.438 70.178-23.563 87.778a13.421 13.421 0 0 0 4.846 6.48c-14.316-71.97 1.988-87.785 18.717-94.258Z"/><path fill="url(#U)" d="M906.332 595.162c17.234 5.963 33.035 22.287 18.717 94.258a13.56 13.56 0 0 0 4.736-6.2h.006c.016-.042.035-.097.05-.142.018-.052.042-.101.055-.152 5.196-13.99 21.28-87.764-23.564-87.764Z"/><path fill="url(#V)" d="M906.332 595.162c10.428 9.158 17.525 25.215 9.975 96.926 2.53-.717 8.197-2.246 8.742-2.668 14.318-71.97-1.483-88.295-18.717-94.258Z"/><path fill="url(#W)" d="M906.332 595.162v99.844c3.732-1.006 6.814-2.023 9.975-2.918 7.55-71.711.453-87.768-9.975-96.926Z"/><path style="mix-blend-mode:multiply" fill="url(#X)" d="M868.363 779.455h-44.467l106.959 61.754-124.984 72.16h44.469l124.984-72.16-106.961-61.754z"/><path fill="#fff" d="m805.871 887.695-93.516-53.992 124.985-72.16 93.517 53.992-124.986 72.16z"/><path fill="#bbc0e6" d="M805.871 913.369v-25.674l124.984-72.16.002 25.674-124.986 72.16z"/><path fill="#ced3f8" d="M712.355 859.377v-25.674l93.516 53.992.002 25.672-93.518-53.99z"/><path fill="#ffd03e" d="M822.976 788.338a12.346 12.346 0 0 1 11.16 0c3.079 1.78 3.079 4.664-.001 6.443a12.336 12.336 0 0 1-11.159 0c-3.08-1.779-3.08-4.664 0-6.443Z"/><path fill="#807dfb" d="m845.127 795.658 42.605 24.6-3.156 1.822-42.607-24.597 3.158-1.825zM838.943 799.229l25.381 14.652-3.156 1.822-25.379-14.654 3.154-1.82z"/><path fill="#ffd03e" d="M802.04 800.428a12.33 12.33 0 0 1 11.16 0c3.081 1.777 3.081 4.662-.003 6.441a12.331 12.331 0 0 1-11.156 0c-3.082-1.779-3.082-4.664 0-6.441Z"/><path fill="#807dfb" d="m824.189 807.748 42.606 24.598-3.156 1.824-42.608-24.6 3.158-1.822zM818.008 811.317l25.379 14.652-3.155 1.824-25.379-14.654 3.155-1.822z"/><path fill="#ffd03e" d="M781.103 812.516a12.341 12.341 0 0 1 11.159 0c3.08 1.779 3.08 4.664-.002 6.443a12.332 12.332 0 0 1-11.157 0c-3.082-1.78-3.082-4.664 0-6.443Z"/><path fill="#807dfb" d="m803.252 819.836 42.605 24.6-3.154 1.822-42.607-24.598 3.156-1.824zM797.07 823.406l25.381 14.653-3.156 1.824-25.379-14.656 3.154-1.821z"/><path fill="#ffd03e" d="M760.166 824.606a12.333 12.333 0 0 1 11.16 0c3.08 1.777 3.08 4.662-.002 6.441a12.33 12.33 0 0 1-11.158 0c-3.08-1.78-3.08-4.664 0-6.441Z"/><path fill="#807dfb" d="m782.316 831.926 42.606 24.6-3.156 1.82-42.608-24.598 3.158-1.822zM776.135 835.494l25.379 14.655-3.155 1.822-25.381-14.654 3.157-1.823z"/><path fill="#ced3f8" d="m863.18 783.787 29.13 16.821-5.894 3.4-29.129-16.816 5.893-3.405z"/><path fill="#dae0f5" d="M829.715 873.93a32.35 32.35 0 0 1-9.24 3.412c-4.493.709-20.12 6.014-34.561-1.168l19.957 11.521Z"/><path fill="#abb2da" d="M829.715 873.93c-9.785 5.65-27.678 11.553-43.801 2.244 9.145 4.477 22.146 4.717 29.32-2.457 2.194 2.195 7.092 4.203 14.48.213Z"/><path fill="#fff" d="m776.226 879.697-63.871-36.879v-4.531l-6.312 4.362 70.183 37.048z"/><path fill="#ced3f8" d="m866.982 872.522 63.875-36.877v-4.534l6.311 4.364-70.186 37.047z"/><path d="M1006.838 808.1a20.201 20.201 0 0 0-9.88-2.36H964.94v16.135h32.02a20.216 20.216 0 0 0 9.88-2.363c2.731-1.574 4.098-3.64 4.098-5.703 0-2.069-1.367-4.131-4.1-5.71Z" style="mix-blend-mode:multiply" fill="url(#f)"/><path d="M1131.615 768.022a20.185 20.185 0 0 0-9.883-2.362h-87.367v16.135h87.367a20.229 20.229 0 0 0 9.883-2.361c2.73-1.58 4.096-3.643 4.096-5.71 0-2.062-1.366-4.126-4.096-5.702Z" style="mix-blend-mode:multiply" fill="url(#Y)"/><path d="M1064.892 788.06a20.202 20.202 0 0 0-9.878-2.363h-55.362v16.139h55.362a20.215 20.215 0 0 0 9.88-2.363c2.729-1.578 4.094-3.643 4.094-5.705 0-2.065-1.365-4.133-4.096-5.707Z" style="mix-blend-mode:multiply" fill="url(#Z)"/><path fill="url(#aa)" d="M1019.578 713.875v59.85c0 2.066 1.363 4.129 4.09 5.709 5.459 3.148 14.308 3.148 19.767 0 2.729-1.58 4.092-3.643 4.092-5.71v-59.849Z"/><path fill="#ffd03e" d="M1023.668 708.172c5.459-3.152 14.308-3.152 19.767 0 2.729 1.574 4.092 3.64 4.092 5.703 0 2.065-1.363 4.131-4.092 5.707-5.459 3.15-14.308 3.15-19.767 0-2.727-1.576-4.09-3.642-4.09-5.707 0-2.062 1.363-4.129 4.09-5.703Z"/><path fill="url(#ab)" d="M984.865 756.334v37.434c0 2.062 1.367 4.127 4.094 5.705 5.457 3.152 14.305 3.152 19.764 0 2.728-1.578 4.093-3.643 4.093-5.705v-37.434Z"/><path fill="#fff" d="M988.959 750.629c5.457-3.15 14.305-3.15 19.764 0 2.728 1.574 4.093 3.64 4.093 5.705s-1.365 4.129-4.093 5.705c-5.46 3.154-14.307 3.154-19.764 0-2.727-1.576-4.094-3.64-4.094-5.705 0-2.064 1.367-4.13 4.094-5.705Z"/><path fill="url(#ac)" d="M950.154 794.42v19.389c0 2.062 1.363 4.129 4.092 5.703 5.459 3.152 14.307 3.152 19.766 0 2.728-1.574 4.093-3.64 4.093-5.703V794.42Z"/><path fill="#807cfb" d="M954.246 788.713c5.459-3.154 14.307-3.154 19.766 0 2.728 1.574 4.093 3.64 4.093 5.707 0 2.064-1.365 4.123-4.093 5.705-5.46 3.149-14.307 3.149-19.766 0-2.729-1.582-4.092-3.64-4.092-5.705 0-2.066 1.363-4.133 4.092-5.707Z"/><path style="mix-blend-mode:multiply" fill="url(#ad)" d="M244.871 580.658h84.576v42.394h-84.576z"/><path fill="url(#ae)" d="M269.086 565.78c-13.371 7.721-35.057 7.722-48.432 0-6.686-3.86-10.03-8.92-10.03-13.979v51.482c0 5.06 3.344 10.118 10.03 13.979 13.375 7.722 35.06 7.72 48.432 0 6.687-3.86 10.03-8.92 10.03-13.983v-51.478c-.001 5.06-3.345 10.12-10.03 13.98Z"/><path fill="#f6f6fb" d="M210.625 551.801c-.002-5.062 3.342-10.123 10.029-13.983 13.373-7.721 35.06-7.721 48.432 0 6.687 3.862 10.03 8.92 10.03 13.98 0 5.061-3.343 10.122-10.03 13.982-13.371 7.721-35.057 7.722-48.432 0-6.686-3.86-10.03-8.92-10.03-13.979Z"/><path d="M269.086 537.818c-.15-.09-.309-.17-.463-.255l-1.25 3.578h6.342a27.26 27.26 0 0 0-4.63-3.323Z" style="mix-blend-mode:multiply" fill="#dae0f5"/><path fill="url(#af)" d="M224.289 552.786c11.367-6.561 29.797-6.561 41.162 0a19.84 19.84 0 0 1 6.308 5.448 10.994 10.994 0 0 0 2.217-6.436c0-4.3-2.842-8.6-8.525-11.88-11.365-6.563-29.795-6.563-41.162 0-5.682 3.28-8.526 7.581-8.526 11.883a10.987 10.987 0 0 0 2.217 6.433 19.83 19.83 0 0 1 6.309-5.448Z"/><path fill="url(#ag)" d="M224.289 563.68c11.369 6.563 29.797 6.561 41.162 0a19.793 19.793 0 0 0 6.308-5.446 19.84 19.84 0 0 0-6.308-5.448c-11.365-6.561-29.795-6.561-41.162 0a19.83 19.83 0 0 0-6.309 5.448 19.808 19.808 0 0 0 6.309 5.447Z"/><path fill="#bbc0e6" d="M214.373 607.439c-1.582.914-2.922.142-2.922-1.689v-17.908a6.572 6.572 0 0 1 2.922-5.065s3.931-2.268 8.094-4.673v-5.325l-8.094 4.673a16.715 16.715 0 0 0-7.535 13.052v17.91c0 4.785 3.39 6.742 7.535 4.35l8.095-4.673v-5.325l-8.095 4.673Z"/><path fill="url(#ah)" d="M206.838 608.413v-17.909a16.715 16.715 0 0 1 7.535-13.052l8.094-4.673-3.584-2.073-8.094 4.673a16.717 16.717 0 0 0-7.535 13.052v17.91c0 2.21.728 3.805 1.914 4.661v.002l.029.018a3.695 3.695 0 0 0 .537.312l3.22 1.88c-1.308-.813-2.116-2.468-2.116-4.8Z"/><path fill="#f6f6fb" d="M218.884 600.693c-3.14 1.812-6.144 3.546-7.433 4.292v.765c0 1.831 1.34 2.603 2.922 1.689l8.095-4.673Z"/><path style="mix-blend-mode:screen" fill="url(#ai)" d="m255.517 552.947 4.131 1.805-5.072 11.47-3.869-2.387 4.81-10.888z"/><path style="mix-blend-mode:screen" fill="url(#aj)" d="m254.576 566.222 1.049.285 5.277-11.937-1.254.182-5.072 11.47z"/><path fill="#f6f6fb" d="M274.41 515.724c1.56.901 2.113 3.247 1.234 5.239 0 0-15.103 31.969-16.469 34.857-2.632.738-3.835-1.147-3.835-2.468.584-1.322 14.548-35.383 14.548-35.383.036-.09.055-.18.096-.274.881-1.99 2.863-2.873 4.426-1.971Z"/><path fill="#bbc0e6" d="M275.75 516.006a2.659 2.659 0 0 0-.776-.298l-1.338-.282a2.647 2.647 0 0 1 .774.298c1.56.901 2.113 3.247 1.234 5.239l-16.469 34.857s1.266-.203 1.645-1.064c.38-.86 16.164-33.51 16.164-33.51.879-1.993.326-4.338-1.234-5.24Z"/></g></svg>