<svg xmlns="http://www.w3.org/2000/svg" viewBox="0 0 3000 2000"><g data-name="Layer 2"><path fill="#8ad2e1" d="M454.27,1857.72h2328c16.84-589.36-269.42-1153.46-804.06-1225S1460.4,64.38,896.29,152.78-55.1,1108.39,454.27,1857.72Z"/><rect width="823.52" height="683.83" x="1256.4" y="261.01" rx="27.97" style="mix-blend-mode:multiply" fill="#b7d0d6"/><rect width="823.52" height="683.83" x="1284.81" y="229.44" fill="#fff" rx="27.97"/><path fill="#80a6de" d="M1405.89,351.31h0l-2.66,1.43-.4-1.57,3.34-1.79h1.76v15.28h-2Z"/><path fill="#6a95d4" d="M1433.9,357.77l10.91-5.62v1.63l-9.19,4.6v.05l9.19,4.61v1.62L1433.9,359Z"/><path fill="#6a95d4" d="M1457.89,353.28c-.05.82-.1,1.74-.1,3.13V363c0,2.61-.52,4.21-1.62,5.2a6.06,6.06,0,0,1-4.14,1.36,7.33,7.33,0,0,1-3.78-.94l.51-1.57a6.45,6.45,0,0,0,3.34.89c2.12,0,3.67-1.11,3.67-4v-1.27h0a4,4,0,0,1-3.62,1.9c-2.82,0-4.84-2.4-4.84-5.55,0-3.85,2.52-6,5.12-6a3.78,3.78,0,0,1,3.55,2h0l.09-1.72Zm-2.14,4.49a3.06,3.06,0,0,0-.12-.94,3,3,0,0,0-2.89-2.18c-2,0-3.39,1.66-3.39,4.3,0,2.23,1.13,4.09,3.36,4.09a3,3,0,0,0,2.87-2.12,3.5,3.5,0,0,0,.17-1.1Z"/><path fill="#6a95d4" d="M1461.23,348h2.07v7.1h0a3.85,3.85,0,0,1,1.48-1.46,4.32,4.32,0,0,1,2.12-.59c1.53,0,4,.94,4,4.87v6.77h-2.07v-6.54c0-1.83-.68-3.38-2.63-3.38a3,3,0,0,0-2.77,2.07,2.47,2.47,0,0,0-.14,1v6.86h-2.07Z"/><path fill="#6a95d4" d="M1471.51,368a3.32,3.32,0,0,0,2.25-.87c.57-.66.78-1.55.78-4.28v-9.52h2.07V363.6c0,2.21-.35,3.64-1.37,4.68a5.21,5.21,0,0,1-3.52,1.29Zm5.33-17.86a1.21,1.21,0,0,1-1.29,1.27,1.23,1.23,0,0,1-1.27-1.27,1.27,1.27,0,0,1,1.32-1.3A1.22,1.22,0,0,1,1476.84,350.09Z"/><path fill="#6a95d4" d="M1482,358.5h0c.28-.4.68-.89,1-1.29l3.34-3.93h2.49l-4.4,4.68,5,6.7H1487l-3.92-5.45-1.06,1.17v4.28h-2V348h2Z"/><path fill="#6a95d4" d="M1501.77,359.06l-10.91,5.6V363l9.26-4.61v-.05l-9.26-4.6v-1.63l10.91,5.6Z"/><path fill="#80a6de" d="M1401.4,406.78v-1.27l1.62-1.57c3.91-3.72,5.67-5.69,5.69-8a2.72,2.72,0,0,0-3-3,5.16,5.16,0,0,0-3.24,1.29l-.66-1.46a6.72,6.72,0,0,1,4.32-1.55,4.3,4.3,0,0,1,4.68,4.45c0,2.82-2,5.1-5.26,8.2l-1.23,1.13v0h6.87v1.72Z"/><path fill="#6a95d4" d="M1433.9,399.89l10.91-5.61v1.62l-9.19,4.6v.05l9.19,4.61v1.62l-10.91-5.62Z"/><path fill="#6a95d4" d="M1450.39,392.21a1.29,1.29,0,0,1-2.57,0,1.27,1.27,0,0,1,1.3-1.3A1.24,1.24,0,0,1,1450.39,392.21Zm-2.31,14.57V395.4h2.07v11.38Z"/><path fill="#6a95d4" d="M1453.59,390.09h2.06v7.1h0a3.85,3.85,0,0,1,1.48-1.46,4.29,4.29,0,0,1,2.12-.59c1.52,0,4,.94,4,4.87v6.77h-2.07v-6.53c0-1.84-.68-3.39-2.63-3.39a3,3,0,0,0-2.77,2.07,2.46,2.46,0,0,0-.15,1v6.86h-2.06Z"/><path fill="#6a95d4" d="M1466.54,406.78c0-.78.1-1.93.1-2.94V390.09h2v7.15h0a4.25,4.25,0,0,1,3.88-2.1c2.82,0,4.82,2.36,4.79,5.81,0,4.07-2.56,6.09-5.1,6.09a4.07,4.07,0,0,1-3.81-2.14h-.07l-.09,1.88Zm2.14-4.56a3.57,3.57,0,0,0,.1.75,3.18,3.18,0,0,0,3.1,2.42c2.16,0,3.45-1.76,3.45-4.37,0-2.28-1.17-4.23-3.38-4.23a3.29,3.29,0,0,0-3.15,2.54,3.85,3.85,0,0,0-.12.84Z"/><path fill="#6a95d4" d="M1480,390.09h2.07v7.1h0a3.81,3.81,0,0,1,1.49-1.46,4.25,4.25,0,0,1,2.11-.59c1.53,0,4,.94,4,4.87v6.77h-2.07v-6.53c0-1.84-.68-3.39-2.63-3.39a3,3,0,0,0-2.77,2.07,2.47,2.47,0,0,0-.14,1v6.86H1480Z"/><path fill="#6a95d4" d="M1490.3,410.07a3.32,3.32,0,0,0,2.25-.87c.57-.66.78-1.55.78-4.28V395.4h2.07v10.32c0,2.21-.35,3.65-1.36,4.68a5.25,5.25,0,0,1-3.53,1.29Zm5.33-17.86a1.21,1.21,0,0,1-1.29,1.27,1.24,1.24,0,0,1-1.27-1.27,1.27,1.27,0,0,1,1.32-1.3A1.22,1.22,0,0,1,1495.63,392.21Z"/><path fill="#6a95d4" d="M1498.69,406.78c0-.78.1-1.93.1-2.94V390.09h2v7.15h.05a4.24,4.24,0,0,1,3.88-2.1c2.82,0,4.81,2.36,4.79,5.81,0,4.07-2.56,6.09-5.1,6.09a4.07,4.07,0,0,1-3.81-2.14h-.07l-.09,1.88Zm2.14-4.56a3.57,3.57,0,0,0,.1.75,3.18,3.18,0,0,0,3.1,2.42c2.16,0,3.45-1.76,3.45-4.37,0-2.28-1.17-4.23-3.38-4.23a3.29,3.29,0,0,0-3.15,2.54,3.85,3.85,0,0,0-.12.84Z"/><path fill="#6a95d4" d="M1514.21,400.62h0c.28-.4.68-.89,1-1.29l3.34-3.93h2.49l-4.4,4.68,5,6.7h-2.52l-3.92-5.45-1.06,1.17v4.28h-2V390.09h2Z"/><path fill="#6a95d4" d="M1520.42,410.07a3.35,3.35,0,0,0,2.26-.87c.56-.66.78-1.55.78-4.28V395.4h2.06v10.32c0,2.21-.35,3.65-1.36,4.68a5.23,5.23,0,0,1-3.52,1.29Zm5.34-17.86a1.22,1.22,0,0,1-1.29,1.27,1.23,1.23,0,0,1-1.27-1.27,1.27,1.27,0,0,1,1.31-1.3A1.23,1.23,0,0,1,1525.76,392.21Z"/><path fill="#6a95d4" d="M1528.91,398.48c0-1.17,0-2.14-.09-3.08h1.83l.12,1.88h0a4.18,4.18,0,0,1,3.76-2.14c1.57,0,4,.94,4,4.85v6.79h-2.07v-6.56c0-1.83-.68-3.36-2.64-3.36a2.93,2.93,0,0,0-2.77,2.12,3,3,0,0,0-.14,1v6.84h-2.07Z"/><path fill="#6a95d4" d="M1552.26,401c0,4.2-2.92,6-5.67,6-3.08,0-5.45-2.26-5.45-5.85,0-3.81,2.49-6.05,5.64-6.05S1552.26,397.52,1552.26,401Zm-9,.11c0,2.5,1.44,4.38,3.46,4.38s3.45-1.86,3.45-4.42c0-1.93-1-4.37-3.41-4.37S1543.23,399,1543.23,401.11Z"/><path fill="#6a95d4" d="M1557.18,392.21a1.28,1.28,0,0,1-2.56,0,1.26,1.26,0,0,1,1.29-1.3A1.24,1.24,0,0,1,1557.18,392.21Zm-2.31,14.57V395.4h2.07v11.38Z"/><path fill="#6a95d4" d="M1560.38,398.48c0-1.17,0-2.14-.1-3.08h1.84l.11,1.88h0a4.19,4.19,0,0,1,3.76-2.14c1.58,0,4,.94,4,4.85v6.79H1568v-6.56c0-1.83-.68-3.36-2.63-3.36a2.93,2.93,0,0,0-2.77,2.12,2.78,2.78,0,0,0-.14,1v6.84h-2.07Z"/><path fill="#6a95d4" d="M1573.34,406.78c0-.78.09-1.93.09-2.94V390.09h2v7.15h0a4.25,4.25,0,0,1,3.88-2.1c2.82,0,4.82,2.36,4.8,5.81,0,4.07-2.57,6.09-5.1,6.09a4.05,4.05,0,0,1-3.81-2.14h-.07l-.1,1.88Zm2.13-4.56a3.57,3.57,0,0,0,.1.75,3.18,3.18,0,0,0,3.1,2.42c2.16,0,3.46-1.76,3.46-4.37,0-2.28-1.18-4.23-3.39-4.23a3.3,3.3,0,0,0-3.15,2.54,4.57,4.57,0,0,0-.12.84Z"/><path fill="#6a95d4" d="M1596.33,403.68c0,1.17,0,2.21.09,3.1h-1.83l-.12-1.86h0a4.28,4.28,0,0,1-3.76,2.12c-1.79,0-3.93-1-3.93-5V395.4h2.07v6.3c0,2.16.66,3.62,2.54,3.62a3,3,0,0,0,2.72-1.88,2.94,2.94,0,0,0,.19-1.06v-7h2.07Z"/><path fill="#6a95d4" d="M1602.07,392.21a1.22,1.22,0,0,1-1.31,1.27,1.24,1.24,0,0,1-1.25-1.27,1.26,1.26,0,0,1,1.29-1.3A1.23,1.23,0,0,1,1602.07,392.21Zm-2.3,14.57V395.4h2.07v11.38Z"/><path fill="#6a95d4" d="M1605.18,406.78c0-.78.09-1.93.09-2.94V390.09h2v7.15h0a4.25,4.25,0,0,1,3.88-2.1c2.82,0,4.82,2.36,4.8,5.81,0,4.07-2.57,6.09-5.1,6.09a4.06,4.06,0,0,1-3.81-2.14h-.07l-.1,1.88Zm2.14-4.56a3.58,3.58,0,0,0,.09.75,3.18,3.18,0,0,0,3.1,2.42c2.17,0,3.46-1.76,3.46-4.37,0-2.28-1.18-4.23-3.39-4.23a3.3,3.3,0,0,0-3.15,2.54,4.64,4.64,0,0,0-.11.84Z"/><path fill="#6a95d4" d="M1618.65,398.48c0-1.17,0-2.14-.09-3.08h1.83l.12,1.88h0a4.18,4.18,0,0,1,3.76-2.14c1.57,0,4,.94,4,4.85v6.79h-2.07v-6.56c0-1.83-.68-3.36-2.63-3.36a2.93,2.93,0,0,0-2.78,2.12,3,3,0,0,0-.14,1v6.84h-2.07Z"/><path fill="#6a95d4" d="M1628.93,410.07a3.37,3.37,0,0,0,2.26-.87c.56-.66.77-1.55.77-4.28V395.4H1634v10.32c0,2.21-.35,3.65-1.36,4.68a5.24,5.24,0,0,1-3.53,1.29Zm5.34-17.86a1.22,1.22,0,0,1-1.3,1.27,1.23,1.23,0,0,1-1.26-1.27,1.27,1.27,0,0,1,1.31-1.3A1.23,1.23,0,0,1,1634.27,392.21Z"/><path fill="#6a95d4" d="M1639.47,400.62h0c.28-.4.68-.89,1-1.29l3.34-3.93h2.49l-4.39,4.68,5,6.7h-2.51l-3.93-5.45-1,1.17v4.28h-2V390.09h2Z"/><path fill="#6a95d4" d="M1650.89,400.62h0c.28-.4.68-.89,1-1.29l3.34-3.93h2.49l-4.39,4.68,5,6.7h-2.51l-3.93-5.45-1.06,1.17v4.28h-2V390.09h2Z"/><path fill="#6a95d4" d="M1658.8,409.67a34.69,34.69,0,0,0,1.41-5.62l2.28-.23a30.36,30.36,0,0,1-2.26,5.71Zm1-12.39a1.39,1.39,0,0,1,1.39-1.48,1.47,1.47,0,0,1,0,2.94A1.37,1.37,0,0,1,1659.81,397.28Z"/><path fill="#6a95d4" d="M1675.72,401.19l-10.9,5.59v-1.62l9.26-4.61v-.05l-9.26-4.6v-1.62l10.9,5.59Z"/><path fill="#80a6de" d="M1401.9,446.53a7,7,0,0,0,3.38,1c2.66,0,3.48-1.69,3.46-3,0-2.14-2-3.06-4-3.06h-1.15v-1.55h1.15c1.5,0,3.41-.77,3.41-2.58,0-1.23-.78-2.31-2.68-2.31a5.61,5.61,0,0,0-3.06,1l-.54-1.5a7.25,7.25,0,0,1,4-1.18c3,0,4.37,1.79,4.37,3.65a3.79,3.79,0,0,1-2.82,3.59v0a4,4,0,0,1,3.4,3.92c0,2.45-1.9,4.59-5.57,4.59a7.7,7.7,0,0,1-4-1Z"/><path fill="#8ad2e1" d="M1438.89,442l10.9-5.61V438l-9.19,4.6v.05l9.19,4.61v1.62l-10.9-5.62Z"/><path fill="#8ad2e1" d="M1450.3,452.19a3.32,3.32,0,0,0,2.25-.87c.57-.66.78-1.55.78-4.28v-9.52h2.07v10.32c0,2.21-.36,3.65-1.37,4.68a5.21,5.21,0,0,1-3.52,1.29Zm5.33-17.86a1.22,1.22,0,0,1-1.29,1.27,1.23,1.23,0,0,1-1.27-1.27,1.27,1.27,0,0,1,1.32-1.3A1.22,1.22,0,0,1,1455.63,434.33Z"/><path fill="#8ad2e1" d="M1461.09,434.33a1.29,1.29,0,0,1-2.57,0,1.27,1.27,0,0,1,1.3-1.3A1.24,1.24,0,0,1,1461.09,434.33Zm-2.31,14.57V437.52h2.07V448.9Z"/><path fill="#8ad2e1" d="M1464.29,432.21h2.06V448.9h-2.06Z"/><path fill="#8ad2e1" d="M1479.36,445.8c0,1.17,0,2.21.09,3.1h-1.83l-.12-1.86h0a4.28,4.28,0,0,1-3.76,2.12c-1.78,0-3.92-1-3.92-5v-6.66h2.06v6.3c0,2.17.66,3.62,2.54,3.62a3,3,0,0,0,2.73-1.88,2.94,2.94,0,0,0,.19-1.06v-7h2.07Z"/><path fill="#8ad2e1" d="M1482.79,432.21h2.07v7.1h.05a3.92,3.92,0,0,1,1.48-1.46,4.28,4.28,0,0,1,2.12-.58c1.52,0,4,.94,4,4.86v6.77h-2.07v-6.53c0-1.84-.68-3.39-2.63-3.39a3,3,0,0,0-2.78,2.07,2.66,2.66,0,0,0-.14,1v6.86h-2.07Z"/><path fill="#8ad2e1" d="M1506.59,443.31l-10.91,5.59v-1.62l9.26-4.61v-.05l-9.26-4.6V436.4l10.91,5.59Z"/><path fill="#80a6de" d="M1407.8,491v-4.16h-7.1V485.5l6.81-9.76h2.24v9.5h2.14v1.62h-2.14V491Zm0-5.78v-5.1c0-.8,0-1.6.07-2.4h-.07c-.47.9-.85,1.55-1.27,2.26l-3.74,5.19v.05Z"/><path fill="#80a6de" d="M1493.89,474.33H1496v7.1h0a3.85,3.85,0,0,1,1.48-1.46,4.27,4.27,0,0,1,2.11-.58c1.53,0,4,.94,4,4.86V491h-2.07v-6.53c0-1.84-.68-3.39-2.63-3.39a3,3,0,0,0-2.78,2.07,2.47,2.47,0,0,0-.14,1V491h-2.07Z"/><path fill="#80a6de" d="M1507,474.33H1509V491H1507Z"/><path fill="#80a6de" d="M1509.72,494.31a3.37,3.37,0,0,0,2.26-.87c.56-.66.77-1.55.77-4.27v-9.52h2.07V490c0,2.21-.35,3.65-1.36,4.68a5.24,5.24,0,0,1-3.53,1.29Zm5.34-17.86a1.22,1.22,0,0,1-1.3,1.27,1.24,1.24,0,0,1-1.27-1.27,1.27,1.27,0,0,1,1.32-1.29A1.22,1.22,0,0,1,1515.06,476.45Z"/><path fill="#80a6de" d="M1518.21,474.33h2.07v7.1h0a3.78,3.78,0,0,1,1.48-1.46,4.27,4.27,0,0,1,2.11-.58c1.53,0,4,.94,4,4.86V491h-2.07v-6.53c0-1.84-.68-3.39-2.63-3.39a3,3,0,0,0-2.77,2.07,2.47,2.47,0,0,0-.14,1V491h-2.07Z"/><path fill="#80a6de" d="M1541.06,479.65c0,.82-.09,1.73-.09,3.12v6.61c0,2.61-.52,4.2-1.62,5.19a6,6,0,0,1-4.14,1.36,7.23,7.23,0,0,1-3.78-.94l.51-1.57a6.45,6.45,0,0,0,3.34.89c2.12,0,3.67-1.1,3.67-4v-1.27h0a4.05,4.05,0,0,1-3.62,1.9c-2.82,0-4.84-2.39-4.84-5.54,0-3.86,2.51-6,5.12-6a3.77,3.77,0,0,1,3.55,2h.05l.09-1.71Zm-2.14,4.48a3.11,3.11,0,0,0-.11-.94,3,3,0,0,0-2.89-2.18c-2,0-3.39,1.67-3.39,4.3,0,2.23,1.13,4.09,3.36,4.09a3,3,0,0,0,2.87-2.12,3.49,3.49,0,0,0,.16-1.1Z"/><path fill="#80a6de" d="M1544.41,474.33h2.07V491h-2.07Z"/><path fill="#80a6de" d="M1547.18,494.31a3.35,3.35,0,0,0,2.26-.87c.56-.66.78-1.55.78-4.27v-9.52h2.06V490c0,2.21-.35,3.65-1.36,4.68a5.23,5.23,0,0,1-3.52,1.29Zm5.34-17.86a1.22,1.22,0,0,1-1.29,1.27,1.23,1.23,0,0,1-1.27-1.27,1.26,1.26,0,0,1,1.31-1.29A1.22,1.22,0,0,1,1552.52,476.45Z"/><path fill="#80a6de" d="M1555.58,491c.05-.77.09-1.93.09-2.94V474.33h2v7.15h0a4.24,4.24,0,0,1,3.88-2.09c2.82,0,4.82,2.35,4.8,5.8,0,4.07-2.57,6.09-5.1,6.09a4,4,0,0,1-3.81-2.14h-.07l-.09,1.88Zm2.14-4.56a3.58,3.58,0,0,0,.09.75,3.19,3.19,0,0,0,3.1,2.43c2.17,0,3.46-1.77,3.46-4.38,0-2.28-1.18-4.23-3.39-4.23a3.31,3.31,0,0,0-3.15,2.54,4.76,4.76,0,0,0-.11.85Z"/><path fill="#80a6de" d="M1566.28,494.31a3.37,3.37,0,0,0,2.26-.87c.56-.66.77-1.55.77-4.27v-9.52h2.07V490c0,2.21-.35,3.65-1.36,4.68a5.24,5.24,0,0,1-3.53,1.29Zm5.34-17.86a1.22,1.22,0,0,1-1.3,1.27,1.24,1.24,0,0,1-1.27-1.27,1.26,1.26,0,0,1,1.32-1.29A1.22,1.22,0,0,1,1571.62,476.45Z"/><path fill="#80a6de" d="M1574.77,482.72c0-1.17,0-2.13-.1-3.07h1.84l.11,1.88h.05a4.17,4.17,0,0,1,3.76-2.14c1.58,0,4,.94,4,4.84V491h-2.07v-6.56c0-1.83-.68-3.36-2.63-3.36a2.94,2.94,0,0,0-2.77,2.12,2.81,2.81,0,0,0-.14,1V491h-2.07Z"/><path fill="#80a6de" d="M1585.05,494.31a3.32,3.32,0,0,0,2.25-.87c.57-.66.78-1.55.78-4.27v-9.52h2.07V490c0,2.21-.36,3.65-1.37,4.68a5.21,5.21,0,0,1-3.52,1.29Zm5.33-17.86a1.21,1.21,0,0,1-1.29,1.27,1.23,1.23,0,0,1-1.27-1.27,1.26,1.26,0,0,1,1.32-1.29A1.22,1.22,0,0,1,1590.38,476.45Z"/><path fill="#80a6de" d="M1593.54,474.33h2.06v7.1h.05a3.92,3.92,0,0,1,1.48-1.46,4.28,4.28,0,0,1,2.12-.58c1.52,0,4,.94,4,4.86V491h-2.07v-6.53c0-1.84-.68-3.39-2.63-3.39a3,3,0,0,0-2.78,2.07,2.66,2.66,0,0,0-.14,1V491h-2.06Z"/><path fill="#80a6de" d="M1606.59,482.72c0-1.17,0-2.13-.1-3.07h1.84l.11,1.88h0a4.16,4.16,0,0,1,3.76-2.14c1.58,0,4,.94,4,4.84V491h-2.07v-6.56c0-1.83-.68-3.36-2.63-3.36a2.94,2.94,0,0,0-2.77,2.12,2.81,2.81,0,0,0-.14,1V491h-2.07Z"/><path fill="#80a6de" d="M1626.93,476.45a1.28,1.28,0,0,1-2.56,0,1.26,1.26,0,0,1,1.29-1.29A1.23,1.23,0,0,1,1626.93,476.45ZM1624.62,491V479.65h2.07V491Z"/><path fill="#80a6de" d="M1630.13,474.33h2.07v7.1h0a3.92,3.92,0,0,1,1.48-1.46,4.28,4.28,0,0,1,2.12-.58c1.53,0,4,.94,4,4.86V491h-2.07v-6.53c0-1.84-.68-3.39-2.63-3.39a3,3,0,0,0-2.77,2.07,2.47,2.47,0,0,0-.14,1V491h-2.07Z"/><path fill="#80a6de" d="M1653,479.65c0,.82-.09,1.73-.09,3.12v6.61c0,2.61-.52,4.2-1.62,5.19a6,6,0,0,1-4.14,1.36,7.29,7.29,0,0,1-3.79-.94l.52-1.57a6.42,6.42,0,0,0,3.34.89c2.11,0,3.67-1.1,3.67-4v-1.27h0a4.06,4.06,0,0,1-3.62,1.9c-2.82,0-4.84-2.39-4.84-5.54,0-3.86,2.51-6,5.12-6a3.77,3.77,0,0,1,3.55,2h0l.09-1.71Zm-2.14,4.48a3.11,3.11,0,0,0-.11-.94,3,3,0,0,0-2.9-2.18c-2,0-3.38,1.67-3.38,4.3,0,2.23,1.13,4.09,3.36,4.09a3,3,0,0,0,2.87-2.12,3.49,3.49,0,0,0,.16-1.1Z"/><path fill="#80a6de" d="M1665.85,487.92c0,1.17,0,2.21.09,3.1h-1.83l-.12-1.85h0a4.29,4.29,0,0,1-3.76,2.11c-1.78,0-3.92-1-3.92-5v-6.65h2.06v6.29c0,2.17.66,3.62,2.54,3.62a3,3,0,0,0,2.73-1.88,2.93,2.93,0,0,0,.19-1.05v-7h2.07Z"/><path fill="#80a6de" d="M1670,479.65l2.49,6.72c.26.75.54,1.64.73,2.32h0c.21-.68.45-1.55.73-2.37l2.26-6.67h2.18l-3.1,8.1c-1.48,3.91-2.49,5.9-3.9,7.13a5.69,5.69,0,0,1-2.54,1.34l-.52-1.74a5.66,5.66,0,0,0,1.81-1,6.25,6.25,0,0,0,1.74-2.31,1.35,1.35,0,0,0,.17-.49,1.92,1.92,0,0,0-.14-.54l-4.21-10.48Z"/><path fill="#80a6de" d="M1689.93,479.65c0,.82-.1,1.73-.1,3.12v6.61c0,2.61-.51,4.2-1.62,5.19a6,6,0,0,1-4.14,1.36,7.26,7.26,0,0,1-3.78-.94l.52-1.57a6.38,6.38,0,0,0,3.33.89c2.12,0,3.67-1.1,3.67-4v-1.27h0a4,4,0,0,1-3.62,1.9c-2.82,0-4.84-2.39-4.84-5.54,0-3.86,2.52-6,5.13-6a3.8,3.8,0,0,1,3.55,2h0l.1-1.71Zm-2.14,4.48a3.1,3.1,0,0,0-.12-.94,3,3,0,0,0-2.89-2.18c-2,0-3.39,1.67-3.39,4.3,0,2.23,1.13,4.09,3.37,4.09a3,3,0,0,0,2.86-2.12,3.5,3.5,0,0,0,.17-1.1Z"/><path fill="#80a6de" d="M1694.07,479.65l2.23,6.39a26.78,26.78,0,0,1,.92,2.91h.07c.26-.94.59-1.88,1-2.91l2.21-6.39h2.17L1698.16,491h-2l-4.33-11.37Z"/><path fill="#80a6de" d="M1704.58,474.33h2.07v7.1h0a3.92,3.92,0,0,1,1.48-1.46,4.28,4.28,0,0,1,2.12-.58c1.52,0,4,.94,4,4.86V491h-2.07v-6.53c0-1.84-.68-3.39-2.63-3.39a3,3,0,0,0-2.78,2.07,2.66,2.66,0,0,0-.14,1V491h-2.07Z"/><path fill="#80a6de" d="M1718.13,479.65l2.23,6.39a29.18,29.18,0,0,1,.92,2.91h.07c.26-.94.59-1.88,1-2.91l2.21-6.39h2.16L1722.22,491h-2l-4.32-11.37Z"/><path fill="#80a6de" d="M1728.64,474.33h2.07V491h-2.07Z"/><path fill="#80a6de" d="M1749,479.65c0,.82-.1,1.73-.1,3.12v6.61c0,2.61-.51,4.2-1.62,5.19a6,6,0,0,1-4.13,1.36,7.27,7.27,0,0,1-3.79-.94l.52-1.57a6.42,6.42,0,0,0,3.34.89c2.11,0,3.66-1.1,3.66-4v-1.27h0a4.06,4.06,0,0,1-3.62,1.9c-2.82,0-4.85-2.39-4.85-5.54,0-3.86,2.52-6,5.13-6a3.8,3.8,0,0,1,3.55,2h0l.09-1.71Zm-2.14,4.48a2.82,2.82,0,0,0-.12-.94,3,3,0,0,0-2.89-2.18c-2,0-3.38,1.67-3.38,4.3,0,2.23,1.12,4.09,3.36,4.09a3,3,0,0,0,2.87-2.12,3.8,3.8,0,0,0,.16-1.1Z"/><path fill="#80a6de" d="M1752.32,474.33h2.07v7.1h0a3.85,3.85,0,0,1,1.48-1.46,4.27,4.27,0,0,1,2.11-.58c1.53,0,4,.94,4,4.86V491h-2.07v-6.53c0-1.84-.68-3.39-2.63-3.39a3,3,0,0,0-2.78,2.07,2.47,2.47,0,0,0-.14,1V491h-2.07Z"/><path fill="#80a6de" d="M1765.87,479.65l2.23,6.39A29.18,29.18,0,0,1,1769,489h.07c.26-.94.59-1.88,1-2.91l2.21-6.39h2.17L1770,491h-2l-4.32-11.37Z"/><path fill="#80a6de" d="M1776.38,474.33h2.07V491h-2.07Z"/><path fill="#80a6de" d="M1791.45,487.92c0,1.17,0,2.21.09,3.1h-1.83l-.12-1.85h0a4.29,4.29,0,0,1-3.76,2.11c-1.79,0-3.93-1-3.93-5v-6.65h2.07v6.29c0,2.17.66,3.62,2.54,3.62a3,3,0,0,0,2.72-1.88,2.93,2.93,0,0,0,.19-1.05v-7h2.07Z"/><path fill="#80a6de" d="M1797.19,476.45a1.22,1.22,0,0,1-1.31,1.27,1.24,1.24,0,0,1-1.25-1.27,1.26,1.26,0,0,1,1.29-1.29A1.22,1.22,0,0,1,1797.19,476.45Zm-2.3,14.57V479.65H1797V491Z"/><path fill="#80a6de" d="M1810.19,479.65c0,.82-.09,1.73-.09,3.12v6.61c0,2.61-.52,4.2-1.62,5.19a6,6,0,0,1-4.14,1.36,7.23,7.23,0,0,1-3.78-.94l.51-1.57a6.45,6.45,0,0,0,3.34.89c2.12,0,3.67-1.1,3.67-4v-1.27h0a4.05,4.05,0,0,1-3.62,1.9c-2.82,0-4.84-2.39-4.84-5.54,0-3.86,2.52-6,5.12-6a3.77,3.77,0,0,1,3.55,2h0l.09-1.71Zm-2.14,4.48a3.11,3.11,0,0,0-.11-.94,3,3,0,0,0-2.89-2.18c-2,0-3.39,1.67-3.39,4.3,0,2.23,1.13,4.09,3.36,4.09a3,3,0,0,0,2.87-2.12,3.49,3.49,0,0,0,.16-1.1Z"/><path fill="#80a6de" d="M1814.29,479.65l2.49,6.72c.26.75.54,1.64.73,2.32h0c.21-.68.44-1.55.73-2.37l2.25-6.67h2.19l-3.1,8.1c-1.48,3.91-2.5,5.9-3.91,7.13a5.72,5.72,0,0,1-2.53,1.34l-.52-1.74a5.66,5.66,0,0,0,1.81-1,6.36,6.36,0,0,0,1.74-2.31,1.51,1.51,0,0,0,.16-.49,1.62,1.62,0,0,0-.14-.54L1812,479.65Z"/><path fill="#80a6de" d="M1826.92,476.45a1.28,1.28,0,0,1-2.56,0,1.26,1.26,0,0,1,1.29-1.29A1.23,1.23,0,0,1,1826.92,476.45Zm-2.3,14.57V479.65h2.06V491Z"/><path fill="#80a6de" d="M1830.12,474.33h2.07V491h-2.07Z"/><path fill="#80a6de" d="M1835.57,491c0-.77.1-1.93.1-2.94V474.33h2v7.15h0a4.23,4.23,0,0,1,3.88-2.09c2.82,0,4.82,2.35,4.79,5.8,0,4.07-2.56,6.09-5.1,6.09a4.06,4.06,0,0,1-3.81-2.14h-.07l-.09,1.88Zm2.14-4.56a3.57,3.57,0,0,0,.1.75,3.19,3.19,0,0,0,3.1,2.43c2.16,0,3.45-1.77,3.45-4.38,0-2.28-1.17-4.23-3.38-4.23a3.3,3.3,0,0,0-3.15,2.54,4,4,0,0,0-.12.85Z"/><path fill="#80a6de" d="M1849.05,474.33h2.07v7.1h.05a3.78,3.78,0,0,1,1.48-1.46,4.27,4.27,0,0,1,2.11-.58c1.53,0,4,.94,4,4.86V491h-2.07v-6.53c0-1.84-.68-3.39-2.63-3.39a3,3,0,0,0-2.77,2.07,2.47,2.47,0,0,0-.14,1V491h-2.07Z"/><path fill="#80a6de" d="M1862,491c0-.77.09-1.93.09-2.94V474.33h2.05v7.15h0a4.24,4.24,0,0,1,3.88-2.09c2.82,0,4.82,2.35,4.8,5.8,0,4.07-2.57,6.09-5.1,6.09a4,4,0,0,1-3.81-2.14h-.07l-.1,1.88Zm2.14-4.56a3.58,3.58,0,0,0,.09.75,3.19,3.19,0,0,0,3.1,2.43c2.17,0,3.46-1.77,3.46-4.38,0-2.28-1.18-4.23-3.39-4.23a3.31,3.31,0,0,0-3.15,2.54,4.76,4.76,0,0,0-.11.85Z"/><path fill="#80a6de" d="M1890,487.92c0,1.17,0,2.21.09,3.1h-1.83l-.12-1.85h-.05a4.29,4.29,0,0,1-3.76,2.11c-1.78,0-3.92-1-3.92-5v-6.65h2.07v6.29c0,2.17.65,3.62,2.53,3.62a3,3,0,0,0,2.73-1.88,2.93,2.93,0,0,0,.19-1.05v-7H1890Z"/><path fill="#80a6de" d="M1895.73,476.45a1.28,1.28,0,0,1-2.56,0,1.26,1.26,0,0,1,1.29-1.29A1.22,1.22,0,0,1,1895.73,476.45Zm-2.3,14.57V479.65h2.07V491Z"/><path fill="#80a6de" d="M1898.93,474.33H1901v7.1h0a3.92,3.92,0,0,1,1.48-1.46,4.31,4.31,0,0,1,2.12-.58c1.53,0,4,.94,4,4.86V491h-2.07v-6.53c0-1.84-.68-3.39-2.63-3.39a3,3,0,0,0-2.77,2.07,2.47,2.47,0,0,0-.14,1V491h-2.07Z"/><path fill="#80a6de" d="M1911.89,491c0-.77.09-1.93.09-2.94V474.33h2v7.15h0a4.24,4.24,0,0,1,3.88-2.09c2.82,0,4.82,2.35,4.8,5.8,0,4.07-2.57,6.09-5.1,6.09a4,4,0,0,1-3.81-2.14h-.07l-.1,1.88Zm2.14-4.56a3.58,3.58,0,0,0,.09.75,3.19,3.19,0,0,0,3.1,2.43c2.17,0,3.46-1.77,3.46-4.38,0-2.28-1.18-4.23-3.39-4.23a3.31,3.31,0,0,0-3.15,2.54,4.76,4.76,0,0,0-.11.85Z"/><path fill="#80a6de" d="M1925.36,474.33h2.07V491h-2.07Z"/><path fill="#80a6de" d="M1930.91,474.33H1933V491h-2.07Z"/><path fill="#80a6de" d="M1937.21,479.65l2.5,6.72c.25.75.54,1.64.72,2.32h0c.21-.68.45-1.55.73-2.37l2.26-6.67h2.18l-3.1,8.1c-1.48,3.91-2.49,5.9-3.9,7.13a5.69,5.69,0,0,1-2.54,1.34l-.52-1.74a5.66,5.66,0,0,0,1.81-1,6.25,6.25,0,0,0,1.74-2.31,1.35,1.35,0,0,0,.17-.49,1.92,1.92,0,0,0-.14-.54L1935,479.65Z"/><path fill="#80a6de" d="M1957.06,487.92c0,1.17,0,2.21.09,3.1h-1.83l-.12-1.85h0a4.28,4.28,0,0,1-3.76,2.11c-1.78,0-3.92-1-3.92-5v-6.65h2.07v6.29c0,2.17.66,3.62,2.54,3.62a3,3,0,0,0,2.72-1.88,2.93,2.93,0,0,0,.19-1.05v-7h2.07Z"/><path fill="#80a6de" d="M1961.3,479.65l2.23,6.39a29.18,29.18,0,0,1,.92,2.91h.07c.25-.94.58-1.88,1-2.91l2.21-6.39h2.16L1965.39,491h-2l-4.32-11.37Z"/><path fill="#80a6de" d="M1981.33,487.92c0,1.17,0,2.21.09,3.1h-1.83l-.12-1.85h0a4.28,4.28,0,0,1-3.76,2.11c-1.78,0-3.92-1-3.92-5v-6.65h2.07v6.29c0,2.17.66,3.62,2.54,3.62a3,3,0,0,0,2.72-1.88,2.93,2.93,0,0,0,.19-1.05v-7h2.07Z"/><path fill="#80a6de" d="M1410.52,519.6h-5.83l-.58,3.93a7.81,7.81,0,0,1,1.24-.09,6.38,6.38,0,0,1,3.29.82,4.35,4.35,0,0,1,2.19,3.92c0,3-2.38,5.22-5.69,5.22a7.49,7.49,0,0,1-3.81-.94l.52-1.57a6.91,6.91,0,0,0,3.27.84,3.37,3.37,0,0,0,3.62-3.31c0-2-1.34-3.39-4.4-3.39a15.61,15.61,0,0,0-2.11.17l1-7.34h7.31Z"/><path fill="#8ad2e1" d="M1598.42,526.26l10.91-5.62v1.62l-9.19,4.61v0l9.19,4.61v1.62l-10.91-5.61Z"/><path fill="#8ad2e1" d="M1613.4,521.77l2.24,6.39a29,29,0,0,1,.91,2.91h.07c.26-.94.59-1.88,1-2.91l2.21-6.39H1622l-4.47,11.37h-2l-4.33-11.37Z"/><path fill="#8ad2e1" d="M1623.82,533.14c0-.77.1-1.92.1-2.94V516.45h2v7.15h0a4.23,4.23,0,0,1,3.88-2.09c2.82,0,4.81,2.35,4.79,5.8,0,4.07-2.56,6.09-5.1,6.09a4,4,0,0,1-3.81-2.14h-.07l-.09,1.88Zm2.14-4.56a4.4,4.4,0,0,0,.09.75,3.2,3.2,0,0,0,3.11,2.43c2.16,0,3.45-1.77,3.45-4.38,0-2.28-1.17-4.23-3.38-4.23a3.3,3.3,0,0,0-3.15,2.54,4,4,0,0,0-.12.85Z"/><path fill="#8ad2e1" d="M1637.3,516.45h2.07v7.1h0a3.82,3.82,0,0,1,1.48-1.45,4.21,4.21,0,0,1,2.12-.59c1.53,0,4,.94,4,4.86v6.77h-2.07v-6.53c0-1.84-.68-3.39-2.63-3.39a3,3,0,0,0-2.77,2.07,2.47,2.47,0,0,0-.14,1v6.86h-2.07Z"/><path fill="#8ad2e1" d="M1659.87,530c0,1.18,0,2.21.09,3.1h-1.83l-.12-1.85h0a4.28,4.28,0,0,1-3.76,2.11c-1.78,0-3.92-1-3.92-5v-6.65h2.07v6.3c0,2.16.66,3.61,2.54,3.61a3,3,0,0,0,2.72-1.88,2.93,2.93,0,0,0,.19-1v-7h2.07Z"/><path fill="#8ad2e1" d="M1664.06,521.77l2.49,6.72c.26.75.54,1.64.73,2.33h0c.21-.69.44-1.56.73-2.38l2.25-6.67h2.19l-3.1,8.11c-1.49,3.9-2.5,5.89-3.91,7.12a5.72,5.72,0,0,1-2.53,1.34l-.52-1.74a5.66,5.66,0,0,0,1.81-1,6.36,6.36,0,0,0,1.74-2.31,1.51,1.51,0,0,0,.16-.49,1.62,1.62,0,0,0-.14-.54l-4.21-10.48Z"/><path fill="#8ad2e1" d="M1684,521.77c0,.82-.09,1.74-.09,3.12v6.61c0,2.61-.52,4.2-1.62,5.19a6,6,0,0,1-4.14,1.37,7.27,7.27,0,0,1-3.79-.95l.52-1.57a6.42,6.42,0,0,0,3.34.89c2.11,0,3.67-1.1,3.67-4v-1.27h0a4.07,4.07,0,0,1-3.62,1.91c-2.82,0-4.84-2.4-4.84-5.55,0-3.86,2.51-6,5.12-6a3.78,3.78,0,0,1,3.55,2h0l.09-1.71Zm-2.14,4.49a2.75,2.75,0,0,0-.12-.94,3,3,0,0,0-2.89-2.19c-2,0-3.38,1.67-3.38,4.3,0,2.23,1.13,4.09,3.36,4.09a3,3,0,0,0,2.87-2.11,3.92,3.92,0,0,0,.16-1.11Z"/><path fill="#8ad2e1" d="M1702.08,521.77c0,.82-.09,1.74-.09,3.12v6.61c0,2.61-.52,4.2-1.62,5.19a6,6,0,0,1-4.14,1.37,7.23,7.23,0,0,1-3.78-.95l.51-1.57a6.42,6.42,0,0,0,3.34.89c2.12,0,3.67-1.1,3.67-4v-1.27h0a4.06,4.06,0,0,1-3.62,1.91c-2.82,0-4.84-2.4-4.84-5.55,0-3.86,2.51-6,5.12-6a3.77,3.77,0,0,1,3.55,2h0l.09-1.71Zm-2.14,4.49a3,3,0,0,0-.11-.94,3,3,0,0,0-2.9-2.19c-2,0-3.38,1.67-3.38,4.3,0,2.23,1.13,4.09,3.36,4.09a3,3,0,0,0,2.87-2.11,3.59,3.59,0,0,0,.16-1.11Z"/><path fill="#8ad2e1" d="M1706.18,521.77l2.49,6.72c.26.75.54,1.64.73,2.33h0c.21-.69.44-1.56.72-2.38l2.26-6.67h2.19l-3.11,8.11c-1.48,3.9-2.49,5.89-3.9,7.12a5.69,5.69,0,0,1-2.54,1.34l-.51-1.74a5.77,5.77,0,0,0,1.81-1,6.36,6.36,0,0,0,1.74-2.31,1.51,1.51,0,0,0,.16-.49,1.92,1.92,0,0,0-.14-.54l-4.21-10.48Z"/><path fill="#8ad2e1" d="M1726.07,521.77c0,.82-.09,1.74-.09,3.12v6.61c0,2.61-.52,4.2-1.63,5.19a6,6,0,0,1-4.13,1.37,7.27,7.27,0,0,1-3.79-.95l.52-1.57a6.42,6.42,0,0,0,3.34.89c2.11,0,3.66-1.1,3.66-4v-1.27h0a4.07,4.07,0,0,1-3.62,1.91c-2.82,0-4.84-2.4-4.84-5.55,0-3.86,2.51-6,5.12-6a3.78,3.78,0,0,1,3.55,2h.05l.09-1.71Zm-2.14,4.49a2.75,2.75,0,0,0-.12-.94,3,3,0,0,0-2.89-2.19c-2,0-3.38,1.67-3.38,4.3,0,2.23,1.13,4.09,3.36,4.09a3,3,0,0,0,2.87-2.11,3.92,3.92,0,0,0,.16-1.11Z"/><path fill="#8ad2e1" d="M1731.58,518.57a1.29,1.29,0,0,1-2.57,0,1.26,1.26,0,0,1,1.3-1.29A1.23,1.23,0,0,1,1731.58,518.57Zm-2.31,14.57V521.77h2.07v11.37Z"/><path fill="#8ad2e1" d="M1744.3,530c0,1.18,0,2.21.09,3.1h-1.83l-.12-1.85h0a4.29,4.29,0,0,1-3.76,2.11c-1.78,0-3.92-1-3.92-5v-6.65h2.06v6.3c0,2.16.66,3.61,2.54,3.61a3,3,0,0,0,2.73-1.88,2.93,2.93,0,0,0,.19-1v-7h2.07Z"/><path fill="#8ad2e1" d="M1748.49,521.77l2.49,6.72c.26.75.54,1.64.73,2.33h0c.21-.69.45-1.56.73-2.38l2.26-6.67h2.18l-3.1,8.11c-1.48,3.9-2.49,5.89-3.9,7.12a5.69,5.69,0,0,1-2.54,1.34l-.52-1.74a5.8,5.8,0,0,0,1.82-1,6.35,6.35,0,0,0,1.73-2.31,1.35,1.35,0,0,0,.17-.49,1.92,1.92,0,0,0-.14-.54l-4.21-10.48Z"/><path fill="#8ad2e1" d="M1768.38,521.77c-.05.82-.1,1.74-.1,3.12v6.61c0,2.61-.51,4.2-1.62,5.19a6,6,0,0,1-4.13,1.37,7.27,7.27,0,0,1-3.79-.95l.52-1.57a6.42,6.42,0,0,0,3.34.89c2.11,0,3.66-1.1,3.66-4v-1.27h0a4.07,4.07,0,0,1-3.62,1.91c-2.82,0-4.85-2.4-4.85-5.55,0-3.86,2.52-6,5.13-6a3.8,3.8,0,0,1,3.55,2h0l.1-1.71Zm-2.14,4.49a2.75,2.75,0,0,0-.12-.94,3,3,0,0,0-2.89-2.19c-2,0-3.38,1.67-3.38,4.3,0,2.23,1.12,4.09,3.36,4.09a3,3,0,0,0,2.86-2.11,3.61,3.61,0,0,0,.17-1.11Z"/><path fill="#8ad2e1" d="M1776.61,533.14c.05-.77.1-1.92.1-2.94V516.45h2v7.15h0a4.23,4.23,0,0,1,3.88-2.09c2.82,0,4.82,2.35,4.79,5.8,0,4.07-2.56,6.09-5.1,6.09a4.06,4.06,0,0,1-3.81-2.14h-.07l-.09,1.88Zm2.14-4.56a3.57,3.57,0,0,0,.1.75,3.19,3.19,0,0,0,3.1,2.43c2.16,0,3.45-1.77,3.45-4.38,0-2.28-1.17-4.23-3.38-4.23a3.3,3.3,0,0,0-3.15,2.54,4,4,0,0,0-.12.85Z"/><path fill="#8ad2e1" d="M1800.83,527.55l-10.91,5.59v-1.62l9.27-4.61v0l-9.27-4.61v-1.62l10.91,5.59Z"/><path fill="#80a6de" d="M1410.12,561.44a7.36,7.36,0,0,0-1.55.1,6.2,6.2,0,0,0-5.31,5.43h.07a4.54,4.54,0,0,1,3.69-1.77c2.7,0,4.61,1.95,4.61,4.94a5.11,5.11,0,0,1-5.08,5.38c-3.27,0-5.41-2.54-5.41-6.51a9.64,9.64,0,0,1,2.59-6.89,8.31,8.31,0,0,1,4.89-2.25,9.24,9.24,0,0,1,1.5-.12Zm-.58,8.82c0-2.19-1.25-3.51-3.15-3.51a3.43,3.43,0,0,0-3,1.88,1.81,1.81,0,0,0-.23.92c0,2.52,1.2,4.37,3.36,4.37C1408.34,573.92,1409.54,572.44,1409.54,570.26Z"/><path fill="#8ad2e1" d="M1713.09,568.38l10.91-5.62v1.62l-9.19,4.61v0l9.19,4.61v1.62l-10.91-5.61Z"/><path fill="#8ad2e1" d="M1727.18,575.26c0-.77.09-1.92.09-2.93V558.58h2v7.14h0a4.24,4.24,0,0,1,3.88-2.09c2.82,0,4.82,2.35,4.8,5.8,0,4.07-2.57,6.09-5.1,6.09a4,4,0,0,1-3.81-2.14h-.07l-.1,1.88Zm2.14-4.56a3.76,3.76,0,0,0,.09.76,3.2,3.2,0,0,0,3.1,2.42c2.17,0,3.46-1.77,3.46-4.38,0-2.28-1.18-4.23-3.39-4.23a3.31,3.31,0,0,0-3.15,2.54,4.76,4.76,0,0,0-.11.85Z"/><path fill="#8ad2e1" d="M1737.88,578.55a3.37,3.37,0,0,0,2.26-.87c.56-.65.77-1.55.77-4.27v-9.52H1743v10.32c0,2.21-.35,3.64-1.36,4.67a5.27,5.27,0,0,1-3.53,1.3Zm5.33-17.86a1.21,1.21,0,0,1-1.29,1.27,1.24,1.24,0,0,1-1.27-1.27,1.26,1.26,0,0,1,1.32-1.29A1.22,1.22,0,0,1,1743.21,560.69Z"/><path fill="#8ad2e1" d="M1748.67,560.69a1.28,1.28,0,0,1-2.56,0,1.26,1.26,0,0,1,1.29-1.29A1.22,1.22,0,0,1,1748.67,560.69Zm-2.3,14.57V563.89h2.07v11.37Z"/><path fill="#8ad2e1" d="M1749.1,578.55a3.32,3.32,0,0,0,2.25-.87c.57-.65.78-1.55.78-4.27v-9.52h2.07v10.32c0,2.21-.36,3.64-1.37,4.67a5.22,5.22,0,0,1-3.52,1.3Zm5.33-17.86a1.21,1.21,0,0,1-1.29,1.27,1.23,1.23,0,0,1-1.27-1.27,1.26,1.26,0,0,1,1.32-1.29A1.22,1.22,0,0,1,1754.43,560.69Z"/><path fill="#8ad2e1" d="M1757.49,575.26c0-.77.09-1.92.09-2.93V558.58h2.05v7.14h0a4.23,4.23,0,0,1,3.88-2.09c2.82,0,4.81,2.35,4.79,5.8,0,4.07-2.56,6.09-5.1,6.09a4,4,0,0,1-3.81-2.14h-.07l-.09,1.88Zm2.14-4.56a4.65,4.65,0,0,0,.09.76,3.2,3.2,0,0,0,3.11,2.42c2.16,0,3.45-1.77,3.45-4.38,0-2.28-1.17-4.23-3.38-4.23a3.3,3.3,0,0,0-3.15,2.54,4,4,0,0,0-.12.85Z"/><path fill="#8ad2e1" d="M1771,558.58H1773v16.68H1771Z"/><path fill="#8ad2e1" d="M1775.2,578.15a33.56,33.56,0,0,0,1.41-5.61l2.28-.24a29.43,29.43,0,0,1-2.26,5.71Zm1-12.38a1.39,1.39,0,0,1,1.39-1.48,1.47,1.47,0,0,1,0,2.93A1.37,1.37,0,0,1,1776.21,565.77Z"/><path fill="#8ad2e1" d="M1778.61,578.55a3.37,3.37,0,0,0,2.26-.87c.56-.65.77-1.55.77-4.27v-9.52h2.07v10.32c0,2.21-.35,3.64-1.36,4.67a5.25,5.25,0,0,1-3.53,1.3Zm5.34-17.86a1.22,1.22,0,0,1-1.3,1.27,1.24,1.24,0,0,1-1.27-1.27,1.26,1.26,0,0,1,1.32-1.29A1.22,1.22,0,0,1,1784,560.69Z"/><path fill="#8ad2e1" d="M1787.1,567c0-1.18,0-2.14-.1-3.08h1.84l.11,1.88h0a4.19,4.19,0,0,1,3.76-2.14c1.58,0,4,.94,4,4.84v6.79h-2.07v-6.55c0-1.84-.68-3.37-2.63-3.37a2.94,2.94,0,0,0-2.77,2.12,2.81,2.81,0,0,0-.14,1v6.84h-2.07Z"/><path fill="#8ad2e1" d="M1798.83,578.15a32.61,32.61,0,0,0,1.41-5.61l2.28-.24a29.48,29.48,0,0,1-2.25,5.71Zm1-12.38a1.38,1.38,0,0,1,1.38-1.48,1.47,1.47,0,1,1-1.38,1.48Z"/><path fill="#8ad2e1" d="M1819.83,558.58v13.75c0,1,0,2.16.09,2.93h-1.85l-.1-2h0a4.22,4.22,0,0,1-3.88,2.23c-2.75,0-4.87-2.33-4.87-5.78,0-3.79,2.33-6.11,5.1-6.11a3.78,3.78,0,0,1,3.43,1.74h0v-6.79Zm-2.07,9.94a3.68,3.68,0,0,0-.09-.87,3.05,3.05,0,0,0-3-2.4c-2.14,0-3.41,1.88-3.41,4.4,0,2.3,1.13,4.2,3.36,4.2a3.11,3.11,0,0,0,3-2.47,3.58,3.58,0,0,0,.09-.89Z"/><path fill="#8ad2e1" d="M1823.48,575.26v-9.8h-1.6v-1.57h1.6v-.54a5.36,5.36,0,0,1,1.32-4,3.93,3.93,0,0,1,2.77-1,4.66,4.66,0,0,1,1.76.33l-.28,1.59a3.13,3.13,0,0,0-1.32-.26c-1.76,0-2.21,1.56-2.21,3.3v.61h2.75v1.57h-2.75v9.8Z"/><path fill="#8ad2e1" d="M1830.13,558.58h2.07v7.09h0a3.89,3.89,0,0,1,1.48-1.45,4.19,4.19,0,0,1,2.12-.59c1.52,0,4,.94,4,4.86v6.77h-2.07v-6.53c0-1.83-.68-3.39-2.63-3.39a3,3,0,0,0-2.78,2.07,2.66,2.66,0,0,0-.14,1v6.86h-2.07Z"/><path fill="#8ad2e1" d="M1848.17,558.58h2.07v7.09h0a3.82,3.82,0,0,1,1.48-1.45,4.18,4.18,0,0,1,2.11-.59c1.53,0,4,.94,4,4.86v6.77h-2.07v-6.53c0-1.83-.68-3.39-2.64-3.39a3,3,0,0,0-2.77,2.07,2.47,2.47,0,0,0-.14,1v6.86h-2.07Z"/><path fill="#8ad2e1" d="M1863.44,578.55a3.32,3.32,0,0,0,2.25-.87c.57-.65.78-1.55.78-4.27v-9.52h2.07v10.32c0,2.21-.36,3.64-1.37,4.67a5.22,5.22,0,0,1-3.52,1.3Zm5.33-17.86a1.22,1.22,0,0,1-1.29,1.27,1.23,1.23,0,0,1-1.27-1.27,1.26,1.26,0,0,1,1.32-1.29A1.22,1.22,0,0,1,1868.77,560.69Z"/><path fill="#8ad2e1" d="M1874.42,560.62v3.27h3v1.57h-3v6.14c0,1.41.4,2.21,1.55,2.21a4.57,4.57,0,0,0,1.2-.15l.09,1.56a5.15,5.15,0,0,1-1.83.28,2.9,2.9,0,0,1-2.24-.87,4.25,4.25,0,0,1-.8-3v-6.21h-1.76v-1.57h1.76v-2.73Z"/><path fill="#8ad2e1" d="M1884.69,567.44c0-1.34,0-2.5-.09-3.55h1.81l.07,2.23h.09a3.42,3.42,0,0,1,3.15-2.49,2.12,2.12,0,0,1,.59.07v1.95a2.85,2.85,0,0,0-3.48,2.59,6.68,6.68,0,0,0-.09,1v6.06h-2Z"/><path fill="#8ad2e1" d="M1889.61,578.55a3.37,3.37,0,0,0,2.26-.87c.56-.65.77-1.55.77-4.27v-9.52h2.07v10.32c0,2.21-.35,3.64-1.36,4.67a5.25,5.25,0,0,1-3.53,1.3Zm5.34-17.86a1.22,1.22,0,0,1-1.3,1.27,1.24,1.24,0,0,1-1.27-1.27,1.27,1.27,0,0,1,1.32-1.29A1.22,1.22,0,0,1,1895,560.69Z"/><path fill="#8ad2e1" d="M1898.1,558.58h2.07v7.09h0a3.85,3.85,0,0,1,1.49-1.45,4.18,4.18,0,0,1,2.11-.59c1.53,0,4,.94,4,4.86v6.77h-2.07v-6.53c0-1.83-.68-3.39-2.63-3.39a3,3,0,0,0-2.77,2.07,2.47,2.47,0,0,0-.14,1v6.86h-2.07Z"/><path fill="#8ad2e1" d="M1926.88,569.67,1916,575.26v-1.62l9.26-4.61v0l-9.26-4.61v-1.62l10.91,5.59Z"/><path fill="#80a6de" d="M1411.32,602.11v1.36l-6.65,13.91h-2.14l6.63-13.51v0h-7.48v-1.71Z"/><path fill="#80a6de" d="M1713.09,610.5l10.91-5.62v1.62l-9.19,4.61v0l9.19,4.6v1.62l-10.91-5.61Z"/><path fill="#80a6de" d="M1737.07,606c0,.82-.09,1.74-.09,3.12v6.61c0,2.61-.52,4.21-1.62,5.19a6,6,0,0,1-4.14,1.37,7.33,7.33,0,0,1-3.78-.94l.51-1.58a6.42,6.42,0,0,0,3.34.89c2.12,0,3.67-1.1,3.67-4v-1.27h0a4.06,4.06,0,0,1-3.62,1.91c-2.82,0-4.84-2.4-4.84-5.55,0-3.86,2.51-6,5.12-6a3.77,3.77,0,0,1,3.55,2h.05l.09-1.71Zm-2.14,4.49a3,3,0,0,0-.11-.94,3,3,0,0,0-2.9-2.19c-2,0-3.38,1.67-3.38,4.3,0,2.24,1.13,4.09,3.36,4.09a3,3,0,0,0,2.87-2.11,3.59,3.59,0,0,0,.16-1.11Z"/><path fill="#80a6de" d="M1740.72,617.38v-9.8h-1.6V606h1.6v-.61c0-3,1.77-5,5-5a5.69,5.69,0,0,1,2.89.75l-.58,1.57a4.4,4.4,0,0,0-2.4-.65c-2.19,0-2.82,1.52-2.82,3.33V606h6.6v10.32c0,2.21-.35,3.64-1.36,4.67a5.2,5.2,0,0,1-3.53,1.3l-.21-1.63a3.26,3.26,0,0,0,2.26-.87c.56-.65.8-1.55.8-4.27v-7.95h-4.56v9.8Z"/><path fill="#80a6de" d="M1755.09,602.81a1.28,1.28,0,0,1-2.56,0,1.26,1.26,0,0,1,1.29-1.29A1.22,1.22,0,0,1,1755.09,602.81Zm-2.3,14.57V606h2.07v11.37Z"/><path fill="#80a6de" d="M1768.58,611.6c0,4.21-2.91,6-5.66,6-3.08,0-5.45-2.25-5.45-5.85,0-3.81,2.49-6,5.64-6S1768.58,608.12,1768.58,611.6Zm-9,.12c0,2.49,1.43,4.37,3.45,4.37s3.46-1.86,3.46-4.42c0-1.93-1-4.37-3.41-4.37S1759.56,609.56,1759.56,611.72Z"/><path fill="#80a6de" d="M1776.19,609.09c0-1.18,0-2.14-.1-3.08h1.84l.11,1.88h0a4.18,4.18,0,0,1,3.76-2.14c1.58,0,4,.94,4,4.84v6.79h-2.07v-6.55c0-1.84-.68-3.36-2.63-3.36a2.93,2.93,0,0,0-2.77,2.11,2.81,2.81,0,0,0-.14,1v6.84h-2.07Z"/><path fill="#80a6de" d="M1789.45,617.38v-9.8h-1.6V606h1.6v-.54a5.36,5.36,0,0,1,1.32-4,4,4,0,0,1,2.77-1,4.66,4.66,0,0,1,1.76.33l-.28,1.59a3.15,3.15,0,0,0-1.32-.25c-1.76,0-2.21,1.55-2.21,3.29V606h2.76v1.57h-2.76v9.8Z"/><path fill="#80a6de" d="M1796.11,600.7h2.06v7.09h0a3.89,3.89,0,0,1,1.48-1.45,4.19,4.19,0,0,1,2.12-.59c1.52,0,4,.94,4,4.86v6.77h-2.07v-6.53c0-1.83-.68-3.38-2.63-3.38a3,3,0,0,0-2.78,2.06,2.69,2.69,0,0,0-.14,1v6.86h-2.06Z"/><path fill="#80a6de" d="M1819,600.7v13.75c0,1,0,2.16.1,2.93h-1.86l-.09-2h-.05a4.21,4.21,0,0,1-3.88,2.23c-2.75,0-4.86-2.32-4.86-5.78,0-3.78,2.32-6.11,5.1-6.11a3.8,3.8,0,0,1,3.43,1.74h0V600.7Zm-2.07,9.94a3.68,3.68,0,0,0-.09-.87,3,3,0,0,0-3-2.4c-2.14,0-3.41,1.88-3.41,4.4,0,2.3,1.13,4.2,3.36,4.2a3.1,3.1,0,0,0,3-2.46,3.71,3.71,0,0,0,.09-.9Z"/><path fill="#80a6de" d="M1823.17,606l2.5,6.72c.25.75.54,1.65.72,2.33h0c.21-.68.45-1.55.73-2.38l2.26-6.67h2.18l-3.1,8.11c-1.48,3.9-2.49,5.9-3.9,7.12a5.69,5.69,0,0,1-2.54,1.34l-.52-1.74a5.48,5.48,0,0,0,1.81-1,6.25,6.25,0,0,0,1.74-2.31,1.58,1.58,0,0,0,.17-.49,1.71,1.71,0,0,0-.15-.54l-4.2-10.48Z"/><path fill="#80a6de" d="M1830.73,620.67a3.28,3.28,0,0,0,2.25-.87c.57-.65.78-1.55.78-4.27V606h2.07v10.32c0,2.21-.36,3.64-1.37,4.67a5.22,5.22,0,0,1-3.52,1.3Zm5.33-17.86a1.22,1.22,0,0,1-1.29,1.27,1.23,1.23,0,0,1-1.27-1.27,1.26,1.26,0,0,1,1.32-1.29A1.22,1.22,0,0,1,1836.06,602.81Z"/><path fill="#80a6de" d="M1849,606c0,.82-.1,1.74-.1,3.12v6.61c0,2.61-.52,4.21-1.62,5.19a6,6,0,0,1-4.14,1.37,7.33,7.33,0,0,1-3.78-.94l.51-1.58a6.45,6.45,0,0,0,3.34.89c2.12,0,3.67-1.1,3.67-4v-1.27h-.05a4,4,0,0,1-3.62,1.91c-2.82,0-4.84-2.4-4.84-5.55,0-3.86,2.52-6,5.12-6a3.77,3.77,0,0,1,3.55,2h0l.09-1.71Zm-2.14,4.49a3,3,0,0,0-.12-.94,3,3,0,0,0-2.89-2.19c-2,0-3.39,1.67-3.39,4.3,0,2.24,1.13,4.09,3.36,4.09a3,3,0,0,0,2.87-2.11,3.61,3.61,0,0,0,.17-1.11Z"/><path fill="#80a6de" d="M1852.26,617.38c0-.77.1-1.92.1-2.93V600.7h2v7.14h0a4.24,4.24,0,0,1,3.88-2.09c2.82,0,4.82,2.35,4.79,5.81,0,4.06-2.56,6.08-5.1,6.08a4,4,0,0,1-3.8-2.14h-.07l-.1,1.88Zm2.14-4.56a3.76,3.76,0,0,0,.1.76,3.2,3.2,0,0,0,3.1,2.42c2.16,0,3.46-1.77,3.46-4.38,0-2.27-1.18-4.23-3.39-4.23a3.3,3.3,0,0,0-3.15,2.54,4,4,0,0,0-.12.85Z"/><path fill="#80a6de" d="M1870.94,617.38v-9.8h-1.6V606h1.6v-.54a5.4,5.4,0,0,1,1.31-4,4,4,0,0,1,2.78-1,4.71,4.71,0,0,1,1.76.33l-.28,1.59a3.15,3.15,0,0,0-1.32-.25c-1.76,0-2.21,1.55-2.21,3.29V606h2.75v1.57H1873v9.8Z"/><path fill="#80a6de" d="M1877.5,617.38c0-.77.09-1.92.09-2.93V600.7h2.05v7.14h0a4.24,4.24,0,0,1,3.88-2.09c2.82,0,4.82,2.35,4.8,5.81,0,4.06-2.57,6.08-5.1,6.08a4,4,0,0,1-3.81-2.14h-.07l-.1,1.88Zm2.14-4.56a3.76,3.76,0,0,0,.09.76,3.2,3.2,0,0,0,3.1,2.42c2.17,0,3.46-1.77,3.46-4.38,0-2.27-1.18-4.23-3.39-4.23a3.31,3.31,0,0,0-3.15,2.54,4.76,4.76,0,0,0-.11.85Z"/><path fill="#80a6de" d="M1900.8,600.7v13.75c0,1,0,2.16.09,2.93H1899l-.1-2h0a4.22,4.22,0,0,1-3.88,2.23c-2.75,0-4.87-2.32-4.87-5.78,0-3.78,2.33-6.11,5.1-6.11a3.78,3.78,0,0,1,3.43,1.74h0V600.7Zm-2.07,9.94a3.68,3.68,0,0,0-.09-.87,3.05,3.05,0,0,0-3-2.4c-2.14,0-3.41,1.88-3.41,4.4,0,2.3,1.13,4.2,3.36,4.2a3.11,3.11,0,0,0,3-2.46,3.71,3.71,0,0,0,.09-.9Z"/><path fill="#80a6de" d="M1914,606c0,.82-.1,1.74-.1,3.12v6.61c0,2.61-.51,4.21-1.62,5.19a6,6,0,0,1-4.13,1.37,7.37,7.37,0,0,1-3.79-.94l.52-1.58a6.42,6.42,0,0,0,3.34.89c2.11,0,3.66-1.1,3.66-4v-1.27h0a4.07,4.07,0,0,1-3.62,1.91c-2.82,0-4.85-2.4-4.85-5.55,0-3.86,2.52-6,5.13-6a3.8,3.8,0,0,1,3.55,2h.05l.09-1.71Zm-2.14,4.49a2.75,2.75,0,0,0-.12-.94,3,3,0,0,0-2.89-2.19c-2,0-3.38,1.67-3.38,4.3,0,2.24,1.13,4.09,3.36,4.09a3,3,0,0,0,2.87-2.11,3.92,3.92,0,0,0,.16-1.11Z"/><path fill="#80a6de" d="M1918.18,606l2.24,6.39a29.17,29.17,0,0,1,.91,2.92h.07c.26-.94.59-1.89,1-2.92l2.21-6.39h2.16l-4.47,11.37h-2L1916,606Z"/><path fill="#80a6de" d="M1929.73,606l2.49,6.72c.26.75.54,1.65.73,2.33h0c.21-.68.44-1.55.73-2.38L1936,606h2.19l-3.1,8.11c-1.49,3.9-2.5,5.9-3.91,7.12a5.72,5.72,0,0,1-2.53,1.34l-.52-1.74a5.48,5.48,0,0,0,1.81-1,6.36,6.36,0,0,0,1.74-2.31,1.51,1.51,0,0,0,.16-.49,1.92,1.92,0,0,0-.14-.54L1927.47,606Z"/><path fill="#80a6de" d="M1941.16,606l1.5,5.78c.33,1.27.64,2.44.85,3.62h.07c.26-1.15.63-2.37,1-3.6l1.86-5.8h1.74l1.76,5.69c.42,1.36.75,2.56,1,3.71h.07a33.86,33.86,0,0,1,.87-3.69l1.62-5.71h2l-3.67,11.37H1950l-1.74-5.43a36.43,36.43,0,0,1-1-3.73h0a33.19,33.19,0,0,1-1,3.76l-1.83,5.4h-1.89L1939,606Z"/><path fill="#80a6de" d="M1957.65,600.7h2.06v16.68h-2.06Z"/><path fill="#80a6de" d="M1963.19,609.09c0-1.18,0-2.14-.09-3.08h1.83l.12,1.88h0a4.18,4.18,0,0,1,3.76-2.14c1.57,0,4,.94,4,4.84v6.79h-2.07v-6.55c0-1.84-.68-3.36-2.63-3.36a2.94,2.94,0,0,0-2.78,2.11,3.08,3.08,0,0,0-.14,1v6.84h-2.07Z"/><path fill="#80a6de" d="M1976.74,606l2.23,6.39a26.92,26.92,0,0,1,.92,2.92h.07c.26-.94.59-1.89,1-2.92l2.21-6.39h2.17l-4.47,11.37h-2L1974.53,606Z"/><path fill="#80a6de" d="M1987.25,600.7h2.07v7.09h0a3.82,3.82,0,0,1,1.48-1.45,4.18,4.18,0,0,1,2.11-.59c1.53,0,4,.94,4,4.86v6.77h-2.07v-6.53c0-1.83-.68-3.38-2.63-3.38a3,3,0,0,0-2.78,2.06,2.5,2.5,0,0,0-.14,1v6.86h-2.07Z"/><path fill="#80a6de" d="M2000.8,606l2.23,6.39a29.33,29.33,0,0,1,.92,2.92h.07c.26-.94.59-1.89,1-2.92l2.21-6.39h2.17l-4.47,11.37h-2L1998.59,606Z"/><path fill="#80a6de" d="M2012.35,606l2.49,6.72c.26.75.54,1.65.73,2.33h0c.21-.68.45-1.55.73-2.38l2.26-6.67h2.18l-3.1,8.11c-1.48,3.9-2.49,5.9-3.9,7.12a5.69,5.69,0,0,1-2.54,1.34l-.52-1.74a5.48,5.48,0,0,0,1.81-1,6.25,6.25,0,0,0,1.74-2.31,1.35,1.35,0,0,0,.17-.49,1.92,1.92,0,0,0-.14-.54L2010.09,606Z"/><path fill="#80a6de" d="M2033.41,611.79l-10.9,5.59v-1.62l9.26-4.6v0l-9.26-4.61v-1.62l10.9,5.59Z"/><path fill="#80a6de" d="M2037.49,606l2.23,6.39c.37,1,.68,2,.92,2.92h.07c.25-.94.58-1.89,1-2.92l2.21-6.39H2046l-4.46,11.37h-2L2035.28,606Z"/><path fill="#80a6de" d="M1401.21,655.63a4.37,4.37,0,0,1,3-4.09l0-.07a3.79,3.79,0,0,1-2.42-3.44c0-2.42,2-4.06,4.73-4.06,3,0,4.44,1.86,4.44,3.76a3.88,3.88,0,0,1-2.52,3.57v.07c1.91.75,3.08,2.09,3.08,4,0,2.66-2.28,4.44-5.19,4.44C1403.14,659.76,1401.21,657.86,1401.21,655.63Zm8.23-.1c0-1.86-1.29-2.75-3.36-3.34-1.79.52-2.75,1.7-2.75,3.15a2.82,2.82,0,0,0,3.06,2.92A2.76,2.76,0,0,0,1409.44,655.53Zm-5.69-7.64c0,1.53,1.15,2.35,2.92,2.82a3,3,0,0,0,2.32-2.77,2.37,2.37,0,0,0-2.58-2.49A2.43,2.43,0,0,0,1403.75,647.89Z"/><path fill="#80a6de" d="M1402.6,700.17a8.44,8.44,0,0,0,1.67-.07,5.82,5.82,0,0,0,3.2-1.48,6.72,6.72,0,0,0,2-4.07h-.07a4.51,4.51,0,0,1-3.6,1.65,4.42,4.42,0,0,1-4.51-4.68,5.24,5.24,0,0,1,5.22-5.43c3.12,0,5,2.54,5,6.44a9.68,9.68,0,0,1-2.63,7.17,7.61,7.61,0,0,1-4.44,2,9.85,9.85,0,0,1-1.91.12Zm.75-8.79a2.94,2.94,0,0,0,2.94,3.24,3.41,3.41,0,0,0,3-1.6,1.32,1.32,0,0,0,.19-.75c0-2.61-1-4.61-3.13-4.61C1404.6,687.66,1403.35,689.22,1403.35,691.38Z"/><path fill="#1e3369" d="M2032.14,1154.18l62.84,53.47,65.32,647.08h18.19l-72.57-718.62H1842.7L1784,1854.67l18.13.11L1854.14,1218l54.34-63.86Zm60.52,30.51-35.86-30.51h32.78Zm-236.29,6.06,3-36.57h28.13Z"/><path fill="#121f3f" d="M2019.63,1154.18l62.84,53.47,65.32,647.08H2166l-72.57-718.62H1830.19l-58.74,718.56,18.13.11L1841.63,1218l54.34-63.86Zm60.52,30.51-35.86-30.51h32.78Zm-236.29,6.06,3-36.57H1875Z"/><polygon fill="#1e3369" points="1071.6 1854.73 1054.83 1854.73 1111.03 1336.3 1299.77 1335.54 1354.33 1854.77 1337.61 1854.77 1284.76 1352.28 1126 1352.91 1071.6 1854.73"/><path fill="#121f3f" d="M1285.87,1335.54l-188.74.75-56.2,518.44h16.77l46-424.77,60.74-77.25,106.37-.43,52.85,502.49h16.72Zm-179.36,69,5.59-51.59,34.48-.13Z"/><polygon fill="#1e3369" points="1103.57 1430.78 1117.82 1430.78 1181.06 1352.6 1164.04 1352.6 1103.57 1430.78"/><path fill="#2b407a" d="M1053.39,809H993.51A56.12,56.12,0,0,0,939,878.46l100.3,410.87a64.55,64.55,0,0,0,62.72,49.25h474.68s-20.85-125.09-20.85-131.34S1053.39,809,1053.39,809Z"/><path fill="#dde6ef" d="M1355.5,1763c-2.78,8.34-20.85,78.53-12.51,87.57s82.59,6.54,91.62,5.85,38.35-11.41,39.74-21.84-27.11-63.24-27.11-82.7S1355.5,1763,1355.5,1763Z"/><path fill="#ff845e" d="M1621,1713.64a66.3,66.3,0,0,0,10.42,43.09l-16.68,37.53-43.08,4.87h-47.26l-2.78-17.38s1.39-18.07,2.78-20.15,43.09-59.08,43.09-59.08Z"/><path fill="#121f3f" d="M1438.44,1258.66l106.56,4.63c-4.63,7.41,0,11.12,0,11.12-9.26,25-59.3,500.39-59.3,500.39s63,1.86,74.13-7.41,25-36.14,32.43-38.92,41.7-9.27,41.7-9.27v-26.87l-14.82-11.12,18.53-23.17s79.69-377.14,88-416.06,15.75-56.53,4.63-66.72-137.14-49.11-137.14-49.11l-184.4-2.78-76.92-.93Z"/><path d="M1535.51,1728.93c3.47-2.08,50-20.15,61.85-26.41s-16-3.47-27.8-4.86,29.89-29.89,33.36-33.36-65.33,11.81-74.36,11.81,20.15-174.44,29.88-212,38.92-169.57,46.57-186.25-2.78-8.34-6.26-19.46,27.1-22.94-10.42-22.24-141.09-40.31-157.77-101.47l-49.1-11.68-49.59-.6,106.57,136.22,106.56,4.63c-4.63,7.41,0,11.12,0,11.12-9.26,25-59.3,500.39-59.3,500.39s63,1.86,74.13-7.41a64.85,64.85,0,0,0,9.05-10c-12.87-1.61-50.75-4.1-50.75-4.1S1532,1731,1535.51,1728.93Z" style="mix-blend-mode:multiply" fill="#ccc"/><path fill="#121f3f" d="M1073.34,1128.46s-16.68,139,44.48,158.46,165.41,13.9,165.41,13.9c-1.39,11.12,9.73,16.68,9.73,16.68-11.12,5.56-2.78,13.9-2.78,13.9,0,25,54.2,439.23,54.2,439.23s77.84,15.29,89,4.17,22.24-33.36,22.24-33.36l-9.73-19.46,7-22.24s-1.39-386.41-1.39-442-5.56-83.4-30.58-97.3-105.63-43.09-109.8-43.09S1073.34,1128.46,1073.34,1128.46Z"/><path fill="#182a54" d="M1333.2,1322.08c1-3.26,2-6.25,2.83-9,6.41-20.1,9.06-28.41-4.23-35.06-4.22-2.11-6.84-5-8-8.73-1.88-6,.08-14.36,5.83-24.8a6.15,6.15,0,0,0,.48-5.88c-3.06-6.21-18.87-8.63-50.35-13.45-20.3-3.11-45.58-7-76.87-13.28-45.22-9.12-70.85-15.84-85.42-27.27a39.28,39.28,0,0,1-12-15.22c6.38-2.25,39.92-15.4,37.71-41.4a1.39,1.39,0,1,0-2.77.23c2,23.86-30.53,36.62-36,38.59-3.47-9.2-4.8-21.3-4.59-38.34a1.41,1.41,0,0,0-.76-1.24l-1.36.07a1.36,1.36,0,0,0-.66,1.14c-.72,59.58,16.61,68.28,105.36,86.16,31.36,6.32,56.67,10.2,77,13.31,27.61,4.23,45.85,7,48.28,11.93.28.58.54,1.55-.43,3.31-6.12,11.13-8.15,20.21-6,27,1.39,4.46,4.56,8,9.42,10.39,11.16,5.58,9.23,11.64,2.82,31.72-.87,2.76-1.83,5.75-2.83,9-8.3,27,24.74,412.7,26.34,431.27l-2.62,19.9,2.74.47,2.65-20.16a1,1,0,0,0,0-.3C1359.32,1748.41,1325,1348.62,1333.2,1322.08Z"/><path d="M1293,1318.89a1.35,1.35,0,0,1-.73-.21c-7.75-4.77-11.25-10.83-10.38-18a1.41,1.41,0,0,1,.31-.73c.12-.13,11.32-13.45,14.33-23.48a1.39,1.39,0,1,1,2.66.8c-2.94,9.8-12.77,22-14.59,24.15-.52,5.66,2.34,10.55,8.51,14.54a122.38,122.38,0,0,1,16.58-5.69,1.39,1.39,0,0,1,.67,2.7,120.67,120.67,0,0,0-16.8,5.83A1.38,1.38,0,0,1,1293,1318.89Z" style="mix-blend-mode:multiply" fill="#ccc"/><path d="M1429.17,1732.18c-12-.93,2.78-10.2,8.34-13.9s-53.74,10.19-67.64,7.41-49.12-324.33-48.19-344.71-8.34-35.22-3.7-57.46,26.87-45.4,1.85-48.18-102.86-78.77-29.65-144.56l-66.16-9.45c-67.87,3.19-150.68,7.13-150.68,7.13s-16.68,139,44.48,158.46,165.41,13.9,165.41,13.9c-1.39,11.12,9.73,16.68,9.73,16.68-11.12,5.56-2.78,13.9-2.78,13.9,0,25,54.2,439.23,54.2,439.23,19.93-21.77,81.09-23.63,95-29.19S1441.22,1733.1,1429.17,1732.18Z" style="mix-blend-mode:multiply" fill="#ccc"/><path fill="#103d54" d="M1414.77,616.78h-21V614h21a2.55,2.55,0,0,0,1.87-4.28l-54.86-59.24,2-1.89,54.86,59.24a5.33,5.33,0,0,1-3.91,8.95Z"/><path fill="#dde6ef" d="M1245.7,597.49C1166.47,610,1085.85,675.33,1083.07,676c-31.28,26.41-77.84,171-86.87,226.56s-8.34,177.92,16,186.26,341.93,0,341.93,0h197.38s-31.27-223.79-56.29-307.19-48.65-107.72-57.69-114c-51.43-39.62-106.33-52.13-106.33-52.13Z"/><path d="M1148.4,865.06c0,47.26,63.59,107.73,105.29,115.37,0,0-48.82-3.65-51.08-4s-69.15-9.73-69.15-9.73c.52-4.86-5.91-6.08-5.91-6.08C1128.76,952.81,1139.36,887.65,1148.4,865.06Z" style="mix-blend-mode:multiply" fill="#c7e3fa"/><path fill="#97b5d1" d="M1287.33,609l-4.09-3.56-37.54-7.94-.11,0a17.12,17.12,0,0,0-13.34,11.12l-.15.42a54.35,54.35,0,0,0-2.23,7.12c-2.56,11.77,8.24,51.81,47.72,72.28,10.29,5.33,19.56,8,27.55,8h0c11,0,17.55-5,21.06-9.25,5.83-7,8.16-17.37,6.26-27.76C1331.34,653.42,1325.21,642.2,1287.33,609Z"/><path fill="#ff845e" d="M1242.22,580.47c2.43,21.54-3.82,29.18-5.56,37.18s6.6,45.17,44.13,64.63,48-4.52,44.83-21.54S1242.22,580.47,1242.22,580.47Z"/><path fill="#1a0706" d="M1364.54,559.27c3.13,13.55,6.25,34.75,2.78,45.17s-8.34,31.62-7.65,41.7-8,16.68-29.53,19.11-50.39-7-63.25-22.93-12.16-18.42-15.63-33.36a57.5,57.5,0,0,0-12.51-24.44l-20.51-51c-8.34-11.46-9.73-70.89,11.12-64.63-1.39-14.94,21.2-40,56-36.14s58.38,20.85,75.06,29.54,24,18.41,21.54,25-7.29,8.34-7.64,9.73c.35,12.16-7.3,42.39-7.3,42.39Z"/><path fill="#ff845e" d="M1277.2,487.68c-4.86,2.09-6-1.39-6.72-1.39-5.09,3-10,6.26-7.64,21.32s2.08,22.24-2.09,23.4-12.27,8.8-9.26,10.19,5.56,2.08,1.85,3.24-3,3.48,0,3.48-2.32,10.42,6,17.14,9.5,20.39,13.21,30.81,20.39,20.85,37.07,13,29.65-9.49,38.45-5.32,13.44,2.31,16.68-2.55,3-20.16,1.39-33.13,2.09-22.47,3.48-30.35-3.71-35.91-10-46-10.42-8-15.29-3.83S1315.66,504,1277.2,487.68Z"/><path fill="#80a6de" d="M894.94,1090.48H2127.1a45.87,45.87,0,0,1,45.87,45.87v0a0,0,0,0,1,0,0H849.08a0,0,0,0,1,0,0v0a45.87,45.87,0,0,1,45.87-45.87Z"/><path fill="#a1fcff" d="M1007.66,788.61H781.79v-236L838.4,496h169.26Z"/><polygon fill="#a1fcff" points="836.64 550.87 836.57 496.11 781.79 550.87 836.64 550.87"/><polygon points="781.79 550.87 840.52 559.62 836.57 496.11 836.64 550.87 781.79 550.87" style="mix-blend-mode:multiply" fill="#ccc"/><polygon points="886.74 569.69 886.63 788.61 908.99 788.61 886.74 569.69" style="mix-blend-mode:multiply" fill="#ccc"/><path fill="#a1fcff" d="M886.73,862.28H660.86v-236l56.61-56.61H886.73Z"/><path fill="#fff" d="M773.8,653.09A62.9,62.9,0,1,0,836.7,716,63,63,0,0,0,773.8,653.09Zm58,47.23c-4.93-7.6-13.33-14-23.91-18.46-4.43-10.57-10.85-19-18.45-23.9A60.33,60.33,0,0,1,831.83,700.32Zm-17.4,14.28c0-2.8-.18-5.56-.45-8.25,10.83,2.24,17.83,5.26,19.52,8.25Zm-2.78,0H789.78c0-3.78-.13-7.58-.32-11.34a183.83,183.83,0,0,1,21.66,2.53Q811.58,710.1,811.65,714.6Zm-24.65,0H775.19V702.79c4,0,7.82.13,11.5.31C786.87,706.78,787,710.62,787,714.6ZM775.19,700V678.13c3,0,5.94.23,8.81.54a185.72,185.72,0,0,1,2.53,21.66C782.77,700.14,779,700,775.19,700Zm0-24.66V656.28c3,1.69,6,8.69,8.25,19.53Q779.39,675.41,775.19,675.35Zm-2.78-19.07v19.07q-4.2.06-8.25.46C766.4,665,769.42,658,772.41,656.28Zm0,21.85V700c-3.78,0-7.58.13-11.34.32a185.72,185.72,0,0,1,2.53-21.66Q767.91,678.21,772.41,678.13Zm0,24.66V714.6H760.6c0-4,.13-7.82.31-11.5C764.59,702.92,768.43,702.81,772.41,702.79ZM757.82,714.6H735.94q.07-4.5.54-8.81a183.58,183.58,0,0,1,21.66-2.53C758,707,757.84,710.82,757.82,714.6Zm-24.65,0H714.1c1.69-3,8.69-6,19.52-8.25C733.35,709,733.2,711.8,733.17,714.6Zm0,2.78q0,4.2.45,8.25c-10.83-2.24-17.83-5.26-19.52-8.25Zm2.77,0h21.88c0,3.78.13,7.58.32,11.34a187.91,187.91,0,0,1-21.66-2.53Q736,721.87,735.94,717.38Zm24.66,0h11.81v11.8c-4,0-7.82-.12-11.5-.31C760.73,725.2,760.62,721.35,760.6,717.38ZM772.41,732v21.88q-4.5-.06-8.81-.53a186,186,0,0,1-2.53-21.66C764.83,731.84,768.63,731.94,772.41,732Zm0,24.66v19.07c-3-1.69-6-8.69-8.25-19.52C766.86,756.44,769.61,756.58,772.41,756.62Zm2.78,19.07V756.62c2.8,0,5.55-.18,8.25-.45C781.2,767,778.18,774,775.19,775.69Zm0-21.85V732c3.78,0,7.58-.12,11.34-.31A186,186,0,0,1,784,753.31C781.13,753.62,778.18,753.8,775.19,753.84Zm0-24.66v-11.8H787c0,4-.13,7.82-.31,11.49C783,729.06,779.17,729.16,775.19,729.18Zm14.59-11.8h21.87q-.06,4.49-.53,8.81a188.17,188.17,0,0,1-21.66,2.53C789.65,725,789.76,721.16,789.78,717.38Zm24.65,0H833.5c-1.69,3-8.69,6-19.52,8.25C814.25,722.93,814.39,720.18,814.43,717.38Zm-.79-13.92a86.17,86.17,0,0,0-4.31-18c12.67,5.87,21.57,14.79,23.95,25C829.36,707.54,822.34,705.19,813.64,703.46Zm-2.87-.53a196.18,196.18,0,0,0-21.47-2.44A196.18,196.18,0,0,0,786.86,679a82.25,82.25,0,0,1,19,4.94A82.11,82.11,0,0,1,810.77,702.93Zm-24.45-26.79c-1.72-8.69-4.08-15.71-7-19.63,10.25,2.37,19.17,11.27,25,24A86.27,86.27,0,0,0,786.32,676.14Zm-25.05,0a86.17,86.17,0,0,0-18,4.32c5.87-12.68,14.79-21.58,25-24C765.35,660.43,763,667.45,761.27,676.14Zm-.53,2.88a196.18,196.18,0,0,0-2.44,21.47,196.18,196.18,0,0,0-21.47,2.44,82.11,82.11,0,0,1,4.94-19A82.25,82.25,0,0,1,760.74,679ZM734,703.46c-8.69,1.73-15.71,4.08-19.63,7,2.38-10.24,11.28-19.16,23.95-25A86.17,86.17,0,0,0,734,703.46Zm0,25a86.27,86.27,0,0,0,4.32,18c-12.67-5.87-21.57-14.8-23.95-25C718.24,724.43,725.26,726.79,734,728.51Zm2.88.54a196.18,196.18,0,0,0,21.47,2.44A195.7,195.7,0,0,0,760.74,753a81.74,81.74,0,0,1-19-4.93A82.38,82.38,0,0,1,736.83,729.05Zm24.44,26.78c1.73,8.7,4.08,15.72,7,19.63-10.25-2.37-19.17-11.27-25-23.94A86.17,86.17,0,0,0,761.27,755.83Zm25.05,0a86.26,86.26,0,0,0,18-4.31c-5.87,12.67-14.79,21.57-25,23.94C782.24,771.55,784.6,764.53,786.32,755.83Zm.54-2.88a195.7,195.7,0,0,0,2.44-21.46,196.18,196.18,0,0,0,21.47-2.44,82.38,82.38,0,0,1-4.94,19A81.74,81.74,0,0,1,786.86,753Zm26.78-24.44c8.7-1.72,15.72-4.08,19.64-7-2.38,10.24-11.28,19.17-23.95,25A86.26,86.26,0,0,0,813.64,728.51ZM758.13,658c-7.6,4.92-14,13.33-18.46,23.9-10.57,4.44-19,10.86-23.9,18.46A60.33,60.33,0,0,1,758.13,658Zm-42.36,73.7c4.92,7.59,13.33,14,23.9,18.45,4.44,10.58,10.86,19,18.46,23.91A60.33,60.33,0,0,1,715.77,731.66ZM789.47,774c7.6-4.93,14-13.33,18.45-23.91,10.58-4.43,19-10.86,23.91-18.45A60.33,60.33,0,0,1,789.47,774Z"/><polygon fill="#a1fcff" points="715.71 624.54 715.64 569.78 660.86 624.54 715.71 624.54"/><polygon points="660.86 624.54 719.59 633.28 715.64 569.78 715.71 624.54 660.86 624.54" style="mix-blend-mode:multiply" fill="#ccc"/><path fill="#a1fcff" d="M2385.76,909.54H2159.88v-236L2216.5,617h169.26Z"/><polygon fill="#a1fcff" points="2214.73 671.79 2214.66 617.03 2159.88 671.79 2214.73 671.79"/><polygon points="2159.88 671.79 2218.61 680.54 2214.66 617.03 2214.73 671.79 2159.88 671.79" style="mix-blend-mode:multiply" fill="#ccc"/><rect width="209.42" height="70.43" x="2168.11" y="828.69" fill="#8ad2e1"/><path fill="#fff" d="M2199.18,837h7.18v22.6h.16a12.91,12.91,0,0,1,5.14-4.64,15.86,15.86,0,0,1,7.35-1.87c5.3,0,13.79,3,13.79,15.49V890.1h-7.18V869.29c0-5.83-2.37-10.77-9.14-10.77a10.23,10.23,0,0,0-9.63,6.58,7.36,7.36,0,0,0-.49,3.15V890.1h-7.18Z"/><path fill="#fff" d="M2252.81,843.47v10.41h10.29v5h-10.29v19.53c0,4.49,1.39,7,5.39,7a17.55,17.55,0,0,0,4.16-.45l.33,4.94a19.14,19.14,0,0,1-6.37.9c-3.34,0-6-1-7.75-2.77-2-2-2.78-5.17-2.78-9.43V858.89h-6.11v-5h6.11v-8.69Z"/><path fill="#fff" d="M2271.19,863.68c0-3.74-.08-6.81-.33-9.8h6.29l.32,5.83h.25a13.8,13.8,0,0,1,12.4-6.66,11.64,11.64,0,0,1,11.18,7.26h.16a15.44,15.44,0,0,1,4.41-4.71,14.25,14.25,0,0,1,8.73-2.55c5.22,0,13,3.14,13,15.72V890.1h-7V869.59c0-7-2.78-11.15-8.57-11.15a9.21,9.21,0,0,0-8.49,6,10.18,10.18,0,0,0-.57,3.29V890.1h-7V868.39c0-5.76-2.78-9.95-8.25-9.95a9.64,9.64,0,0,0-8.89,6.59,8.34,8.34,0,0,0-.58,3.22V890.1h-7Z"/><path fill="#fff" d="M2339.28,837h7.18V890.1h-7.18Z"/><path fill="#fff" d="M913.24,1002.49c-10.69,4.53-14.63,19.37-8.8,33.16s19.22,21.29,29.92,16.77,14.63-19.36,8.8-33.15S923.94,998,913.24,1002.49Zm18.34,43.37c-7.33,3.1-16.76-2.62-21.06-12.78s-1.84-20.92,5.5-24,16.76,2.62,21.06,12.78S938.92,1042.76,931.58,1045.86Z"/><path fill="#fff" d="M940.36,967v58.25a150.5,150.5,0,0,0,11,56.5h0a15.09,15.09,0,0,0,14,9.43H1006a15.09,15.09,0,0,0,14-9.43h0a150.49,150.49,0,0,0,11-56.5V967Z"/><path d="M965.36,1091.17H1006a15.09,15.09,0,0,0,14-9.43h0c.31-.78.61-1.57.92-2.35-16.35-15-46.5-49.66-64.45-112.4h-16v58.25a150.5,150.5,0,0,0,11,56.5h0A15.09,15.09,0,0,0,965.36,1091.17Z" style="mix-blend-mode:multiply" fill="#ccc"/><ellipse cx="1301.24" cy="560.31" fill="#1a0706" rx="4.11" ry="7.3"/><path fill="#1a0706" d="M1291.83,561.44a.69.69,0,0,1-.39-.12.7.7,0,0,1-.19-1c3.75-5.52,7.16-8.36,10.41-8.69,2.28-.23,4.48.74,6.72,2.94a.69.69,0,1,1-1,1c-1.93-1.89-3.76-2.73-5.61-2.54-2.82.28-5.89,2.92-9.4,8.09A.7.7,0,0,1,1291.83,561.44Z"/><path d="M1298.28,570.33a.7.7,0,0,1,0-1.39c4.21,0,6-1,6-1.06a.7.7,0,0,1,.73,1.19C1304.94,569.12,1303,570.33,1298.28,570.33Z" style="mix-blend-mode:multiply" fill="#eba492"/><ellipse cx="1349.89" cy="557.99" fill="#1a0706" rx="4.11" ry="7.3"/><path fill="#1a0706" d="M1340.47,559.12a.71.71,0,0,1-.39-.12.69.69,0,0,1-.18-1c3.75-5.53,7.16-8.37,10.41-8.69,2.28-.24,4.48.73,6.72,2.94a.69.69,0,0,1,0,1,.69.69,0,0,1-1,0c-1.93-1.9-3.77-2.74-5.61-2.55-2.82.28-5.89,2.93-9.4,8.09A.68.68,0,0,1,1340.47,559.12Z"/><path d="M1346.93,568a.7.7,0,0,1,0-1.39c4.21,0,6-1,6-1a.69.69,0,0,1,.73,1.18C1353.59,566.8,1351.6,568,1346.93,568Z" style="mix-blend-mode:multiply" fill="#eba492"/><path d="M1319.49,602.71a6.05,6.05,0,0,1-5.35-3c-1.4-2.39-1.16-5.57.64-8.51a.69.69,0,1,1,1.18.73c-1.53,2.49-1.76,5.14-.62,7.08a4.71,4.71,0,0,0,4.35,2.29.68.68,0,0,1,.72.66.69.69,0,0,1-.67.72Z" style="mix-blend-mode:multiply" fill="#eba492"/><path fill="#1a0706" d="M1317.45,528c-4.34,6.61-9.73,9.73-21.71,7.65s-23.29,3-28.33,6.43c8.69-12.69,15.29-17.55,27.28-14.42A50.25,50.25,0,0,0,1317.45,528Z"/><path fill="#1a0706" d="M1339.52,529.9c3.65,4.52,7.64,7.13,16,5S1368,537,1368,537C1365.41,528.17,1365.76,527.3,1339.52,529.9Z"/><path d="M1316.7,534.48a.66.66,0,0,1-.42-.15.69.69,0,0,1-.13-1c3.4-4.38,3.16-8.31-.8-13.15a.7.7,0,0,1,1.08-.88c4.39,5.36,4.64,9.95.82,14.88A.69.69,0,0,1,1316.7,534.48Z" style="mix-blend-mode:multiply" fill="#eba492"/><path fill="#ff845e" d="M1350,623.33c-5.55-8.14-15.84-11.56-25.38-9.14-11.87,3-19.08,11-20.33,17.13-1.62,7.87,2.31,16.91,11.35,14.36s13.9-4.17,23.4-1.85,17.14-9,12.27-18.31A21.48,21.48,0,0,0,1350,623.33Z"/><path d="M1323.42,639.31a.71.71,0,0,1-.67-.5.69.69,0,0,1,.47-.86c7.65-2.24,12.15-.87,12.34-.81a.69.69,0,0,1-.42,1.32s-4.33-1.28-11.53.82A.63.63,0,0,1,1323.42,639.31Z" style="mix-blend-mode:multiply" fill="#eba492"/><path fill="#1a0706" d="M1324,626.68a69.47,69.47,0,0,1-9.44-.58.7.7,0,0,1-.59-.79.69.69,0,0,1,.78-.59c12.18,1.69,28.29-.9,29.64-1.46a.7.7,0,0,1,.91.37.69.69,0,0,1-.38.91C1343.69,625,1334,626.68,1324,626.68Z"/><path fill="#ff8b69" d="M1262.38,483.75a.63.63,0,0,1-.33-.09c-.15-.08-15.17-8.13-29.31-12.69a.7.7,0,0,1-.45-.87.7.7,0,0,1,.88-.45c14.26,4.6,29.38,12.71,29.54,12.79a.7.7,0,0,1,.28.94A.72.72,0,0,1,1262.38,483.75Z"/><path fill="#ff8b69" d="M1266.65,533a.8.8,0,0,1-.33-.08c-.15-.08-3.46-2.67-17.59-7.23a.68.68,0,0,1-.45-.87.7.7,0,0,1,.87-.45c14.26,4.6,17.68,7.24,17.83,7.32a.69.69,0,0,1,.28.94A.67.67,0,0,1,1266.65,533Z"/><path fill="#ff8b69" d="M1265.49,539a.67.67,0,0,1-.33-.08c-.15-.08-3.46-2.66-17.59-7.22a.7.7,0,0,1-.45-.88.7.7,0,0,1,.87-.45c14.26,4.6,17.68,7.24,17.83,7.33a.69.69,0,0,1-.33,1.3Z"/><path fill="#97b5d1" d="M1168.55,757.34a1.38,1.38,0,0,1-1.37-1.17c-.1-.63-11-63.38-67.9-83.7a1.39,1.39,0,0,1,.94-2.62c58.47,20.89,69.6,85.23,69.7,85.88a1.38,1.38,0,0,1-1.14,1.59Z"/><path fill="#97b5d1" d="M1318,982.52c-39.28.67-145.17-8.52-182.86-17.12a6.81,6.81,0,0,0-6-5.71c1.24-9.74,8.87-66.31,22.65-98.25a1.39,1.39,0,0,0-2.55-1.1c-14.28,33.09-22,92.08-22.94,99.66-3.66,1.55-19.89,8.77-33.43,20.06a1.39,1.39,0,0,0-.18,2,1.38,1.38,0,0,0,2,.17c13.94-11.62,30.85-18.85,33.17-19.82,3.84.12,4.5,2.76,4.6,3.83-1.12,2-7.2,13-12.83,25.95a1.38,1.38,0,0,0,.71,1.83,1.41,1.41,0,0,0,.56.12,1.37,1.37,0,0,0,1.27-.84c5.2-11.92,10.76-22.16,12.41-25.14,36.58,8.33,136.84,17.21,179.19,17.21,1.51,0,2.94,0,4.3,0a1.39,1.39,0,0,0,0-2.78Z"/><path fill="#97b5d1" d="M1462.53,776.34a1.39,1.39,0,1,0-2.78,0c0,4.38-2.85,10.72-5.07,15a601.06,601.06,0,0,0-4.67-60.58,1.39,1.39,0,1,0-2.76.34,575.05,575.05,0,0,1,4.67,65.34,1.3,1.3,0,0,0,0,.62c.18,30.1-3.19,43.12-3.24,43.31a1.4,1.4,0,0,0,1,1.71,1.49,1.49,0,0,0,.36,0,1.4,1.4,0,0,0,1.34-1c.23-.81,3.62-13.85,3.4-44.16C1456.22,794.49,1462.53,783.52,1462.53,776.34Z"/><rect width="79.46" height="46.33" x="1188.71" y="787.92" fill="#fff"/><rect width="12.05" height="24.09" x="1222.41" y="772.75" fill="#2b407a"/><polygon points="1268.17 787.92 1275.23 845.14 1188.71 834.25 1268.17 834.25 1268.17 787.92" style="mix-blend-mode:multiply" fill="#ccc"/><path fill="#071c26" d="M1638,1061.74H1208.86a28.49,28.49,0,0,0-28.49,28.5H1638a14.24,14.24,0,0,0,14.24-14.25h0A14.24,14.24,0,0,0,1638,1061.74Z"/><path fill="#071c26" d="M1380.19,828.23H1683a8.14,8.14,0,0,1,7.8,10.47l-62.69,210a17.29,17.29,0,0,1-16.56,12.34H1308.75a8.14,8.14,0,0,1-7.8-10.47l62.69-210A17.27,17.27,0,0,1,1380.19,828.23Z"/><path fill="#103d54" d="M1395.48,828.23h302.85a8.14,8.14,0,0,1,7.8,10.47l-62.69,210a17.29,17.29,0,0,1-16.56,12.34H1324a8.14,8.14,0,0,1-7.8-10.47l62.69-210A17.27,17.27,0,0,1,1395.48,828.23Z"/><path fill="#103d54" d="M1392.69,625.47H1380a9.38,9.38,0,0,1-9.38-9.39h0a9.38,9.38,0,0,1,9.38-9.38h12.69a9.38,9.38,0,0,1,9.38,9.38h0A9.38,9.38,0,0,1,1392.69,625.47Z"/><path fill="#752624" d="M1320,586.72H1276.2a2.57,2.57,0,0,1-2-.94,2.6,2.6,0,0,1-.56-2.14l4.38-23.3a2.61,2.61,0,0,1,2.56-2.11h43.85a2.59,2.59,0,0,1,2.55,3.07l-4.38,23.3A2.6,2.6,0,0,1,1320,586.72Zm-39.46-27.1a1.21,1.21,0,0,0-1.19,1L1275,583.9a1.18,1.18,0,0,0,.26,1,1.2,1.2,0,0,0,.93.44H1320a1.19,1.19,0,0,0,1.19-1l4.38-23.29a1.2,1.2,0,0,0-.25-1,1.22,1.22,0,0,0-.93-.43Z"/><path fill="#1a0706" d="M1321.26,586.72h-43.85a2.6,2.6,0,0,1-2-.94,2.63,2.63,0,0,1-.55-2.14l4.38-23.3a2.59,2.59,0,0,1,2.55-2.11h43.85a2.57,2.57,0,0,1,2,.94,2.53,2.53,0,0,1,.55,2.13l-4.38,23.3A2.59,2.59,0,0,1,1321.26,586.72Zm-39.47-27.1a1.19,1.19,0,0,0-1.18,1l-4.39,23.3a1.22,1.22,0,0,0,.26,1,1.2,1.2,0,0,0,.93.44h43.85a1.21,1.21,0,0,0,1.19-1l4.38-23.29a1.2,1.2,0,0,0-.26-1,1.22,1.22,0,0,0-.93-.43Z"/><path fill="#752624" d="M1374.25,586.81h-31.32l-1.33-1.39h32.65a1.22,1.22,0,0,0,1.19-1l4.38-23.3a1.21,1.21,0,0,0-1.19-1.43h-36.89a1.21,1.21,0,0,0-1.19,1l-2.49,13.2-.6-4.2,1.72-9.26a2.6,2.6,0,0,1,2.56-2.12h36.89a2.61,2.61,0,0,1,2.56,3.08l-4.38,23.3A2.6,2.6,0,0,1,1374.25,586.81Z"/><path fill="#1a0706" d="M1375.47,586.72h-32.65v-1.39h32.65a1.21,1.21,0,0,0,1.19-1l4.38-23.29a1.24,1.24,0,0,0-.26-1,1.22,1.22,0,0,0-.93-.43H1343a1.21,1.21,0,0,0-1.19,1l-2.48,13.21-1.36-.26,2.48-13.21a2.59,2.59,0,0,1,2.55-2.11h36.9a2.57,2.57,0,0,1,2,.94,2.53,2.53,0,0,1,.55,2.13L1378,584.6A2.59,2.59,0,0,1,1375.47,586.72Z"/><path fill="#1a0706" d="M1322.15,573.52a.72.72,0,0,1-.56-.28.7.7,0,0,1,.13-1c6.16-4.74,10.39-5,12.85-4.36a7.37,7.37,0,0,1,5,4.4.7.7,0,0,1-1.28.56,6,6,0,0,0-4.07-3.62c-3.06-.78-7.2.69-11.66,4.12A.7.7,0,0,1,1322.15,573.52Z"/><path fill="#1a0706" d="M1345.47,589.74a40.67,40.67,0,0,1-4.42-9.32,82.75,82.75,0,0,1-2.61-11c-.67-3.58-1.25-6.67-2.47-9.11s-.33-4.3,1.07-7.52a46,46,0,0,0,3.16-9.22.7.7,0,0,0-.53-.83.69.69,0,0,0-.83.53,45.33,45.33,0,0,1-3.07,9c-1.46,3.33-2.51,5.75-1,8.69,1.13,2.27,1.69,5.27,2.34,8.75a83.8,83.8,0,0,0,2.66,11.13,42,42,0,0,0,4.56,9.61c.91,1.49,1.56,2.57,1.35,3.15-.5,1.37-8.87,4.41-19.64,3.88a.71.71,0,0,0-.73.66.69.69,0,0,0,.66.73c.82,0,1.64.06,2.44.06a46.87,46.87,0,0,0,13.91-2c1.87,1.2,1.49,2.59,1.45,2.74a.68.68,0,0,0,.43.88.57.57,0,0,0,.22,0,.7.7,0,0,0,.66-.47,3.67,3.67,0,0,0-1.23-3.76c1.71-.72,2.85-1.52,3.14-2.31C1347.39,592.87,1346.63,591.63,1345.47,589.74Z"/><polygon fill="#752624" points="1238.4 545.14 1277.32 560.89 1275.81 569.23 1239.79 548.84 1238.4 545.14"/><path fill="#ff845e" d="M1238.75,585c13.35-11.58,4-54.67-18.61-55.6-11.78-.48-15.1,16.6-12.45,32C1210.15,575.55,1221.46,588.76,1238.75,585Z"/><path d="M1232,581.86a.8.8,0,0,1-.26-.05c-8.72-3.48-10.12-8.63-10.18-11.38a9.64,9.64,0,0,1,5.69-8.87,8.88,8.88,0,0,1,9,1c-.79-10.06-6-20-12.32-23a7.89,7.89,0,0,0-8.72.89.7.7,0,0,1-1-.14.69.69,0,0,1,.14-1,9.33,9.33,0,0,1,10.16-1c7.16,3.43,12.83,14.48,13.19,25.72a.69.69,0,0,1-1.16.53c-2.64-2.45-5.83-3.12-8.75-1.81a8.24,8.24,0,0,0-4.87,7.57c0,2.41,1.33,6.94,9.31,10.11a.71.71,0,0,1,.39.91A.7.7,0,0,1,1232,581.86Z" style="mix-blend-mode:multiply" fill="#eba492"/><rect width="351.2" height="313.21" x="1677.05" y="674.87" fill="#0d3245"/><rect width="399.39" height="313.21" x="1692.34" y="674.87" fill="#144b69"/><rect width="112.59" height="121.62" x="1878.83" y="863.67" fill="#103d54"/><rect width="88.26" height="71.24" x="1890.65" y="985.3" fill="#0d3245"/><path fill="#103d54" d="M1998.14,1056.65h-10.89V985.3H1899v71.35h-93.6a33.82,33.82,0,0,0-33.82,33.82H2032A33.82,33.82,0,0,0,1998.14,1056.65Z"/><rect width="12.51" height="121.62" x="1878.83" y="863.67" fill="#0d3245"/><rect width="59.54" height="20.85" x="1800.99" y="953.09" fill="#0d3245"/><path fill="#3d5bad" d="M1811.88,963.52a3.36,3.36,0,1,1-3.36-3.36A3.36,3.36,0,0,1,1811.88,963.52Z"/><circle cx="1853" cy="963.52" r="3.36" fill="#3d5bad"/><path d="M1568.17,1280.9a1.26,1.26,0,0,1-.65-.17c-.07,0-7-3.59-22.63-4.93a1.44,1.44,0,0,1-1-.55,10.8,10.8,0,0,1,0-12.79c.44-.54,9.92-12.26,13.28-14.66a1.39,1.39,0,1,1,1.62,2.26c-2.54,1.81-10,10.79-12.7,14.1a7.88,7.88,0,0,0-.29,8.93c15.83,1.44,22.74,5,23,5.19a1.39,1.39,0,0,1-.66,2.62Z" style="mix-blend-mode:multiply" fill="#ccc"/><path fill="#dde6ef" d="M1500.41,1854.73h306.14c-13.2-26.41-47.26-52.13-89.65-63.25s-78.54-31.27-79.23-43.09-37.53,9.73-29.89,35.45c-46.56,7-86.17-2.09-86.17-2.09C1506.32,1804,1500.41,1854.73,1500.41,1854.73Z"/><path fill="#fff" d="M1639.74,1792.43a5.11,5.11,0,1,1,5.11-5.1A5.11,5.11,0,0,1,1639.74,1792.43Zm0-7.43a2.33,2.33,0,1,0,2.33,2.33A2.32,2.32,0,0,0,1639.74,1785Z"/><path fill="#fff" d="M1735,1838.05H1511.88a1.39,1.39,0,0,1,0-2.78h215.5l-104.8-39.71a1.39,1.39,0,0,1,1-2.6l111.89,42.4a1.39,1.39,0,0,1,.88,1.55A1.4,1.4,0,0,1,1735,1838.05Z"/><path fill="#fff" d="M1640,1788.24a1.37,1.37,0,0,1-.59-.13,1.38,1.38,0,0,1-.67-1.85c.35-.76,8.85-18.58,23.61-19.79a1.39,1.39,0,0,1,.23,2.77c-13.17,1.08-21.25,18-21.33,18.2A1.38,1.38,0,0,1,1640,1788.24Z"/><path fill="#fff" d="M1386.15,1815a1.6,1.6,0,0,1-.44-.42,1.4,1.4,0,0,1,.39-1.93c.7-.46,35.48-9.5,48.72-2.86a1.39,1.39,0,0,1-1.24,2.48c-11.82-5.92-45.78,2.59-45.94,2.7A1.41,1.41,0,0,1,1386.15,1815Z"/><path fill="#fff" d="M1679.71,1807a5.11,5.11,0,1,1,5.1-5.11A5.11,5.11,0,0,1,1679.71,1807Zm0-7.44a2.33,2.33,0,1,0,2.32,2.33A2.33,2.33,0,0,0,1679.71,1799.59Z"/><path fill="#fff" d="M1680,1802.83a1.39,1.39,0,0,1-1.26-2c.35-.75,8.85-18.58,23.62-19.79a1.39,1.39,0,0,1,.22,2.77c-13.17,1.08-21.24,18-21.32,18.2A1.39,1.39,0,0,1,1680,1802.83Z"/><path fill="#fff" d="M1720.54,1822.32a5.11,5.11,0,1,1,5.1-5.11A5.11,5.11,0,0,1,1720.54,1822.32Zm0-7.44a2.33,2.33,0,1,0,2.32,2.33A2.33,2.33,0,0,0,1720.54,1814.88Z"/><path fill="#fff" d="M1720.78,1818.12a1.39,1.39,0,0,1-1.26-2c.35-.75,8.85-18.58,23.62-19.79a1.39,1.39,0,1,1,.22,2.77c-13.17,1.08-21.24,18-21.32,18.2A1.39,1.39,0,0,1,1720.78,1818.12Z"/><path fill="#fff" d="M1420.37,1847.4c-28.6,0-73.83-11.23-76.17-12a1.38,1.38,0,0,1-.87-1.76,1.39,1.39,0,0,1,1.76-.87c.68.23,66.76,18.5,88.73,10s31.46-15.83,31.54-15.94a1.39,1.39,0,1,1,2.28,1.58c-.35.51-10,8.1-32.81,17C1431,1846.79,1426.05,1847.4,1420.37,1847.4Z"/><path fill="#1e3369" d="M1113.36,1154.18l62.85,53.47,65.32,647.08h18.18l-72.56-718.62H923.93l-58.74,718.56,18.13.11,52-636.74,54.34-63.86Zm60.53,30.51L1138,1154.18h32.78Zm-236.3,6.06,3-36.57h28.14Z"/><path fill="#121f3f" d="M1100.85,1154.18l62.85,53.47L1229,1854.73h18.18l-72.56-718.62H911.42l-58.74,718.56,18.13.11,52-636.74,54.34-63.86Zm60.53,30.51-35.86-30.51h32.78Zm-236.3,6.06,3-36.57h28.14Z"/><polygon fill="#1e3369" points="1176.72 1153.83 2108.01 1153.83 2105.92 1136.11 1174.64 1136.11 1176.72 1153.83"/><path fill="#0e4a49" d="M822.5,1502.88l-2.53-4.13c-1.67-2.66-4-6.7-7.19-11.6-1.58-2.46-3.31-5.19-5.21-8.15l-6.32-9.5c-4.56-6.75-9.87-14.24-15.92-22.19a288.91,288.91,0,0,0-20.91-24.44,185.19,185.19,0,0,0-26.94-23.36,129.5,129.5,0,0,0-33.92-16.89,131.5,131.5,0,0,0-38.77-6.1,200.49,200.49,0,0,0-39.48,3.77c-6.42,1.44-12.84,2.7-19,4.52l-4.67,1.26c-1.55.41-3.09.84-4.6,1.35l-9.06,2.88c-3,.9-5.93,2-8.84,3l-8.64,3.11L554,1403l-15.44,6.72-14.26,6.64c-4.6,2.09-8.88,4.35-13,6.37s-8.05,3.94-11.66,5.88c-7.26,3.83-13.64,7.06-18.8,9.92l-16.24,8.89,16-9.26c5.09-3,11.4-6.34,18.58-10.34,3.57-2,7.47-4,11.54-6.16s8.33-4.47,12.89-6.66l14.14-7,15.34-7.09,16.43-7,8.62-3.33c2.9-1.11,5.81-2.3,8.83-3.28l9.07-3.1c1.51-.55,3.06-1,4.62-1.47l4.69-1.38c6.23-2,12.7-3.41,19.18-5a205.92,205.92,0,0,1,40.31-4.76A132.4,132.4,0,0,1,741.2,1394a192.13,192.13,0,0,1,28.54,23.62,295.05,295.05,0,0,1,22,24.61c6.36,8,11.94,15.48,16.73,22.23l6.63,9.5,5.48,8.18c3.34,4.93,5.75,8.83,7.49,11.48l2.62,4.07Z"/><path fill="#0b3b3a" d="M851.4,1510.67s-2.44-5.41-6.69-14.88-10.4-22.92-18-39l-6-12.51q-3.15-6.46-6.49-13.33l-7-14-7.51-14.51c-2.63-4.88-5.21-9.9-8-14.86l-4.16-7.53-4.34-7.53c-1.44-2.53-2.92-5-4.44-7.54l-4.56-7.54c-3.15-5-6.27-10-9.59-14.86-6.58-9.8-13.45-19.41-20.82-28.38a281,281,0,0,0-23.06-25.08,226.89,226.89,0,0,0-24.45-20.45,260.27,260.27,0,0,0-24.11-15.41c-7.79-4.25-15-8-21.64-10.91-3.27-1.54-6.38-2.86-9.26-4.07l-4.14-1.76-3.81-1.51c-4.82-1.94-8.65-3.34-11.26-4.3l-4-1.48,4,1.37c2.63.9,6.5,2.2,11.37,4l3.85,1.42,4.19,1.65c2.91,1.14,6.06,2.38,9.38,3.84,6.69,2.77,14.06,6.32,22,10.4a261,261,0,0,1,24.69,14.9,228.27,228.27,0,0,1,25.25,20,282.52,282.52,0,0,1,24,24.79c7.7,8.89,14.9,18.43,21.8,28.16,3.48,4.84,6.76,9.83,10.06,14.76,1.61,2.5,3.2,5,4.8,7.48s3.16,5,4.67,7.5,3.06,5,4.57,7.47l4.39,7.48c3,4.94,5.67,9.91,8.45,14.76l7.92,14.4,7.4,13.89q3.52,6.81,6.86,13.22l6.3,12.41c8,15.92,14.53,29.3,19,38.66l7.07,14.71Z"/><path fill="#0b3b3a" d="M604.92,977l5.26,4.61c3.42,3,8.51,7.38,14.85,13.07l10.12,9.86c3.67,3.6,7.76,7.38,11.72,11.81l12.9,13.86c4.38,5,8.87,10.4,13.62,16l3.58,4.23c1.19,1.44,2.32,3,3.5,4.45l7.14,9.17,3.67,4.71c1.24,1.57,2.47,3.17,3.64,4.84q3.55,5,7.23,10.07c2.42,3.42,5,6.83,7.38,10.39l7.22,10.88c2.41,3.68,5,7.34,7.33,11.15l7.14,11.58,3.62,5.87,1.82,3,1.74,3q3.47,6,7,12.17c4.8,8.11,9.13,16.6,13.72,25,1.12,2.12,2.31,4.22,3.39,6.38l3.25,6.47,6.53,13c2.19,4.34,4.19,8.78,6.29,13.18s4.2,8.81,6.22,13.25c8,17.82,15.75,35.75,22.74,53.65q2.64,6.7,5.26,13.36t5,13.32c3.36,8.8,6.34,17.62,9.41,26.24s5.81,17.21,8.57,25.57q2,6.3,3.94,12.46l1.94,6.13q.92,3,1.82,6.06,1.82,6,3.58,11.89t3.32,11.58c2.21,7.58,4.16,15,6.08,22s3.63,13.88,5.28,20.35,3.15,12.63,4.48,18.44c2.76,11.59,4.94,21.75,6.71,30.12s3,15,3.86,19.52,1.25,7,1.25,7l-9.61,1.5s-.35-2.34-1.11-6.82-1.92-11-3.52-19.36-3.63-18.44-6.19-30c-1.23-5.79-2.7-11.91-4.16-18.38s-3.16-13.25-4.93-20.32-3.64-14.42-5.71-22q-1.54-5.68-3.13-11.56c-1.1-3.91-2.23-7.87-3.36-11.88-.57-2-1.15-4-1.72-6.07s-1.22-4.06-1.83-6.12q-1.85-6.15-3.73-12.45c-2.62-8.37-5.29-16.92-8.13-25.57s-5.75-17.45-9-26.26q-2.34-6.63-4.73-13.33t-5-13.38c-6.69-17.93-14.13-35.88-21.8-53.74-2-4.46-4-8.86-6-13.29s-4-8.87-6.06-13.23-4.21-8.7-6.3-13l-3.14-6.5c-1-2.16-2.19-4.27-3.27-6.4-4.44-8.48-8.62-17-13.28-25.15l-6.77-12.23-1.69-3-1.76-3-3.52-5.9-6.93-11.65c-2.31-3.83-4.78-7.51-7.13-11.22s-4.71-7.35-7-11-4.83-7-7.19-10.47-4.73-6.82-7-10.15c-1.13-1.69-2.34-3.3-3.55-4.89l-3.59-4.75-7-9.26c-1.15-1.5-2.25-3-3.41-4.48l-3.51-4.27c-4.65-5.62-9-11.07-13.34-16.15l-12.66-14c-3.88-4.49-7.9-8.32-11.5-12l-10-10c-6.24-5.79-11.27-10.22-14.64-13.3Z"/><path fill="#0b3b3a" d="M886.41,1514.37s.19-1.54.52-4.43c.17-1.45.38-3.23.63-5.32.14-1,.23-2.16.43-3.39s.42-2.53.65-3.9c.48-2.75.92-5.82,1.58-9.1s1.52-6.78,2.37-10.55,2.17-7.67,3.34-11.83c1.38-4.11,2.9-8.41,4.54-12.86A197.54,197.54,0,0,1,914,1425.48l2.08-3.54c.35-.58.68-1.19,1.06-1.77l1.16-1.73,4.73-7,1.2-1.77,1.31-1.71,2.64-3.44,2.66-3.46,1.34-1.75,1.45-1.67c3.87-4.45,7.69-9.07,12-13.33,2.13-2.15,4.17-4.42,6.4-6.5s4.49-4.18,6.74-6.29c1.14-1,2.24-2.12,3.41-3.13l3.55-3,7.11-6c2.42-1.95,4.91-3.82,7.37-5.75s4.89-3.88,7.45-5.67c5.07-3.6,10.17-7.29,15.19-10.79s10.16-7,15-10.66,9.82-7.11,14.56-10.75,9.49-7.15,14-10.75l6.81-5.32,6.61-5.3,6.47-5.2,6.25-5.14c4.12-3.37,8.08-6.71,11.91-10s7.5-6.39,11-9.43c14.07-12.16,25.56-22.58,33.52-30s12.4-11.71,12.4-11.71-4.34,4.44-12.12,12-19,18.28-32.79,30.79c-3.46,3.13-7,6.39-10.81,9.71s-7.64,6.77-11.69,10.25l-6.13,5.31-6.35,5.36-6.49,5.48-6.69,5.49c-4.48,3.72-9.12,7.4-13.82,11.13s-9.52,7.43-14.37,11.17-9.84,7.34-14.79,11-9.89,7.39-14.84,11.1c-2.49,1.82-4.81,3.86-7.22,5.78s-4.78,3.86-7.12,5.84l-6.86,6.1-3.41,3c-1.13,1-2.18,2.1-3.27,3.15l-6.45,6.32c-2.14,2.09-4.07,4.36-6.1,6.51-4.11,4.26-7.72,8.85-11.38,13.26l-1.36,1.66-1.26,1.72-2.5,3.43-2.47,3.38-1.23,1.68-1.12,1.74-4.39,6.87-1.09,1.69c-.34.57-.65,1.17-1,1.74l-1.92,3.46a189.55,189.55,0,0,0-12.29,26.7c-1.47,4.31-2.82,8.46-4,12.42-1,4-2.07,7.82-2.93,11.41s-1.4,7-2,10.18-.89,6-1.29,8.64c-.19,1.31-.37,2.54-.53,3.7s-.23,2.32-.34,3.37c-.2,2.09-.36,3.88-.5,5.33-.27,2.89-.41,4.44-.41,4.44Z"/><path fill="#105453" d="M901,1199.35l-1.52,3.55c-1,2.32-2.49,5.69-4.25,10l-2.68,7.3c-.48,1.32-1,2.7-1.51,4.14s-.95,3-1.46,4.51l-3.09,9.94L883.54,1250c-1.88,7.81-3.77,16.31-5.28,25.39-.87,4.52-1.47,9.22-2.15,14s-1.21,9.69-1.76,14.68c-1.05,10-1.72,20.33-2.18,30.85-.22,5.27-.27,10.58-.41,15.9,0,5.33,0,10.68.06,16,.21,10.7.58,21.4,1.31,31.9s1.6,20.83,2.61,30.81,2.28,19.59,3.61,28.68,2.72,17.67,4.08,25.57,2.77,15.1,4.09,21.48,2.54,11.91,3.57,16.46,1.92,8.09,2.53,10.5l1,3.65-9.42,2.43s-.31-1.34-.88-3.85-1.34-6.13-2.28-10.77-2-10.28-3.14-16.77-2.33-13.82-3.53-21.82-2.36-16.7-3.38-25.92-2-19-2.82-29-1.43-20.52-1.76-31.13-.49-21.4-.41-32.18c.06-5.39.27-10.78.4-16.15.3-5.36.5-10.71.87-16,.76-10.58,1.73-21,3.08-31,.69-5,1.29-9.94,2.18-14.72s1.55-9.49,2.57-14c1.77-9.09,3.91-17.58,6-25.37,1.14-3.87,2.22-7.59,3.26-11.12l3.38-9.88c.55-1.54,1-3.06,1.59-4.48s1.11-2.8,1.64-4.11c1-2.64,2-5.06,2.89-7.24,1.89-4.3,3.49-7.63,4.53-9.92Z"/><path fill="#dde6ef" d="M743.91,1491.25c0,200.81,22.37,294.19,67.35,352.87a27,27,0,0,0,21.41,10.61h56.7a27,27,0,0,0,21.41-10.61c45-58.68,67.35-152.06,67.35-352.87Z"/><path d="M743.91,1491.25c0,200.81,22.37,294.19,67.35,352.87a27,27,0,0,0,21.41,10.61h56.7a27,27,0,0,0,21.41-10.61,215.38,215.38,0,0,0,14.11-20.86c-34.4-41.84-87.06-133.4-142.37-332Z" style="mix-blend-mode:multiply" fill="#ccc"/><path fill="#105453" d="M460.82,1452.33c-72.28,55.6-82,115.37-82,115.37C419.12,1530.63,460.82,1452.33,460.82,1452.33Z"/><path fill="#146967" d="M990.87,1074.25c-72.28,55.6-82,115.37-82,115.37C949.17,1152.56,990.87,1074.25,990.87,1074.25Z"/><path fill="#105453" d="M507.16,1426.38c-36.14,22.24-33.83,63.48-44.48,80.62,13.43-1.39,23.63-16.22,27.8-41.7S507.16,1426.38,507.16,1426.38Z"/><path fill="#105453" d="M567.85,1396.73c-32,45.4-26.41,58.84-25,89.42s.46,34.29.46,34.29c17.15-26.88,22.71-53.75,19.93-78.77A107.76,107.76,0,0,1,567.85,1396.73Z"/><path fill="#0e4a49" d="M613.26,1384.68c-29.19,22.24-26.41,26.41-33.36,62.09s-9.27,43.09-9.27,43.09c15.29-17.61,26.41-41.24,30.58-61.63S613.26,1384.68,613.26,1384.68Z"/><path fill="#105453" d="M876.57,1327.11c36.47,4.1,37.34-.84,67-21.82s36.48-24.73,36.48-24.73c-23.22,2.15-47.59,11.55-64.69,23.4S876.57,1327.11,876.57,1327.11Z"/><path fill="#0b3b3a" d="M682.29,1378.2c-35.67,8.8-35.67-7.88-51,34.28s-32.44,71.35-32.44,71.35c23.17-14.82,45.87-34.75,55.14-62.08A107.61,107.61,0,0,1,682.29,1378.2Z"/><path fill="#0b3b3a" d="M715.65,1393.49c-40.77,20.85-47.26,66.71-62.08,81.08C689.71,1466.23,715.65,1393.49,715.65,1393.49Z"/><path fill="#0b3b3a" d="M755.5,1419.43c-47.26,10.66-64.87,51.89-64.87,51.89C716.58,1469.93,755.5,1419.43,755.5,1419.43Z"/><path fill="#0b3b3a" d="M781.91,1449.08c-29.19,16.22-32,31.51-32,31.51C783.3,1465.3,781.91,1449.08,781.91,1449.08Z"/><path fill="#0b3b3a" d="M782.37,1427.31c-2.78-42.16-34.75-76.91-34.75-76.91C751.33,1387,782.37,1427.31,782.37,1427.31Z"/><path fill="#0b3b3a" d="M740.67,1387.93s-50.65-57.07-53.83-82.6C656.81,1345.76,740.67,1387.93,740.67,1387.93Z"/><path fill="#0e4a49" d="M667,1367.54c-22.7-26-89.42-37.07-122.32-48.65C574.34,1354.1,635.5,1368,667,1367.54Z"/><path fill="#105453" d="M582.21,1378.66c-32.43-14.36-92.2-1.39-117.68-8.34C506.23,1395.8,534,1393.49,582.21,1378.66Z"/><path fill="#105453" d="M885.8,1276.24c34.75-7.12,75.91-52.36,100.7-61.48C937.75,1218.19,916.45,1236.21,885.8,1276.24Z"/><path fill="#105453" d="M512.72,1413c-37.53-11.59-54.21,2.31-104.25,9.73C459.9,1441.21,512.72,1413,512.72,1413Z"/><path fill="#105453" d="M880.54,1230c12.29-37.3-1.29-54.24-7.76-104.41C853.28,1176.69,880.54,1230,880.54,1230Z"/><path fill="#146967" d="M617.43,1228.37c-28.85-22.76-88.79-28.67-88.79-28.67C564.61,1241.92,617.43,1228.37,617.43,1228.37Z"/><path fill="#125e5d" d="M639.2,1241.05c-44.48-7.87-59.77,16.68-73.2,29.19C606.77,1270.7,630.4,1241.51,639.2,1241.05Z"/><path fill="#125e5d" d="M645.69,1233.18c-18.07-28.27-21.31-30.12-29.65-53.29C609.55,1209.08,630.86,1223,645.69,1233.18Z"/><path fill="#105453" d="M681.37,1264.68c-34.75-8.8-48.65,15.29-76.92,19.92C667.93,1286.46,681.37,1264.68,681.37,1264.68Z"/><path fill="#105453" d="M691.1,1257.73c-33.83-23.17-26-19.46-36.14-46.79s-12.05-29.66-12.05-29.66C675.81,1215.57,691.1,1257.73,691.1,1257.73Z"/><path fill="#105453" d="M717.51,1293.41c-37.53-10.66-70,3.7-70,3.7C690.17,1307.31,717.51,1293.41,717.51,1293.41Z"/><path fill="#105453" d="M748.08,1303.14c-25.94-20.85-27.33-45-32.89-63A304,304,0,0,0,705,1211.4C739.28,1248.46,748.08,1303.14,748.08,1303.14Z"/><path fill="#0b3b3a" d="M762,1320.28c-10.65-38.46,0-55.6-.46-74.13C776.81,1295.26,762,1320.28,762,1320.28Z"/><path fill="#0b3b3a" d="M781,1354.57c-.17-.58-.34-1.16-.5-1.74-8.84-31.73,7.25-56.25,7.25-56.64C795.71,1328,781,1354.57,781,1354.57Z"/><path fill="#146967" d="M601.21,973.71c-21.78-46.33-71.81-70.89-71.81-70.89C541.44,958,601.21,973.71,601.21,973.71Z"/><path fill="#146967" d="M610.65,986.66c-78.94-37.5-141.95-4.14-141.95-4.14C560.44,999.2,548.27,980.16,610.65,986.66Z"/><path fill="#146967" d="M651.71,1031.17c-27.33-28.73-67.18-17.15-101.93-9.73C593.33,1033.48,646.15,1027.92,651.71,1031.17Z"/><path fill="#146967" d="M685.07,1048.31c-41.7-51.43-44.48-67.65-53.74-101C678.59,983.91,685.07,1048.31,685.07,1048.31Z"/><path fill="#125e5d" d="M711.48,1087.23c-15.29-50.5-14.36-42.63-11.12-76.45S699,953.33,699,953.33c36.6,57.91,32.44,76.45,25.49,102.85s-4.64,44.48-4.64,44.48Z"/><path fill="#125e5d" d="M709.63,1107.15c-45.87-53.75-120.93-50-120.93-50C647.08,1103.91,709.63,1107.15,709.63,1107.15Z"/><path fill="#105453" d="M748.45,1149.24c31-45.11,13.22-100.56,13.22-100.56C738.34,1101.76,748.45,1149.24,748.45,1149.24Z"/><path fill="#105453" d="M788.76,1230.78c31-45.11,13.22-100.55,13.22-100.55C778.65,1183.31,788.76,1230.78,788.76,1230.78Z"/><path fill="#125e5d" d="M728.16,1139.58c-20.38-30.11-70-7.41-101.93-19.46C655.88,1152.09,718.9,1134.49,728.16,1139.58Z"/><path fill="#105453" d="M748.08,1171.09c-30.57-17.14-46.79-.93-74.59-8.34C714.26,1186.84,742.06,1166.46,748.08,1171.09Z"/><path fill="#0b3b3a" d="M831.74,1209.33c-20.47,28.46-6.18,46.4-16.68,73.19C843.59,1244.71,826.46,1214.8,831.74,1209.33Z"/><path fill="#146967" d="M1142.84,1218.35c24.09-57.45,53.74-62.09,80.62-80.62C1188.24,1214.64,1142.84,1218.35,1142.84,1218.35Z"/><path fill="#146967" d="M1094.65,1253.56c20.39-25.94,18.54-51,27.8-77.84s15.75-37.06,15.75-37.06C1063.15,1201.67,1094.65,1253.56,1094.65,1253.56Z"/><path fill="#146967" d="M1050.17,1293.41c26.88-32.44,24.1-57.45,29.66-88s15.75-51,15.75-51C1034.42,1210.94,1053.89,1281.83,1050.17,1293.41Z"/><path fill="#105453" d="M1002.91,1321.21c36.14-49.12,34.29-105.64,34.29-105.64C999.21,1289.7,1002.91,1321.21,1002.91,1321.21Z"/><path fill="#105453" d="M1076.12,1303.6c56.52-34.29,105.64-34.29,105.64-34.29C1144.69,1303.6,1076.12,1303.6,1076.12,1303.6Z"/><path fill="#105453" d="M994.57,1355.49c64.87-30.58,70.43-22.24,113.06-16.68s68.57,0,68.57,0c-63,38.92-90.81,25-124.17,20.39S994.57,1355.49,994.57,1355.49Z"/><path fill="#0b3b3a" d="M964,1394.41c56.53-18.53,126-.92,123.25-.92C1003.84,1427.77,964,1394.41,964,1394.41Z"/><path fill="#0b3b3a" d="M931.56,1429.63c76-.93,101.93,25.94,101.93,25.94C980.67,1467.62,931.56,1429.63,931.56,1429.63Z"/><rect width="287.48" height="453.66" x="1802.09" y="1401.13" fill="#0d3245"/><rect width="153.05" height="453.66" x="1936.51" y="1401.13" fill="#144b69"/><path fill="#0d3245" d="M1995,1524.35h37.4c-.83-22.76-17.1-41-37.4-42.09Z"/><path fill="#0d3245" d="M1991.33,1524.35v-42.09c-20.3,1-36.57,19.33-37.4,42.09Z"/><path fill="#0d3245" d="M1995,1528v42.09c20.3-1,36.57-19.33,37.4-42.09Z"/><path fill="#0d3245" d="M1991.33,1528h-37.4c.83,22.76,17.1,41,37.4,42.09Z"/><path fill="#18597d" d="M1991.33,1524.35v-36.83c-17.71,1-31.89,17-32.71,36.83Z"/><path fill="#18597d" d="M1995,1524.35h32.71c-.82-19.86-15-35.8-32.71-36.83Z"/><path fill="#18597d" d="M1995,1528v36.83c17.71-1,31.89-17,32.71-36.83Z"/><path fill="#18597d" d="M1991.33,1528h-32.71c.82,19.86,15,35.8,32.71,36.83Z"/><path fill="#0d3245" d="M1995,1524.35h26.27c-.81-15.88-12.11-28.6-26.27-29.62Z"/><path fill="#0d3245" d="M1991.33,1524.35v-29.62c-14.15,1-25.46,13.74-26.27,29.62Z"/><path fill="#0d3245" d="M1991.33,1528h-26.27c.81,15.88,12.12,28.6,26.27,29.62Z"/><path fill="#0d3245" d="M1995,1528v29.62c14.16-1,25.46-13.74,26.27-29.62Z"/><path fill="#18597d" d="M1991.33,1524.35v-21.61c-10.22,1-18.33,10.14-19.12,21.61Z"/><path fill="#18597d" d="M1995,1524.35h19.12c-.79-11.47-8.9-20.63-19.12-21.61Z"/><path fill="#18597d" d="M1991.33,1528h-19.12c.79,11.47,8.9,20.63,19.12,21.61Z"/><path fill="#18597d" d="M1995,1528v21.61c10.22-1,18.33-10.14,19.12-21.61Z"/><ellipse cx="1993.16" cy="1526.17" fill="#0d3245" rx="11.12" ry="12.45"/><rect width="94.98" height="141.31" x="1949.49" y="1591.33" fill="#0d3245"/><rect width="85.25" height="11.58" x="1954.35" y="1601.52" fill="#18597d"/><rect width="85.25" height="11.58" x="1954.35" y="1630.71" fill="#18597d"/><rect width="85.25" height="11.58" x="1954.35" y="1659.9" fill="#18597d"/><rect width="85.25" height="11.58" x="1954.35" y="1689.09" fill="#18597d"/><rect width="52.36" height="53.75" x="2019.91" y="1420.82" fill="#0d3245"/><ellipse cx="2029.64" cy="1431.01" fill="#144b69" rx="2.32" ry="3.24"/><ellipse cx="2044.93" cy="1431.01" fill="#144b69" rx="2.32" ry="3.24"/><ellipse cx="2058.83" cy="1431.01" fill="#144b69" rx="2.32" ry="3.24"/><path fill="#144b69" d="M2032,1446.3c0,1.8-1,3.25-2.32,3.25s-2.31-1.45-2.31-3.25,1-3.24,2.31-3.24S2032,1444.51,2032,1446.3Z"/><path fill="#144b69" d="M2047.25,1446.3c0,1.8-1,3.25-2.32,3.25s-2.31-1.45-2.31-3.25,1-3.24,2.31-3.24S2047.25,1444.51,2047.25,1446.3Z"/><path fill="#2b407a" d="M2083,1454.64h-20.15a7.75,7.75,0,0,1-7.76-7.76h0a7.76,7.76,0,0,1,7.76-7.76H2083a7.76,7.76,0,0,1,7.76,7.76h0A7.75,7.75,0,0,1,2083,1454.64Z"/><path fill="#2b407a" d="M1881.61,969.77h-20.15a7.76,7.76,0,0,1-7.77-7.76h0a7.77,7.77,0,0,1,7.77-7.76h20.15a7.76,7.76,0,0,1,7.76,7.76h0A7.75,7.75,0,0,1,1881.61,969.77Z"/><rect width="35.68" height="15.52" x="2026.17" y="1454.18" fill="#2b407a" rx="7.76"/><path fill="#3d5bad" d="M2090.8,1447.48l-.81,0a2.78,2.78,0,1,1,.23-5.55,13.26,13.26,0,0,0,13.79-13.23V1310.46a65.32,65.32,0,0,0-65.25-65.24,70.88,70.88,0,0,1-70.8-70.8V1059.2A104.9,104.9,0,0,0,1937,984.54a67,67,0,0,0-47.67-19.75,2.78,2.78,0,0,1,0-5.56,72.47,72.47,0,0,1,51.6,21.38,110.41,110.41,0,0,1,32.55,78.59v115.22a65.32,65.32,0,0,0,65.24,65.24,70.89,70.89,0,0,1,70.81,70.8v118.22a18.8,18.8,0,0,1-18.77,18.8Z"/><path fill="#3d5bad" d="M2062.89,1463.45h-1a2.78,2.78,0,0,1,0-5.56h1a20.3,20.3,0,0,0,20.27-20.27v-15.76a82.92,82.92,0,0,0-82.82-82.82,88.48,88.48,0,0,1-88.38-88.37v-68.52a365.7,365.7,0,0,0-70.7-216.88,2.78,2.78,0,1,1,4.49-3.27,371.17,371.17,0,0,1,71.77,220.15v68.52a82.91,82.91,0,0,0,82.82,82.81,88.48,88.48,0,0,1,88.38,88.38v15.76A25.86,25.86,0,0,1,2062.89,1463.45Z"/><rect width="35.68" height="15.52" x="1807.83" y="955.87" fill="#2b407a" rx="7.76"/><path fill="#80a6de" d="M2081.23,229.44H1311.92a27.1,27.1,0,0,0-27.11,27.1v43.78h823.52V256.54A27.1,27.1,0,0,0,2081.23,229.44Z"/><path fill="#fff" d="M1917.93,290.77h-44.84a4.22,4.22,0,0,1-4.22-4.22h0a4.22,4.22,0,0,1,4.22-4.23h44.84a4.22,4.22,0,0,1,4.22,4.23h0A4.22,4.22,0,0,1,1917.93,290.77Z"/><path fill="#fff" d="M2067.48,290.77h-44.83a4.22,4.22,0,0,1-4.22-4.22h0a4.22,4.22,0,0,1,4.22-4.23h44.83a4.23,4.23,0,0,1,4.23,4.23h0A4.22,4.22,0,0,1,2067.48,290.77Z"/><path fill="#fff" d="M2067.48,245.94h-44.83a4.22,4.22,0,0,1-4.22-4.23h0a4.22,4.22,0,0,1,4.22-4.22h44.83a4.22,4.22,0,0,1,4.23,4.22h0A4.23,4.23,0,0,1,2067.48,245.94Z"/><path fill="#fff" d="M2018.43,286.55V241.71a4.22,4.22,0,0,1,4.22-4.22h0a4.22,4.22,0,0,1,4.23,4.22v44.84a4.22,4.22,0,0,1-4.23,4.22h0A4.22,4.22,0,0,1,2018.43,286.55Z"/><path fill="#fff" d="M2063.26,286.55V241.71a4.22,4.22,0,0,1,4.22-4.22h0a4.22,4.22,0,0,1,4.23,4.22v44.84a4.22,4.22,0,0,1-4.23,4.22h0A4.22,4.22,0,0,1,2063.26,286.55Z"/><path fill="#fff" d="M1944,283.56l41.79-41.8a4.23,4.23,0,0,1,6,0h0a4.23,4.23,0,0,1,0,6L1950,289.53a4.22,4.22,0,0,1-6,0h0A4.22,4.22,0,0,1,1944,283.56Z"/><path fill="#fff" d="M1950,241.76l41.8,41.8a4.22,4.22,0,0,1,0,6h0a4.23,4.23,0,0,1-6,0L1944,247.74a4.23,4.23,0,0,1,0-6h0A4.22,4.22,0,0,1,1950,241.76Z"/><polygon fill="#6280ab" points="2176.87 440.57 2057.45 398.8 2051.56 404.7 2088.41 529.03 2117.9 499.55 2171.47 553.11 2200.95 523.63 2147.39 470.06 2176.87 440.57"/><polygon fill="#80a6de" points="2182.77 434.68 2057.45 398.8 2094.31 523.13 2123.8 493.65 2177.36 547.22 2206.85 517.73 2153.28 464.16 2182.77 434.68"/><rect width="289.12" height="150.81" x="627.85" y="181.19" fill="#a1fcff" rx="12.55"/><rect width="289.12" height="150.81" x="2356.98" y="1115.26" fill="#a1fcff" rx="12.55"/><path fill="#8ad2e1" d="M668.07,214a131.84,131.84,0,0,1,21.78-1.69c11.22,0,19.44,2.61,24.66,7.31,4.83,4.17,7.69,10.56,7.69,18.39s-2.34,14.22-6.78,18.79c-6,6.39-15.78,9.65-26.87,9.65a39.1,39.1,0,0,1-9.13-.78v35.22H668.07Zm11.35,42.4a37.6,37.6,0,0,0,9.39.92c13.69,0,22-6.66,22-18.79,0-11.61-8.21-17.22-20.74-17.22a47.49,47.49,0,0,0-10.69.92Z"/><path fill="#8ad2e1" d="M748.86,213v36.79h42.52V213h11.49v87.93H791.38V259.67H748.86v41.22H737.51V213Z"/><path fill="#8ad2e1" d="M822.61,214a132.08,132.08,0,0,1,21.79-1.69c11.22,0,19.44,2.61,24.66,7.31,4.82,4.17,7.69,10.56,7.69,18.39S874.4,252.23,870,256.8c-6,6.39-15.79,9.65-26.88,9.65a39.2,39.2,0,0,1-9.13-.78v35.22H822.61ZM834,256.4a37.69,37.69,0,0,0,9.4.92c13.69,0,22-6.66,22-18.79,0-11.61-8.21-17.22-20.74-17.22a47.66,47.66,0,0,0-10.7.92Z"/><path fill="#8ad2e1" d="M2471.87,1230.88c-4.08,2-12.23,4.08-22.68,4.08-24.22,0-42.45-15.3-42.45-43.47,0-26.89,18.23-45.12,44.86-45.12,10.71,0,17.46,2.3,20.4,3.83l-2.68,9a40.22,40.22,0,0,0-17.33-3.57c-20.14,0-33.52,12.87-33.52,35.43,0,21,12.1,34.54,33,34.54,6.75,0,13.64-1.4,18.1-3.57Z"/><path fill="#8ad2e1" d="M2484.27,1220.17a39.3,39.3,0,0,0,19.89,5.61c11.34,0,18-6,18-14.66,0-8-4.59-12.62-16.19-17.08-14-5-22.68-12.24-22.68-24.34,0-13.38,11.08-23.33,27.78-23.33,8.79,0,15.17,2,19,4.21l-3.06,9.05a34.2,34.2,0,0,0-16.32-4.08c-11.72,0-16.18,7-16.18,12.87,0,8,5.23,12,17.08,16.57,14.53,5.61,21.92,12.62,21.92,25.23,0,13.26-9.81,24.74-30.08,24.74-8.28,0-17.33-2.43-21.92-5.49Z"/><path fill="#8ad2e1" d="M2547.14,1220.17a39.3,39.3,0,0,0,19.89,5.61c11.34,0,18-6,18-14.66,0-8-4.59-12.62-16.19-17.08-14-5-22.68-12.24-22.68-24.34,0-13.38,11.08-23.33,27.78-23.33,8.79,0,15.17,2,19,4.21l-3.06,9.05a34.2,34.2,0,0,0-16.32-4.08c-11.72,0-16.18,7-16.18,12.87,0,8,5.23,12,17.08,16.57,14.53,5.61,21.92,12.62,21.92,25.23,0,13.26-9.81,24.74-30.08,24.74-8.28,0-17.33-2.43-21.92-5.49Z"/><path fill="#a1fcff" d="M2328.26,1179a13.9,13.9,0,0,0-12.17,7.18h-88.47l-74.24-192.37a13.89,13.89,0,1,0-12.82,5.38l75.81,196.44a7,7,0,0,0,6.48,4.45h93.52a13.9,13.9,0,1,0,11.89-21.08Z"/><path fill="#a1fcff" d="M944.9,270.31a13.9,13.9,0,0,0,12.17-7.18h88.47l74.24,192.37a13.89,13.89,0,1,0,12.82-5.39l-75.81-196.44a6.94,6.94,0,0,0-6.48-4.44H956.79a13.9,13.9,0,1,0-11.89,21.08Z"/><path fill="#a1fcff" d="M1093.63,549.75h0a2.86,2.86,0,0,1-2.86-2.86v-16.7a2.86,2.86,0,0,1,2.86-2.86h0a2.86,2.86,0,0,1,2.86,2.86v16.7A2.86,2.86,0,0,1,1093.63,549.75Z"/><path fill="#a1fcff" d="M1095.92,552.16h0a2.86,2.86,0,0,1,2.86-2.86h16.7a2.86,2.86,0,0,1,2.86,2.86h0a2.86,2.86,0,0,1-2.86,2.86h-16.7A2.86,2.86,0,0,1,1095.92,552.16Z"/><path fill="#a1fcff" d="M1093.63,555.27h0a2.86,2.86,0,0,1,2.86,2.86v16.7a2.86,2.86,0,0,1-2.86,2.86h0a2.86,2.86,0,0,1-2.86-2.86v-16.7A2.86,2.86,0,0,1,1093.63,555.27Z"/><path fill="#a1fcff" d="M1091.2,552.16h0a2.86,2.86,0,0,1-2.86,2.86h-16.7a2.86,2.86,0,0,1-2.86-2.86h0a2.86,2.86,0,0,1,2.86-2.86h16.7A2.86,2.86,0,0,1,1091.2,552.16Z"/><path fill="#8ad2e1" d="M2052,169.71h0a2.86,2.86,0,0,1-2.86-2.86v-16.7a2.86,2.86,0,0,1,2.86-2.86h0a2.86,2.86,0,0,1,2.86,2.86v16.7A2.86,2.86,0,0,1,2052,169.71Z"/><rect width="22.42" height="5.72" x="2054.33" y="169.25" fill="#8ad2e1" rx="2.86"/><path fill="#8ad2e1" d="M2052,175.23h0a2.86,2.86,0,0,1,2.86,2.86v16.7a2.86,2.86,0,0,1-2.86,2.86h0a2.86,2.86,0,0,1-2.86-2.86v-16.7A2.86,2.86,0,0,1,2052,175.23Z"/><rect width="22.42" height="5.72" x="2027.19" y="169.25" fill="#8ad2e1" rx="2.86"/><path fill="#a1fcff" d="M2310.91,1121.44h0a2.86,2.86,0,0,1-2.86-2.86v-16.7a2.86,2.86,0,0,1,2.86-2.86h0a2.86,2.86,0,0,1,2.86,2.86v16.7A2.86,2.86,0,0,1,2310.91,1121.44Z"/><path fill="#a1fcff" d="M2313.2,1123.84h0a2.86,2.86,0,0,1,2.86-2.86h16.7a2.86,2.86,0,0,1,2.86,2.86h0a2.86,2.86,0,0,1-2.86,2.86h-16.7A2.86,2.86,0,0,1,2313.2,1123.84Z"/><path fill="#a1fcff" d="M2310.91,1127h0a2.86,2.86,0,0,1,2.86,2.86v16.7a2.86,2.86,0,0,1-2.86,2.86h0a2.86,2.86,0,0,1-2.86-2.86v-16.7A2.86,2.86,0,0,1,2310.91,1127Z"/><path fill="#a1fcff" d="M2308.48,1123.84h0a2.86,2.86,0,0,1-2.86,2.86h-16.7a2.86,2.86,0,0,1-2.86-2.86h0a2.86,2.86,0,0,1,2.86-2.86h16.7A2.86,2.86,0,0,1,2308.48,1123.84Z"/><path fill="#a1fcff" d="M473.2,658.48h0a2.86,2.86,0,0,1-2.86-2.85V638.92a2.86,2.86,0,0,1,2.86-2.86h0a2.86,2.86,0,0,1,2.86,2.86v16.71A2.86,2.86,0,0,1,473.2,658.48Z"/><path fill="#a1fcff" d="M475.49,660.89h0a2.86,2.86,0,0,1,2.86-2.86h16.7a2.86,2.86,0,0,1,2.86,2.86h0a2.86,2.86,0,0,1-2.86,2.86h-16.7A2.86,2.86,0,0,1,475.49,660.89Z"/><path fill="#a1fcff" d="M473.2,664h0a2.86,2.86,0,0,1,2.86,2.86v16.71a2.86,2.86,0,0,1-2.86,2.86h0a2.86,2.86,0,0,1-2.86-2.86V666.86A2.86,2.86,0,0,1,473.2,664Z"/><path fill="#a1fcff" d="M470.77,660.89h0a2.86,2.86,0,0,1-2.86,2.86h-16.7a2.86,2.86,0,0,1-2.86-2.86h0a2.86,2.86,0,0,1,2.86-2.86h16.7A2.86,2.86,0,0,1,470.77,660.89Z"/><path fill="#a1fcff" d="M2364.61,1728.92h0a2.86,2.86,0,0,1-2.86-2.86v-16.71a2.86,2.86,0,0,1,2.86-2.86h0a2.86,2.86,0,0,1,2.86,2.86v16.71A2.86,2.86,0,0,1,2364.61,1728.92Z"/><path fill="#a1fcff" d="M2366.9,1731.32h0a2.86,2.86,0,0,1,2.86-2.86h16.7a2.86,2.86,0,0,1,2.86,2.86h0a2.86,2.86,0,0,1-2.86,2.86h-16.7A2.86,2.86,0,0,1,2366.9,1731.32Z"/><path fill="#a1fcff" d="M2364.61,1734.44h0a2.86,2.86,0,0,1,2.86,2.86V1754a2.86,2.86,0,0,1-2.86,2.86h0a2.86,2.86,0,0,1-2.86-2.86v-16.7A2.86,2.86,0,0,1,2364.61,1734.44Z"/><path fill="#a1fcff" d="M2362.18,1731.32h0a2.86,2.86,0,0,1-2.86,2.86h-16.7a2.86,2.86,0,0,1-2.86-2.86h0a2.86,2.86,0,0,1,2.86-2.86h16.7A2.86,2.86,0,0,1,2362.18,1731.32Z"/></g></svg>