<svg xmlns="http://www.w3.org/2000/svg" viewBox="0 0 100 100"><circle cx="30.67" cy="30.67" r="1.5"/><circle cx="21" cy="30.67" r="1.5"/><circle cx="50" cy="30.67" r="1.5"/><circle cx="40.33" cy="30.67" r="1.5"/><circle cx="59.67" cy="30.67" r="1.5"/><circle cx="69.33" cy="30.67" r="1.5"/><circle cx="79" cy="30.67" r="1.5"/><circle cx="30.67" cy="40.33" r="1.5"/><circle cx="21" cy="40.33" r="1.5"/><circle cx="50" cy="40.33" r="1.5"/><circle cx="40.33" cy="40.33" r="1.5"/><circle cx="59.67" cy="40.33" r="1.5"/><circle cx="69.33" cy="40.33" r="1.5"/><circle cx="79" cy="40.33" r="1.5"/><circle cx="30.67" cy="50" r="1.5"/><circle cx="21" cy="50" r="1.5"/><circle cx="50" cy="50" r="1.5"/><circle cx="40.33" cy="50" r="1.5"/><circle cx="59.67" cy="50" r="1.5"/><circle cx="69.33" cy="50" r="1.5"/><circle cx="79" cy="50" r="1.5"/><circle cx="30.67" cy="59.67" r="1.5"/><circle cx="21" cy="59.67" r="1.5"/><circle cx="50" cy="59.67" r="1.5"/><circle cx="40.33" cy="59.67" r="1.5"/><circle cx="59.67" cy="59.67" r="1.5"/><circle cx="69.33" cy="59.67" r="1.5"/><circle cx="79" cy="59.67" r="1.5"/><circle cx="30.67" cy="69.33" r="1.5"/><circle cx="21" cy="69.33" r="1.5"/><circle cx="50" cy="69.33" r="1.5"/><circle cx="40.33" cy="69.33" r="1.5"/><circle cx="59.67" cy="69.33" r="1.5"/><circle cx="69.33" cy="69.33" r="1.5"/><circle cx="79" cy="69.33" r="1.5"/><circle cx="30.67" cy="79" r="1.5"/><circle cx="21" cy="79" r="1.5"/><circle cx="50" cy="79" r="1.5"/><circle cx="40.33" cy="79" r="1.5"/><circle cx="59.67" cy="79" r="1.5"/><circle cx="69.33" cy="79" r="1.5"/><circle cx="79" cy="79" r="1.5"/><circle cx="30.67" cy="21" r="1.5"/><circle cx="21" cy="21" r="1.5"/><circle cx="50" cy="21" r="1.5"/><circle cx="40.33" cy="21" r="1.5"/><circle cx="59.67" cy="21" r="1.5"/><circle cx="69.33" cy="21" r="1.5"/><circle cx="79" cy="21" r="1.5"/></svg>