<svg xmlns="http://www.w3.org/2000/svg" data-name="Layer 1" viewBox="0 0 200 175"><rect width="115.37" height="1.15" x="33.91" y="144.24" fill="#0e0e27"/><path fill="#006aa4" d="M148.27,92.37l4.35-2.54A32.21,32.21,0,0,0,150,83.92l-4.79,1.59a27.18,27.18,0,0,0-2.27-3,26,26,0,0,0-2.66-2.69l2.28-4.5a31.06,31.06,0,0,0-5.45-3.52l-3.15,3.92a27,27,0,0,0-7.25-2.17l-.5-5a31.38,31.38,0,0,0-6.5,0l-.53,4.9a26.79,26.79,0,0,0-7.3,2.09l-3-3.8a31.64,31.64,0,0,0-5.48,3.55l2.15,4.28-.09.08a26.42,26.42,0,0,0-5,5.66L96,83.82a31.5,31.5,0,0,0-2.71,6l4,2.38a26.71,26.71,0,0,0-1.13,7.58l-4.45,1.1a31.07,31.07,0,0,0,.93,6.49l4.54-.16a26.74,26.74,0,0,0,3.17,7l-3.1,3.29a32.84,32.84,0,0,0,2,2.6,31.84,31.84,0,0,0,2.27,2.37l3.71-2.57A26.76,26.76,0,0,0,111.7,124l-.84,4.47a31,31,0,0,0,6.28,1.87l1.75-4.23a26.29,26.29,0,0,0,7.67,0l1.75,4.31a31.25,31.25,0,0,0,6.29-1.79l-.84-4.63a26.76,26.76,0,0,0,6.33-4.05l.09-.08,3.92,2.75a31,31,0,0,0,4.32-4.88l-3.31-3.55a26.15,26.15,0,0,0,3.15-6.92l4.93.21a31.14,31.14,0,0,0,1-6.43l-4.82-1.23A26.59,26.59,0,0,0,148.27,92.37Zm-25.92,25a17.91,17.91,0,1,1,18.54-17.27A17.91,17.91,0,0,1,122.35,117.39Z"/><rect width="16.73" height="113.97" x="101.12" y="25.09" fill="#ffb230" transform="rotate(-10.33 109.52 82.118)"/><polygon fill="#00162c" points="110.47 134.36 114.48 133.63 114.39 133.13 110.38 133.86 110.47 134.36"/><rect width="4.07" height=".51" x="109.61" y="129.2" fill="#00162c" transform="rotate(-10.33 111.657 129.434)"/><polygon fill="#00162c" points="108.91 125.79 116.48 124.41 116.39 123.91 108.82 125.29 108.91 125.79"/><rect width="4.07" height=".51" x="107.99" y="120.3" fill="#00162c" transform="rotate(-10.34 110.042 120.604)"/><rect width="4.07" height=".51" x="107.21" y="116.01" fill="#00162c" transform="rotate(-10.33 109.277 116.281)"/><rect width="7.7" height=".51" x="106.4" y="111.4" fill="#00162c" transform="rotate(-10.33 110.2 111.624)"/><rect width="4.07" height=".51" x="105.58" y="107.11" fill="#00162c" transform="rotate(-10.33 107.578 107.316)"/><polygon fill="#00162c" points="104.88 103.69 108.89 102.96 108.8 102.46 104.79 103.19 104.88 103.69"/><rect width="7.7" height=".51" x="103.99" y="98.22" fill="#00162c" transform="rotate(-10.34 107.757 98.446)"/><rect width="4.07" height=".51" x="103.18" y="93.92" fill="#00162c" transform="rotate(-10.33 105.197 94.163)"/><rect width="4.07" height=".51" x="102.4" y="89.63" fill="#00162c" transform="rotate(-10.33 104.416 89.854)"/><rect width="7.7" height=".51" x="101.58" y="85.03" fill="#00162c" transform="rotate(-10.34 105.385 85.25)"/><rect width="4.07" height=".51" x="100.77" y="80.73" fill="#00162c" transform="rotate(-10.33 102.817 81.01)"/><polygon fill="#00162c" points="100.07 77.31 104.08 76.58 103.99 76.08 99.98 76.81 100.07 77.31"/><rect width="7.7" height=".51" x="99.18" y="71.84" fill="#00162c" transform="rotate(-10.34 103.014 72.054)"/><rect width="4.07" height=".51" x="98.37" y="67.54" fill="#00162c" transform="rotate(-10.34 100.39 67.805)"/><polygon fill="#00162c" points="97.66 64.12 101.67 63.39 101.58 62.89 97.57 63.62 97.66 64.12"/><rect width="7.7" height=".51" x="96.77" y="58.65" fill="#00162c" transform="rotate(-10.34 100.587 58.853)"/><rect width="4.07" height=".51" x="95.96" y="54.35" fill="#00162c" transform="rotate(-10.33 98.012 54.588)"/><rect width="4.07" height=".51" x="95.18" y="50.06" fill="#00162c" transform="matrix(.98 -.18 .18 .98 -7.45 18.25)"/><rect width="7.7" height=".51" x="94.37" y="45.46" fill="#00162c" transform="rotate(-10.34 98.155 45.708)"/><rect width="4.07" height=".51" x="93.55" y="41.16" fill="#00162c" transform="matrix(.98 -.18 .18 .98 -5.88 17.82)"/><rect width="4.07" height=".51" x="92.77" y="36.87" fill="#00162c" transform="rotate(-10.33 94.795 37.121)"/><polygon fill="#00162c" points="92.07 33.46 99.64 32.08 99.55 31.58 91.98 32.96 92.07 33.46"/><path fill="#009f9d" d="M156.22,63.35l-10.74-7.17,7.22-10.82a15,15,0,1,0,10.85,7Z"/><path fill="#009f9d" d="M163.56,51.79l-7.42,11.12-10.22-6.82,7.32-11-.5-.06a15,15,0,0,0-5,.17,15.3,15.3,0,1,0,15.75,23.5,15.37,15.37,0,0,0,.29-16.53ZM163,68.38a14.69,14.69,0,1,1-15.1-22.54,14.78,14.78,0,0,1,4.25-.22l-7.11,10.64,11.26,7.52L163.54,53A14.74,14.74,0,0,1,163,68.38Z"/><rect width="58.83" height="10.97" x="99.21" y="87.95" fill="#009f9d" transform="rotate(-56.27 128.632 93.433)"/><path fill="#009f9d" d="M107.47,114.68l-.18.25,9.65,6.44,32.84-49.18.17-.26-9.65-6.44Zm9.3,5.83-8.61-5.75,32.32-48.4,8.6,5.75Z"/><path d="M74.7,50.87c-5.63,2.9,10,14.15,10,14.15a41.75,41.75,0,0,0,1.14-9.32C85.86,50.78,80.32,48,74.7,50.87Z"/><path fill="#ffb99c" d="M84.62,62.3c-.22-6.59-11.51-10.59-16.24-7.9S64,66.53,64,66.53c-2.64-.1-4.41,1.55-4.2,4.19a6.58,6.58,0,0,0,3.32,5.11,98.21,98.21,0,0,1-1.82,16.22s5.21,5.66,13.1,4.5c5-.75,3.53-4.45,3.53-4.45-.23-2.69-1.17-7.94-1.17-7.94,9.35,0,9.93-12.5,8.46-15.4C84.1,66.48,84.69,64.58,84.62,62.3Z"/><path d="M71.4,64.39l.27.31a6.32,6.32,0,0,1,4.63-1.53l.06-.42A6.65,6.65,0,0,0,71.4,64.39Z"/><path d="M83.68,64.84a8.17,8.17,0,0,1-3.9-1.13l-.23.35a8.41,8.41,0,0,0,4.13,1.2h0v-.42Z"/><path d="M80.36,71.55c-.51,0-1,.31-1.55,1l.34.24c.42-.59.81-.89,1.18-.86s.63.47.64.47l.37-.19A1.34,1.34,0,0,0,80.36,71.55Z"/><path d="M74.11,67.1H72.88a.74.74,0,0,0-.14.87.77.77,0,0,0,1.06.2.78.78,0,0,0,.34-1Z"/><path d="M83,67.1H81.82a.72.72,0,0,0-.15.87.77.77,0,0,0,1.06.2.78.78,0,0,0,.35-1S83.05,67.12,83,67.1Z"/><path d="M73.85,74.66l-.32.28a4.42,4.42,0,0,0,3,1.64,2,2,0,0,0,1.24-.42l-.25-.33C75.89,77,73.87,74.69,73.85,74.66Z"/><path d="M65.34,77.65l-.37.2c3.26,6.21,11.83,6.52,11.92,6.52V84C76.82,84,68.49,83.64,65.34,77.65Z"/><path d="M62.5,72.63a1.81,1.81,0,0,1-.87-1.22,2.61,2.61,0,0,1,.84-2.83,1.13,1.13,0,0,1,1.38,0l.26-.33a1.56,1.56,0,0,0-1.88,0,3,3,0,0,0-1,3.29A2.26,2.26,0,0,0,62.31,73a2.22,2.22,0,0,0,1,.23,2.63,2.63,0,0,0,.82-.13l-.14-.4A2.07,2.07,0,0,1,62.5,72.63Z"/><path d="M62.41,70.22A1.43,1.43,0,0,1,62.08,69l-.42,0a1.83,1.83,0,0,0,.47,1.63,1.41,1.41,0,0,0,.95.32,2.08,2.08,0,0,0,.34,0l-.09-.41A1.16,1.16,0,0,1,62.41,70.22Z"/><path d="M69.45,48.84a6.81,6.81,0,0,0-5,3.08c-6.24,0-9.44,1.31-11,10-1.2,6.88,3.44,13.22,4.36,14.08a30.49,30.49,0,0,0,5.27,3.68c1-1,.61-3.35.07-3.83-.75-.7-2.6-2.23-3.06-3.75a9.86,9.86,0,0,1-.21-1.78c0-2.45,3.34-3.87,4.43-3.65,1.27.25,2.15,1.33,2.15-.82,0-1.85.31-6.62,4.43-6.62s6.73-3,5.42-6.44S72.81,48.57,69.45,48.84Z"/><path fill="#fff" d="M80.45,88.32l-6.84,4.23L58.84,88.32c-9.76,0-21.87,52-21.87,52H101.9L99.12,103C97.77,94.55,89.82,88.32,80.45,88.32Z"/><path fill="#dddae8" d="M77.23,87c-.07.79,1.41,3-2.17,3-4.18,0-11.45-5.22-12.56-6-2,0-3.66,4.26-3.66,4.26l8.55,8.49,8.07-6.29,7,5.51C82.44,88.78,77.23,87,77.23,87Z"/><path fill="#ff5452" d="M82.43,88.13,69.85,144.4H103l-3.89-41.74C97.87,94.87,90.92,88.94,82.43,88.13Z"/><path fill="#ff5452" d="M57.41,88c-9.76,0-15.86,8.88-16.95,19.78-1,10.18-4.59,36.58-4.59,36.58H76C67.52,118,58.84,88,58.84,88Z"/><path d="M58.13,97.23s5.35,4.55,9.52,25.86H58.13Z"/><path d="M43.44,121.89s-1.79,20.55,22.74,22.23c29.15,2,22.83-33.89,22.83-33.89L73.44,128.35l-20.88-1.89Z"/><path fill="#ffb99c" d="M82.22,89.74s.72,1,1.54.87c0,0,1.07,3,2.39,1.91s-1.29-5.06-1.29-5.06-.22-1.09-.32-1.32A5.19,5.19,0,0,0,82.7,84.4c-1.09-.64-3.07-1.57-3.07-1.57s1.58.09,2.07-.4,0-1.57-1.4-1.84-2-1.12-3.61-.66a34.76,34.76,0,0,0-4,1.66c-1,.37-1,3.63-2.08,8s5.26,3.69,6.66,9.57c.77,3.21-5.19,13.94-5.86,21.23H86s.78-17.53.78-20.13c0-1.58,2-2-1-5C82.32,91.79,81.2,91.94,82.22,89.74Z"/><path fill="#fff" d="M71.89,113.65H88.47c.15-3.72.3-7.74.38-10.48-3.93-.28-12.12-3.73-12.14-3.74C75.62,102.38,73.49,108,71.89,113.65Z"/><path fill="#ff5452" d="M65.65,121.51S60,93,53.27,92.05c-8.16-1.18-12,31.38-12,31.38s13,20.83,26.86,20.83c14.8,0,20.67-26.78,20.89-34-4.45-.32-15.06-6.66-15.09-6.67C71.68,107.53,68,113.84,65.65,121.51Z"/><path d="M79.51,87.7a14.3,14.3,0,0,0-1.76,2.2l.35.23A14.36,14.36,0,0,1,79.8,88c.83-.79,2.11-1.59,2.7-1.51a8,8,0,0,1,2.24,1.14l.24-.35a8.76,8.76,0,0,0-2.43-1.21C81.68,86,80.22,87,79.51,87.7Z"/><path d="M73.61,86.82l.33.25s2.41-3.13,4.91-4.25l-.17-.39C76.08,83.6,73.71,86.69,73.61,86.82Z"/><path d="M79.65,84.53c-1.87.58-4.29,3.06-4.39,3.16l.3.29s2.45-2.5,4.22-3,4.64,2.19,4.67,2.22l.29-.31C84.61,86.72,81.6,83.93,79.65,84.53Z"/><path fill="#ff5452" d="M115.65,140c-3.81,0-15.82-.59-15.82,1.22s12,5.34,15.82,5.34,6.89-1.47,6.89-3.28S119.45,140,115.65,140Z"/><path d="M71.26,95.68a2.18,2.18,0,0,0-.17,1.66c.1.43,6.61,27,7.67,31.3.36,1.48.32,3,1.84,3L72.18,95.1S71.47,95.3,71.26,95.68Z"/><path fill="#dddae8" d="M122.22,95H72.48a1.07,1.07,0,0,0-1,1.33L80,129.88l52.28-.06-8.55-33.65A1.5,1.5,0,0,0,122.22,95Z"/><polygon points="72.8 97.03 80.5 127.32 130.7 127.32 123.01 97.03 72.8 97.03"/><polygon fill="#3700ff" points="101.43 106.01 101.53 106.45 112.1 106.38 111.99 105.94 101.43 106.01"/><polygon fill="#3700ff" points="93.5 110.21 93.61 110.65 101.33 110.61 101.23 110.16 93.5 110.21"/><polygon fill="#3700ff" points="102.92 119.47 103.03 119.91 110.88 119.86 110.77 119.42 102.92 119.47"/><polygon fill="#bcb5d1" points="107.17 112.49 107.28 112.93 113.66 112.89 113.55 112.45 107.17 112.49"/><polygon fill="#fff" points="107.58 114.83 107.69 115.27 111.38 115.25 111.27 114.81 107.58 114.83"/><polygon fill="#bcb5d1" points="85.45 116.71 85.56 117.15 100.48 117.06 100.37 116.62 85.45 116.71"/><polygon fill="#3700ff" points="110.67 116.55 110.78 116.99 114.63 116.97 114.52 116.53 110.67 116.55"/><polygon fill="#fff" points="105.7 108.05 105.81 108.5 112.59 108.45 112.49 108.01 105.7 108.05"/><polygon fill="#fff" points="114.73 108.05 114.84 108.5 121.63 108.45 121.52 108.01 114.73 108.05"/><polygon fill="#fff" points="102.61 110.16 102.71 110.6 113.09 110.53 112.99 110.09 102.61 110.16"/><polygon fill="#fff" points="84.64 112.63 84.75 113.07 96.27 113 96.16 112.56 84.64 112.63"/><polygon fill="#fff" points="98.73 112.54 98.83 112.98 104.47 112.95 104.36 112.51 98.73 112.54"/><polygon fill="#fff" points="83.54 108.14 83.65 108.58 95.86 108.5 95.76 108.06 83.54 108.14"/><polygon fill="#fff" points="103.11 114.79 103.22 115.24 105.92 115.22 105.81 114.78 103.11 114.79"/><polygon fill="#fff" points="113.02 119.35 113.13 119.79 115.3 119.77 115.19 119.33 113.02 119.35"/><polygon fill="#fff" points="98.18 108.1 98.29 108.54 104.66 108.5 104.55 108.06 98.18 108.1"/><polygon fill="#3700ff" points="86.69 119.59 86.8 120.03 101.23 119.94 101.13 119.5 86.69 119.59"/><polygon fill="#3700ff" points="112.3 124.78 112.41 125.22 116.59 125.19 116.49 124.75 112.3 124.78"/><polygon fill="#bcb5d1" points="92.45 124.78 92.56 125.22 100.64 125.17 100.54 124.73 92.45 124.78"/><polygon fill="#fff" points="111.38 120.99 111.48 121.43 115.69 121.41 115.58 120.97 111.38 120.99"/><polygon fill="#bcb5d1" points="101.41 122.91 101.52 123.35 112.82 123.28 112.71 122.84 101.41 122.91"/><polygon fill="#fff" points="91.16 121.22 91.26 121.66 99.98 121.61 99.88 121.17 91.16 121.22"/><polygon fill="#fff" points="82.88 122.95 82.99 123.39 100.07 123.28 99.97 122.84 82.88 122.95"/><polygon fill="#fff" points="83.34 124.84 83.45 125.28 89.52 125.24 89.42 124.8 83.34 124.84"/><polygon fill="#fff" points="106.56 120.97 106.67 121.41 109.58 121.39 109.47 120.95 106.56 120.97"/><polygon fill="#fff" points="82.47 121.27 82.58 121.71 89.44 121.67 89.34 121.23 82.47 121.27"/><polygon fill="#04fb99" points="83.11 106.17 83.22 106.61 90.61 106.56 90.5 106.12 83.11 106.17"/><polygon fill="#04fb99" points="113.58 106.17 113.69 106.61 121.08 106.56 120.97 106.12 113.58 106.17"/><polygon fill="#04fb99" points="84.11 110.27 84.22 110.71 91.61 110.66 91.5 110.22 84.11 110.27"/><polygon fill="#04fb99" points="85.11 114.37 85.22 114.81 92.61 114.76 92.51 114.32 85.11 114.37"/><polygon fill="#04fb99" points="85.31 115.19 85.42 115.63 88 115.61 87.89 115.17 85.31 115.19"/><polygon fill="#bcb5d1" points="104.11 99.67 104.22 100.11 110.59 100.07 110.48 99.63 104.11 99.67"/><polygon fill="#bcb5d1" points="113.46 99.67 113.56 100.11 119.94 100.07 119.83 99.63 113.46 99.67"/><polygon fill="#bcb5d1" points="114.16 103.59 114.27 104.03 120.64 103.99 120.53 103.55 114.16 103.59"/><polygon fill="#fff" points="104.52 102.01 104.63 102.45 108.31 102.43 108.21 101.99 104.52 102.01"/><polygon fill="#bcb5d1" points="82.39 103.88 82.49 104.33 97.41 104.23 97.31 103.79 82.39 103.88"/><polygon fill="#3700ff" points="107.61 103.73 107.71 104.17 111.56 104.14 111.46 103.7 107.61 103.73"/><polygon fill="#fff" points="81.58 99.81 81.68 100.25 93.2 100.18 93.1 99.74 81.58 99.81"/><polygon fill="#fff" points="95.66 99.72 95.77 100.16 101.4 100.13 101.3 99.68 95.66 99.72"/><polygon fill="#fff" points="100.05 101.97 100.16 102.41 102.85 102.39 102.75 101.95 100.05 101.97"/><polygon fill="#04fb99" points="82.05 101.54 82.15 101.98 89.55 101.94 89.44 101.5 82.05 101.54"/><polygon fill="#04fb99" points="112.81 101.54 112.92 101.98 120.31 101.94 120.21 101.5 112.81 101.54"/><polygon fill="#fff" points="117.17 119.36 117.27 119.8 124.06 119.76 123.96 119.32 117.17 119.36"/><polygon fill="#04fb99" points="116.01 116.43 116.12 116.87 123.51 116.82 123.41 116.38 116.01 116.43"/><polygon fill="#bcb5d1" points="115.89 110.17 116 110.61 122.37 110.57 122.26 110.13 115.89 110.17"/><polygon fill="#bcb5d1" points="116.59 114.1 116.7 114.54 123.07 114.5 122.97 114.06 116.59 114.1"/><polygon fill="#bcb5d1" points="118.03 121 118.14 121.44 124.51 121.4 124.41 120.96 118.03 121"/><polygon fill="#04fb99" points="115.25 112.05 115.35 112.49 122.75 112.44 122.64 112 115.25 112.05"/><polygon fill="#04fb99" points="82.25 102.36 82.36 102.8 84.93 102.79 84.83 102.35 82.25 102.36"/><path d="M146.12,141.06l-13.67-10.4a.73.73,0,0,0-.35-.09l-51.82-.76c-.94,0-1.27.78-.52,1.68l13,11.26a2.68,2.68,0,0,0,1.71.61h51.13C146.68,143.36,146.74,141.42,146.12,141.06Z"/><path fill="#dddae8" d="M145.91,140.88l-13.42-11.07a.64.64,0,0,0-.35-.1l-52.19.1,14.11,12.42,51.5,0A.7.7,0,0,0,145.91,140.88Z"/><path fill="#fff" d="M123.4,137.6a.44.44,0,0,0-.29-.11H107.92a.45.45,0,0,0-.29.79l3.39,3a.46.46,0,0,0,.3.11h15.42a.44.44,0,0,0,.28-.79Z"/><path d="M93.29,136.11l-.07,0H90.48s0,.06,0,.09l1,.73a.3.3,0,0,0,.11,0h2.55c.1,0,.13-.12,0-.18Z"/><path d="M95,135a.11.11,0,0,0-.07,0H89s0,.06,0,.09l1,.73a.19.19,0,0,0,.12,0h5.78c.1,0,.13-.12,0-.18Z"/><path d="M92.23,134a.12.12,0,0,0-.08,0h-4.6s0,.06,0,.09l1,.73a.14.14,0,0,0,.1,0H93.1c.1,0,.12-.12,0-.18Z"/><path d="M96.56,136.11l-.07,0H93.75s0,.06,0,.09l1,.73a.21.21,0,0,0,.11,0h2.55a.1.1,0,0,0,0-.18Z"/><path d="M89.07,132.86l-.07,0H86.25s0,.06,0,.09l1,.73a.21.21,0,0,0,.11.05H90a.1.1,0,0,0,0-.19Z"/><path d="M92.36,132.86l-.07,0H89.54s0,.06,0,.09l1,.73a.18.18,0,0,0,.11.05h2.57c.1,0,.12-.13,0-.19Z"/><path d="M87.79,131.77a.13.13,0,0,0-.08,0l-2.75,0s0,.05,0,.08l1,.74a.19.19,0,0,0,.12,0h2.57c.1,0,.12-.12,0-.18Z"/><path d="M88,131.07H84s0,0,0,0l.53.4.06,0h3.92a.05.05,0,0,0,0-.1Z"/><path d="M92.4,131.07H88.34s0,0,0,0l.53.4.06,0h3.92a.05.05,0,0,0,0-.1Z"/><path d="M96.79,131.07H92.73s0,0,0,0l.53.4,0,0h3.92a.05.05,0,0,0,0-.1Z"/><path d="M101.18,131.07H97.12s0,0,0,0l.52.4.06,0h3.92a.05.05,0,0,0,0-.1Z"/><path d="M105.56,131.07h-4s0,0,0,0l.53.4,0,0H106a.05.05,0,0,0,0-.1Z"/><path d="M110,131.07h-4s0,0,0,0l.52.4.06,0h3.92a.05.05,0,0,0,0-.1Z"/><path d="M114.34,131.07h-4s0,0,0,0l.52.4.06,0h3.92a.05.05,0,0,0,0-.1Z"/><path d="M118.73,131.07h-4s0,0,0,0l.51.4.06,0h3.92a.06.06,0,0,0,0-.1Z"/><path d="M123.12,131.07h-4.06s0,0,0,0l.51.4,0,0h3.92a.05.05,0,0,0,0-.1Z"/><path d="M127.51,131.07h-4.06s0,0,0,0l.5.4.06,0h3.92a.06.06,0,0,0,0-.1Z"/><path d="M131,131.07h-3.12s0,0,0,0l.5.4.06,0h3a.06.06,0,0,0,0-.1Z"/><path d="M91.08,131.77a.09.09,0,0,0-.07,0l-2.76,0s0,.05,0,.08l1,.74a.15.15,0,0,0,.11,0H92c.1,0,.13-.12,0-.18Z"/><path d="M99.83,136.11l-.08,0H97s0,.06,0,.09l1,.73a.3.3,0,0,0,.11,0h2.55c.1,0,.13-.12,0-.18Z"/><path d="M103.09,136.11l-.07,0h-2.73s0,.06,0,.09l1,.73a.3.3,0,0,0,.11,0h2.55a.1.1,0,0,0,0-.18Z"/><path d="M98.33,135a.11.11,0,0,0-.07,0H95.52s0,.06,0,.09l1,.73a.19.19,0,0,0,.11,0h2.56a.1.1,0,0,0,0-.18Z"/><path d="M101.6,135a.09.09,0,0,0-.07,0H98.79s0,.06,0,.09l1,.73a.19.19,0,0,0,.11,0h2.56a.1.1,0,0,0,0-.18Z"/><path d="M104.88,135a.11.11,0,0,0-.07,0h-2.74s0,.06,0,.09l1,.73a.19.19,0,0,0,.11,0h2.56a.1.1,0,0,0,0-.18Z"/><path d="M108.15,135a.09.09,0,0,0-.07,0h-2.74s0,.06,0,.09l1,.73a.19.19,0,0,0,.11,0H109a.1.1,0,0,0,0-.18Z"/><path d="M111.51,135a.11.11,0,0,0-.07,0H108.7s0,.06,0,.09l1,.73a.15.15,0,0,0,.11,0h2.55a.1.1,0,0,0,0-.18Z"/><path d="M114.78,135a.09.09,0,0,0-.07,0H112s0,.06,0,.09l1,.73a.15.15,0,0,0,.11,0h2.55a.1.1,0,0,0,0-.18Z"/><path d="M118.06,135a.11.11,0,0,0-.07,0h-2.74s0,.06,0,.09l1,.73a.15.15,0,0,0,.11,0h2.55a.1.1,0,0,0,.05-.18Z"/><path d="M121.33,135a.09.09,0,0,0-.07,0h-2.74s0,.06,0,.09l1,.73a.15.15,0,0,0,.11,0h2.55a.1.1,0,0,0,0-.18Z"/><path d="M124.68,135l-.06,0h-2.75s0,.06,0,.09l1,.73a.14.14,0,0,0,.1,0h2.56a.1.1,0,0,0,0-.18Z"/><path d="M128,135a.11.11,0,0,0-.07,0h-2.74s0,.06,0,.09l1,.73a.14.14,0,0,0,.1,0h2.56a.1.1,0,0,0,0-.18Z"/><path d="M99,134a.08.08,0,0,0-.07,0H96.14s0,.06,0,.09l1,.73a.19.19,0,0,0,.11,0h2.56c.1,0,.13-.12,0-.18Z"/><path d="M95.57,134a.08.08,0,0,0-.07,0H92.76s0,.06,0,.09l1,.73a.15.15,0,0,0,.11,0h2.56c.1,0,.12-.12,0-.18Z"/><path d="M102.24,134a.08.08,0,0,0-.07,0H99.43s0,.06,0,.09l1,.73a.15.15,0,0,0,.11,0h2.56c.1,0,.12-.12,0-.18Z"/><path d="M105.53,134a.1.1,0,0,0-.07,0h-2.75s0,.06,0,.09l1,.73a.19.19,0,0,0,.11,0h2.56a.1.1,0,0,0,0-.18Z"/><path d="M108.81,134a.1.1,0,0,0-.07,0H106s0,.06,0,.09l1,.73a.17.17,0,0,0,.11,0h2.56a.1.1,0,0,0,0-.18Z"/><path d="M112.17,134a.1.1,0,0,0-.07,0h-2.75s0,.06,0,.09l1,.73a.14.14,0,0,0,.1,0H113a.1.1,0,0,0,0-.18Z"/><path d="M115.45,134a.08.08,0,0,0-.07,0h-2.75s0,.06,0,.09l1,.73a.19.19,0,0,0,.11,0h2.56a.1.1,0,0,0,0-.18Z"/><path d="M118.73,134a.08.08,0,0,0-.07,0h-2.74s0,.06,0,.09l1,.73a.15.15,0,0,0,.11,0h2.56a.1.1,0,0,0,0-.18Z"/><path d="M122,134a.1.1,0,0,0-.07,0H119.2s0,.06,0,.09l1,.73a.15.15,0,0,0,.11,0h2.56a.1.1,0,0,0,0-.18Z"/><path d="M125.38,134a.1.1,0,0,0-.07,0h-2.75s0,.06,0,.09l1,.73a.17.17,0,0,0,.11,0h2.56a.1.1,0,0,0,0-.18Z"/><path d="M128.66,134a.1.1,0,0,0-.07,0h-2.75s0,.06,0,.09l1,.73a.15.15,0,0,0,.11,0h2.56a.1.1,0,0,0,.05-.18Z"/><path d="M95.8,132.86l-.07,0H93s0,.06,0,.09l1,.73a.21.21,0,0,0,.11.05h2.57a.1.1,0,0,0,0-.19Z"/><path d="M99.09,132.86l-.07,0H96.27s0,.06,0,.09l1,.73a.18.18,0,0,0,.11.05H100c.09,0,.12-.13,0-.19Z"/><path d="M102.38,132.86l-.07,0H99.56s0,.06,0,.09l1,.73a.21.21,0,0,0,.11.05h2.57a.1.1,0,0,0,0-.19Z"/><path d="M105.67,132.86l-.07,0h-2.75s0,.06,0,.09l1,.73a.16.16,0,0,0,.11.05h2.56a.1.1,0,0,0,0-.19Z"/><path d="M109,132.86l-.07,0h-2.75s0,.06,0,.09l1,.73a.18.18,0,0,0,.11.05h2.56a.1.1,0,0,0,.05-.19Z"/><path d="M112.33,132.86l-.07,0h-2.75s0,.06,0,.09l1,.73a.21.21,0,0,0,.11.05h2.57a.1.1,0,0,0,0-.19Z"/><path d="M115.62,132.86l-.07,0H112.8s0,.06,0,.09l1,.73a.16.16,0,0,0,.11.05h2.56a.1.1,0,0,0,0-.19Z"/><path d="M118.91,132.86l-.07,0h-2.75s0,.06,0,.09l1,.73a.21.21,0,0,0,.11.05h2.57a.1.1,0,0,0,.05-.19Z"/><path d="M122.28,132.86l-.07,0h-2.75s0,.06,0,.09l1,.73a.21.21,0,0,0,.11.05h2.57a.1.1,0,0,0,.05-.19Z"/><path d="M125.57,132.86l-.07,0h-2.75s0,.06,0,.09l1,.73a.16.16,0,0,0,.11.05h2.56a.11.11,0,0,0,.06-.19Z"/><path d="M94.5,131.77a.11.11,0,0,0-.07,0l-2.76,0s0,.05,0,.08l1,.74a.19.19,0,0,0,.11,0h2.57c.1,0,.13-.12,0-.18Z"/><path d="M97.8,131.77a.11.11,0,0,0-.07,0l-2.76,0s0,.05,0,.08l1,.74a.19.19,0,0,0,.11,0h2.57a.1.1,0,0,0,0-.18Z"/><path d="M101.1,131.77a.13.13,0,0,0-.08,0l-2.75,0s0,.05,0,.08l1,.74a.19.19,0,0,0,.11,0H102a.1.1,0,0,0,0-.18Z"/><path d="M104.39,131.77a.09.09,0,0,0-.07,0l-2.76,0s0,.05,0,.08l1,.74a.19.19,0,0,0,.11,0h2.58c.1,0,.13-.12,0-.18Z"/><path d="M107.77,131.77a.11.11,0,0,0-.07,0l-2.76,0s0,.05,0,.08l1,.74a.19.19,0,0,0,.11,0h2.58c.1,0,.13-.12,0-.18Z"/><path d="M111.07,131.77a.13.13,0,0,0-.08,0l-2.75,0s0,.05,0,.08l1,.74a.19.19,0,0,0,.12,0h2.57c.1,0,.13-.12,0-.18Z"/><path d="M114.36,131.77a.09.09,0,0,0-.07,0l-2.76,0s0,.05,0,.08l1,.74a.15.15,0,0,0,.11,0h2.57a.1.1,0,0,0,0-.18Z"/><path d="M117.66,131.77a.11.11,0,0,0-.07,0l-2.76,0s0,.05,0,.08l1,.74a.15.15,0,0,0,.11,0h2.57a.1.1,0,0,0,.05-.18Z"/><path d="M121,131.77a.09.09,0,0,0-.07,0l-2.75,0s0,.05,0,.08l1,.74a.15.15,0,0,0,.11,0h2.57a.1.1,0,0,0,0-.18Z"/><path d="M124.33,131.77a.09.09,0,0,0-.07,0l-2.76,0s0,.05,0,.08l1,.74a.15.15,0,0,0,.11,0h2.57a.1.1,0,0,0,0-.18Z"/><path d="M135.8,135a.11.11,0,0,0-.07,0h-7.29s0,.06,0,.09l.94.73a.17.17,0,0,0,.11,0h7.09a.1.1,0,0,0,.06-.18Z"/><path d="M133.09,132.86l-.07,0h-7.09s0,.06,0,.09l1,.73a.16.16,0,0,0,.11.05h6.89a.11.11,0,0,0,.06-.19Z"/><path d="M131.79,131.77a.09.09,0,0,0-.07,0l-6.87,0s0,.05,0,.08l1,.74a.14.14,0,0,0,.1,0h6.68a.1.1,0,0,0,.06-.18Z"/><path d="M134.42,134a.07.07,0,0,0-.06,0h-5.23s0,.06,0,.09l1,.73a.14.14,0,0,0,.1,0h5a.1.1,0,0,0,.06-.18Z"/><path d="M127.05,136.11l-.07,0h-2.74s0,.06,0,.09l1,.73a.21.21,0,0,0,.1,0h2.55a.1.1,0,0,0,.06-.18Z"/><path d="M130.31,136.11l-.06,0h-2.74s0,.06,0,.09l.94.73a.21.21,0,0,0,.11,0h2.55a.1.1,0,0,0,0-.18Z"/><path d="M133.58,136.11l-.07,0h-2.73s0,.06,0,.09l.93.73a.25.25,0,0,0,.11,0h2.55a.1.1,0,0,0,.05-.18Z"/><path d="M137.08,136.11l-.07,0h-3s0,.06,0,.09l.93.73a.3.3,0,0,0,.11,0h2.78a.1.1,0,0,0,.06-.18Z"/><path d="M123.66,136.11l-.07,0h-20s0,.06,0,.09l1,.73a.21.21,0,0,0,.1,0h19.83a.1.1,0,0,0,0-.18Z"/><path fill="#fff" d="M121.75,117.15l-9.07-2.43,2.43,9.07a.16.16,0,0,0,.27.07l1.25-4,3.08,3.09a.17.17,0,0,0,.23,0l1.14-1.15a.17.17,0,0,0,0-.23L118,118.5l3.82-1.08A.16.16,0,0,0,121.75,117.15Z"/><path fill="#ffb99c" d="M138.49,140.88c-.54-1.4-1.44-1.37-2.35-2.19s-1.93-.62-2,0,.8,1.66.8,1.66-1.68-.89-2.7-1.32a4.33,4.33,0,0,0-2.18-.37,9.93,9.93,0,0,0-1.08.46s-4.16.35-4.22,1.75,2.59.67,2.59.67c.36.61,1.4.61,1.4.61-1,1.87-2.43,1.27-6.27,1.27h-7.35s4,5.27,9.66,5.81c5.26.5,8.82,2.77,11.32-.29s3.6-3.49,3.33-4.39A33.26,33.26,0,0,0,138.49,140.88Z"/><path d="M136.63,141.56v-.11l-.09-.07s-1.16-.91-1.61-1.31l-.28.32c.39.34,1.26,1,1.55,1.25a7.08,7.08,0,0,0,.29,2.53,2.69,2.69,0,0,0-1.25,1.26l.4.15a2.39,2.39,0,0,1,1.2-1.12l.18-.09-.08-.18A6.47,6.47,0,0,1,136.63,141.56Z"/><path d="M129,138.9l-.13.4a7.14,7.14,0,0,1,2,1,4.38,4.38,0,0,1,.34,2.65,11.52,11.52,0,0,1-.6,2.3l.4.15a12.66,12.66,0,0,0,.62-2.39c.11-.87.08-2.44-.46-3A7.35,7.35,0,0,0,129,138.9Z"/><path d="M135.32,140.88a14.11,14.11,0,0,1-.41,5.64l.4.12a14.34,14.34,0,0,0,.42-5.85Z"/><path d="M129.45,138.83l-.07.42s3.45.63,4,2.09a12.3,12.3,0,0,1,.07,4.53l.42.07a12.71,12.71,0,0,0-.09-4.74C133.15,139.51,129.6,138.86,129.45,138.83Z"/><path d="M70.76,88.85l-.25,0a12.94,12.94,0,0,1,1.76-5.42c2.13-3,5.09-4,8.31-2.88.86.29,1.27.62,1.26,1,0,.79-2,1.35-2.17,1.41l-.07-.24c.76-.21,2-.72,2-1.18,0-.25-.38-.52-1.09-.76-3.16-1.09-5.93-.12-8,2.78A13,13,0,0,0,70.76,88.85Z"/></svg>